STARTFONT 2.1
FONT -Baekmuk-Batang-Medium-R-Normal--24-240-75-75-M-240-ksx1001.1997-0
SIZE 24 75 75
FONTBOUNDINGBOX 24 24 0 -5
STARTPROPERTIES 18
FOUNDRY "Baekmuk"
FAMILY_NAME "Batang"
WEIGHT_NAME "Medium"
SLANT "R"
SETWIDTH_NAME "Normal"
ADD_STYLE_NAME ""
PIXEL_SIZE 24
POINT_SIZE 240
RESOLUTION_X 75
RESOLUTION_Y 75
SPACING "M"
AVERAGE_WIDTH 240
CHARSET_REGISTRY "ksx1001.1997"
CHARSET_ENCODING "0"
DEFAULT_CHAR 8481
FONT_ASCENT 19
FONT_DESCENT 4
COPYRIGHT "(c)Hwan Design Inc. and Mizi Research Inc."
ENDPROPERTIES
CHARS 8224
STARTCHAR 3000
ENCODING 8481
SWIDTH 2400 0
DWIDTH 24 0
BBX 0 0 0 0
BITMAP
ENDCHAR
STARTCHAR 3001
ENCODING 8482
SWIDTH 2400 0
DWIDTH 24 0
BBX 4 4 17 15
BITMAP
C0
70
30
10
ENDCHAR
STARTCHAR 3002
ENCODING 8483
SWIDTH 2400 0
DWIDTH 24 0
BBX 5 6 16 13
BITMAP
70
C8
88
88
88
70
ENDCHAR
STARTCHAR 00B7
ENCODING 8484
SWIDTH 2400 0
DWIDTH 24 0
BBX 4 3 10 6
BITMAP
60
F0
F0
ENDCHAR
STARTCHAR 2025
ENCODING 8485
SWIDTH 2400 0
DWIDTH 24 0
BBX 14 3 5 6
BITMAP
4004
E004
E004
ENDCHAR
STARTCHAR 2026
ENCODING 8486
SWIDTH 2400 0
DWIDTH 24 0
BBX 18 3 3 6
BITMAP
804040
804040
804040
ENDCHAR
STARTCHAR 00A8
ENCODING 8487
SWIDTH 2400 0
DWIDTH 24 0
BBX 10 3 7 6
BITMAP
8040
8040
8040
ENDCHAR
STARTCHAR 3003
ENCODING 8488
SWIDTH 2400 0
DWIDTH 24 0
BBX 7 8 8 3
BITMAP
32
26
26
64
44
48
88
80
ENDCHAR
STARTCHAR 00AD
ENCODING 8489
SWIDTH 2400 0
DWIDTH 24 0
BBX 10 1 7 7
BITMAP
FFC0
ENDCHAR
STARTCHAR 2015
ENCODING 8490
SWIDTH 2400 0
DWIDTH 24 0
BBX 22 1 1 7
BITMAP
FFFFFC
ENDCHAR
STARTCHAR 2225
ENCODING 8491
SWIDTH 2400 0
DWIDTH 24 0
BBX 6 20 9 -3
BITMAP
84
84
84
84
84
84
84
84
84
84
84
84
84
84
84
84
84
84
84
84
ENDCHAR
STARTCHAR FF3C
ENCODING 8492
SWIDTH 2400 0
DWIDTH 24 0
BBX 20 20 2 -3
BITMAP
800000
400000
200000
100000
080000
040000
020000
010000
008000
006000
003000
001800
000C00
000600
000300
000180
0000C0
000060
000030
000010
ENDCHAR
STARTCHAR 223C
ENCODING 8493
SWIDTH 2400 0
DWIDTH 24 0
BBX 16 4 4 5
BITMAP
1E00
7703
81C6
007C
ENDCHAR
STARTCHAR 2018
ENCODING 8494
SWIDTH 2400 0
DWIDTH 24 0
BBX 3 5 16 13
BITMAP
40
40
C0
E0
60
ENDCHAR
STARTCHAR 2019
ENCODING 8495
SWIDTH 2400 0
DWIDTH 24 0
BBX 3 6 5 13
BITMAP
C0
E0
60
40
40
80
ENDCHAR
STARTCHAR 201C
ENCODING 8496
SWIDTH 2400 0
DWIDTH 24 0
BBX 8 6 14 13
BITMAP
21
42
84
C6
E7
C7
ENDCHAR
STARTCHAR 201D
ENCODING 8497
SWIDTH 2400 0
DWIDTH 24 0
BBX 8 6 2 13
BITMAP
03
E7
E1
21
42
44
ENDCHAR
STARTCHAR 3014
ENCODING 8498
SWIDTH 2400 0
DWIDTH 24 0
BBX 5 22 17 -4
BITMAP
18
60
80
80
80
80
80
80
80
80
80
80
80
80
80
80
80
80
80
C0
70
08
ENDCHAR
STARTCHAR 3015
ENCODING 8499
SWIDTH 2400 0
DWIDTH 24 0
BBX 5 22 2 -4
BITMAP
C0
38
08
08
08
08
08
08
08
08
08
08
08
08
08
08
08
08
08
18
60
80
ENDCHAR
STARTCHAR 3008
ENCODING 8500
SWIDTH 2400 0
DWIDTH 24 0
BBX 9 20 14 -3
BITMAP
0080
0100
0200
0600
0C00
0800
1000
2000
4000
C000
C000
6000
2000
1000
0800
0C00
0600
0200
0100
0080
ENDCHAR
STARTCHAR 3009
ENCODING 8501
SWIDTH 2400 0
DWIDTH 24 0
BBX 9 20 1 -3
BITMAP
C000
4000
2000
1000
1800
0800
0400
0200
0300
0180
0180
0100
0200
0400
0C00
1800
1000
2000
4000
8000
ENDCHAR
STARTCHAR 300A
ENCODING 8502
SWIDTH 2400 0
DWIDTH 24 0
BBX 9 20 14 -3
BITMAP
0480
0500
0A00
1200
1400
2400
2800
5000
9000
A000
A000
9000
5000
2800
2800
1400
1200
0A00
0500
0480
ENDCHAR
STARTCHAR 300B
ENCODING 8503
SWIDTH 2400 0
DWIDTH 24 0
BBX 9 20 1 -3
BITMAP
9000
5000
4800
2800
1400
1200
0A00
0900
0500
0280
0280
0500
0900
0A00
1200
1400
2800
4800
5000
9000
ENDCHAR
STARTCHAR 300C
ENCODING 8504
SWIDTH 2400 0
DWIDTH 24 0
BBX 8 11 15 8
BITMAP
FF
80
80
80
80
80
80
80
80
80
80
ENDCHAR
STARTCHAR 300D
ENCODING 8505
SWIDTH 2400 0
DWIDTH 24 0
BBX 8 11 2 -4
BITMAP
01
01
01
01
01
01
01
01
01
01
FF
ENDCHAR
STARTCHAR 300E
ENCODING 8506
SWIDTH 2400 0
DWIDTH 24 0
BBX 8 11 15 8
BITMAP
FF
81
FF
C0
C0
C0
C0
C0
C0
C0
C0
ENDCHAR
STARTCHAR 300F
ENCODING 8507
SWIDTH 2400 0
DWIDTH 24 0
BBX 9 11 1 -5
BITMAP
0380
0280
0280
0280
0280
0280
0280
0280
FE80
8080
FF80
ENDCHAR
STARTCHAR 3010
ENCODING 8508
SWIDTH 2400 0
DWIDTH 24 0
BBX 7 22 16 -4
BITMAP
FC
F8
F8
F0
F0
F0
F0
E0
E0
E0
E0
E0
E0
E0
E0
F0
F0
F0
F8
F8
FC
FE
ENDCHAR
STARTCHAR 3011
ENCODING 8509
SWIDTH 2400 0
DWIDTH 24 0
BBX 6 22 2 -4
BITMAP
FC
7C
7C
3C
3C
3C
1C
1C
1C
1C
1C
1C
1C
1C
1C
3C
3C
3C
3C
7C
7C
FC
ENDCHAR
STARTCHAR 00B1
ENCODING 8510
SWIDTH 2400 0
DWIDTH 24 0
BBX 15 16 5 0
BITMAP
0100
0100
0100
0100
0100
0100
0100
FFFE
0100
0100
0100
0100
0100
0100
0000
FFFE
ENDCHAR
STARTCHAR 00D7
ENCODING 8511
SWIDTH 2400 0
DWIDTH 24 0
BBX 14 14 5 0
BITMAP
8004
400C
2010
1020
0840
0480
0300
0300
0480
0840
1020
6010
C008
8004
ENDCHAR
STARTCHAR 00F7
ENCODING 8512
SWIDTH 2400 0
DWIDTH 24 0
BBX 16 14 4 0
BITMAP
0100
0100
0100
0000
0000
0000
0000
FFFF
0000
0000
0000
0100
0100
0100
ENDCHAR
STARTCHAR 2260
ENCODING 8513
SWIDTH 2400 0
DWIDTH 24 0
BBX 17 14 4 0
BITMAP
020000
020000
020000
010000
FFFF80
010000
008000
008000
008000
FFFF80
004000
004000
004000
006000
ENDCHAR
STARTCHAR 2264
ENCODING 8514
SWIDTH 2400 0
DWIDTH 24 0
BBX 17 14 3 0
BITMAP
000080
000700
001800
00E000
030000
1C0000
E00000
1C0000
038000
006000
001C00
000380
000000
7FFF80
ENDCHAR
STARTCHAR 2265
ENCODING 8515
SWIDTH 2400 0
DWIDTH 24 0
BBX 16 14 4 0
BITMAP
4000
3000
0E00
0380
0060
001C
0003
001C
00E0
0380
1C00
E000
0000
FFFF
ENDCHAR
STARTCHAR 221E
ENCODING 8516
SWIDTH 2400 0
DWIDTH 24 0
BBX 20 9 2 3
BITMAP
1C0380
230C60
409020
80F010
806010
806010
80F010
419820
3F0FC0
ENDCHAR
STARTCHAR 2234
ENCODING 8517
SWIDTH 2400 0
DWIDTH 24 0
BBX 14 13 5 1
BITMAP
0700
0700
0700
0000
0000
0000
0000
0000
0000
0000
E01C
E01C
E01C
ENDCHAR
STARTCHAR 00B0
ENCODING 8518
SWIDTH 2400 0
DWIDTH 24 0
BBX 6 6 2 13
BITMAP
30
C8
84
84
48
30
ENDCHAR
STARTCHAR 2032
ENCODING 8519
SWIDTH 2400 0
DWIDTH 24 0
BBX 5 6 2 13
BITMAP
38
30
20
40
40
80
ENDCHAR
STARTCHAR 2033
ENCODING 8520
SWIDTH 2400 0
DWIDTH 24 0
BBX 9 6 2 13
BITMAP
3180
3300
6200
4600
4400
8000
ENDCHAR
STARTCHAR 2103
ENCODING 8521
SWIDTH 2400 0
DWIDTH 24 0
BBX 15 18 4 0
BITMAP
7000
89E0
8E1A
7C06
0806
1802
1000
1000
1000
1000
1000
1000
1000
1800
1804
0C04
0618
03E0
ENDCHAR
STARTCHAR 212B
ENCODING 8522
SWIDTH 2400 0
DWIDTH 24 0
BBX 18 19 3 0
BITMAP
00C000
012000
012000
012000
00C000
00C000
01E000
016000
027000
023000
043800
041800
0FFC00
080C00
180E00
100600
300700
700780
FC1FC0
ENDCHAR
STARTCHAR FFE0
ENCODING 8523
SWIDTH 2400 0
DWIDTH 24 0
BBX 22 21 1 -3
BITMAP
000004
00FD88
010FB0
0603E0
0801C0
0803C0
100600
100C00
101800
103000
106000
10C000
118000
1B0040
0E0040
0E0080
0B8300
10FC00
200000
400000
800000
ENDCHAR
STARTCHAR FFE1
ENCODING 8524
SWIDTH 2400 0
DWIDTH 24 0
BBX 15 18 5 -1
BITMAP
00F0
011C
020C
060C
060C
0600
0600
0600
0600
FFF0
0600
0600
0600
7602
8F04
89FC
F070
6000
ENDCHAR
STARTCHAR FFE5
ENCODING 8525
SWIDTH 2400 0
DWIDTH 24 0
BBX 14 16 4 0
BITMAP
FE3C
3810
1810
1C20
0E40
7FFC
0740
0380
0100
7FFC
0100
0100
0100
0100
0100
0FE0
ENDCHAR
STARTCHAR 2642
ENCODING 8526
SWIDTH 2400 0
DWIDTH 24 0
BBX 11 20 7 -3
BITMAP
0400
0E00
1F00
1500
2480
4440
8420
0420
0400
0400
0400
0400
1F00
2180
4080
4080
4080
4080
2100
1E00
ENDCHAR
STARTCHAR 2640
ENCODING 8527
SWIDTH 2400 0
DWIDTH 24 0
BBX 15 20 5 -3
BITMAP
07C0
0860
1030
1030
1030
1030
1020
0FC0
0100
0100
0100
FFFE
0100
0100
0100
0100
0100
0100
0100
0100
ENDCHAR
STARTCHAR 2220
ENCODING 8528
SWIDTH 2400 0
DWIDTH 24 0
BBX 15 13 4 0
BITMAP
000C
0010
0020
0040
0080
0100
0200
0400
0800
1000
2000
4000
FFFE
ENDCHAR
STARTCHAR 22A5
ENCODING 8529
SWIDTH 2400 0
DWIDTH 24 0
BBX 15 14 5 0
BITMAP
0100
0100
0100
0100
0100
0100
0100
0100
0100
0100
0100
0100
0100
FFFE
ENDCHAR
STARTCHAR 2312
ENCODING 8530
SWIDTH 2400 0
DWIDTH 24 0
BBX 14 3 5 15
BITMAP
1FE0
6018
8004
ENDCHAR
STARTCHAR 2202
ENCODING 8531
SWIDTH 2400 0
DWIDTH 24 0
BBX 10 17 7 0
BITMAP
0200
1F80
3180
00C0
0040
0040
0040
0C40
3340
6140
4180
C180
8380
8300
8600
8600
7C00
ENDCHAR
STARTCHAR 2207
ENCODING 8532
SWIDTH 2400 0
DWIDTH 24 0
BBX 18 14 3 0
BITMAP
FFFFC0
800040
400080
200100
200100
100200
080400
080400
040800
021000
021000
012000
00C000
00C000
ENDCHAR
STARTCHAR 2261
ENCODING 8533
SWIDTH 2400 0
DWIDTH 24 0
BBX 16 8 4 3
BITMAP
FFFF
0000
0000
FFFF
0000
0000
0000
FFFF
ENDCHAR
STARTCHAR 2252
ENCODING 8534
SWIDTH 2400 0
DWIDTH 24 0
BBX 16 14 4 0
BITMAP
2000
2000
2000
0000
FFFF
0000
0000
0000
0000
FFFF
0000
0004
0004
0004
ENDCHAR
STARTCHAR 00A7
ENCODING 8535
SWIDTH 2400 0
DWIDTH 24 0
BBX 8 20 7 -3
BITMAP
7C
C6
87
87
C0
E0
78
7C
E6
C3
C1
E1
7A
3C
1E
0F
C7
C3
C6
7C
ENDCHAR
STARTCHAR 203B
ENCODING 8536
SWIDTH 2400 0
DWIDTH 24 0
BBX 15 16 5 -1
BITMAP
0004
8704
4788
2790
1720
0840
E4BC
F33C
F33C
E4BC
0840
1720
2790
6788
C704
8002
ENDCHAR
STARTCHAR 2606
ENCODING 8537
SWIDTH 2400 0
DWIDTH 24 0
BBX 19 18 3 -2
BITMAP
00C000
00C000
00C000
012000
012000
012000
FE1FE0
400080
200100
100200
080C00
040800
080C00
08C400
092400
161200
180E00
200000
ENDCHAR
STARTCHAR 2605
ENCODING 8538
SWIDTH 2400 0
DWIDTH 24 0
BBX 19 18 3 -2
BITMAP
004000
00C000
00C000
01E000
01E000
01E000
FFFFE0
7FFF80
3FFF00
0FFE00
07F800
07FC00
0FFC00
0FFC00
0F3C00
1C0E00
100600
200000
ENDCHAR
STARTCHAR 25CB
ENCODING 8539
SWIDTH 2400 0
DWIDTH 24 0
BBX 20 20 2 -3
BITMAP
01F800
060600
180180
3000C0
200040
400020
400020
800010
800010
800010
800010
800010
800010
400020
400020
200060
3000C0
180180
060700
01F800
ENDCHAR
STARTCHAR 25CF
ENCODING 8540
SWIDTH 2400 0
DWIDTH 24 0
BBX 20 19 2 -2
BITMAP
01F800
07FF00
0FFF80
1FFFC0
3FFFE0
7FFFE0
7FFFF0
7FFFF0
FFFFF0
FFFFF0
FFFFF0
FFFFF0
7FFFF0
7FFFE0
3FFFE0
3FFFC0
1FFF80
07FF00
01FC00
ENDCHAR
STARTCHAR 25CE
ENCODING 8541
SWIDTH 2400 0
DWIDTH 24 0
BBX 20 20 2 -3
BITMAP
01F800
060600
180180
3000C0
21F040
460C20
4C0620
880210
900110
900110
900110
900110
900110
480220
4C0620
260C60
31F0C0
180180
060700
01F800
ENDCHAR
STARTCHAR 25C7
ENCODING 8542
SWIDTH 2400 0
DWIDTH 24 0
BBX 22 22 1 -4
BITMAP
001000
003800
004C00
008600
010300
060180
0C00C0
180060
300030
600018
C0000C
C00008
600010
300020
180040
0C0080
060100
030200
018400
00C800
007000
002000
ENDCHAR
STARTCHAR 25C6
ENCODING 8543
SWIDTH 2400 0
DWIDTH 24 0
BBX 21 22 1 -4
BITMAP
002000
007000
00F800
01FC00
03FE00
07FF00
0FFF80
1FFFC0
3FFFE0
7FFFF0
FFFFF8
FFFFF8
7FFFF0
3FFFE0
1FFFC0
0FFF80
07FF00
03FE00
01FC00
00F800
007000
002000
ENDCHAR
STARTCHAR 25A1
ENCODING 8544
SWIDTH 2400 0
DWIDTH 24 0
BBX 19 18 3 -2
BITMAP
FFFFE0
800020
800020
800020
800020
800020
800020
800020
800020
800020
800020
800020
800020
800020
800020
800020
800020
FFFFE0
ENDCHAR
STARTCHAR 25A0
ENCODING 8545
SWIDTH 2400 0
DWIDTH 24 0
BBX 19 18 3 -2
BITMAP
FFFFE0
FFFFE0
FFFFE0
FFFFE0
FFFFE0
FFFFE0
FFFFE0
FFFFE0
FFFFE0
FFFFE0
FFFFE0
FFFFE0
FFFFE0
FFFFE0
FFFFE0
FFFFE0
FFFFE0
FFFFE0
ENDCHAR
STARTCHAR 25B3
ENCODING 8546
SWIDTH 2400 0
DWIDTH 24 0
BBX 20 14 2 0
BITMAP
006000
009000
011000
010800
020400
020400
040200
080100
080100
100080
200040
200040
400020
FFFFF0
ENDCHAR
STARTCHAR 25B2
ENCODING 8547
SWIDTH 2400 0
DWIDTH 24 0
BBX 20 14 2 0
BITMAP
006000
00F000
00F000
01F800
03FC00
03FC00
07FE00
0FFF00
0FFF00
1FFF80
3FFFC0
3FFFC0
7FFFE0
FFFFF0
ENDCHAR
STARTCHAR 25BD
ENCODING 8548
SWIDTH 2400 0
DWIDTH 24 0
BBX 20 15 2 -1
BITMAP
FFFFF0
400020
200040
200040
100080
180100
080100
040200
060200
020400
010800
010800
009000
00F000
006000
ENDCHAR
STARTCHAR 25BC
ENCODING 8549
SWIDTH 2400 0
DWIDTH 24 0
BBX 20 15 2 -1
BITMAP
FFFFF0
7FFFE0
3FFFC0
3FFFC0
1FFF80
1FFF00
0FFF00
07FE00
07FE00
03FC00
01F800
01F800
00F000
00F000
006000
ENDCHAR
STARTCHAR 2192
ENCODING 8550
SWIDTH 2400 0
DWIDTH 24 0
BBX 21 8 1 3
BITMAP
000080
0000C0
000070
FFFFF8
000038
000060
0000C0
000100
ENDCHAR
STARTCHAR 2190
ENCODING 8551
SWIDTH 2400 0
DWIDTH 24 0
BBX 22 7 1 4
BITMAP
040000
180000
300000
FFFFFC
700000
180000
0C0000
ENDCHAR
STARTCHAR 2191
ENCODING 8552
SWIDTH 2400 0
DWIDTH 24 0
BBX 8 22 9 -4
BITMAP
10
18
38
7C
54
92
11
10
10
10
10
10
10
10
10
10
10
10
10
10
10
10
ENDCHAR
STARTCHAR 2193
ENCODING 8553
SWIDTH 2400 0
DWIDTH 24 0
BBX 9 22 7 -4
BITMAP
0800
0800
0800
0800
0800
0800
0800
0800
0800
0800
0800
0800
0800
0800
0800
8880
4900
2A00
3E00
1C00
1800
0800
ENDCHAR
STARTCHAR 2194
ENCODING 8554
SWIDTH 2400 0
DWIDTH 24 0
BBX 19 8 3 3
BITMAP
100200
200100
6000C0
FFFFE0
C000C0
600180
200100
000200
ENDCHAR
STARTCHAR 3013
ENCODING 8555
SWIDTH 2400 0
DWIDTH 24 0
BBX 16 6 4 4
BITMAP
FFFF
0000
0000
0000
0000
FFFF
ENDCHAR
STARTCHAR 226A
ENCODING 8556
SWIDTH 2400 0
DWIDTH 24 0
BBX 18 17 3 -1
BITMAP
000800
001040
006180
008600
030C00
043000
186000
218000
C30000
C30000
308000
086000
061800
010C00
00C300
002080
001840
ENDCHAR
STARTCHAR 226B
ENCODING 8557
SWIDTH 2400 0
DWIDTH 24 0
BBX 18 17 3 -1
BITMAP
040000
820000
618000
184000
0C3000
030800
018600
006180
0030C0
0030C0
00C300
018400
061800
0C2000
30C000
430000
860000
ENDCHAR
STARTCHAR 221A
ENCODING 8558
SWIDTH 2400 0
DWIDTH 24 0
BBX 22 20 2 -2
BITMAP
000FFC
001000
001000
001000
002000
002000
004000
004000
004000
008000
008000
010000
210000
610000
B20000
320000
1A0000
1C0000
0C0000
080000
ENDCHAR
STARTCHAR 223D
ENCODING 8559
SWIDTH 2400 0
DWIDTH 24 0
BBX 19 10 2 2
BITMAP
1E0700
6018C0
403040
802020
804020
804020
808020
418040
6308C0
1C0F00
ENDCHAR
STARTCHAR 221D
ENCODING 8560
SWIDTH 2400 0
DWIDTH 24 0
BBX 17 9 4 3
BITMAP
1C0700
631880
40B000
80A000
804000
806000
80A000
411000
3E0F80
ENDCHAR
STARTCHAR 2235
ENCODING 8561
SWIDTH 2400 0
DWIDTH 24 0
BBX 12 12 7 1
BITMAP
8010
8010
8010
0000
0000
0000
0000
0000
0000
0E00
0E00
0E00
ENDCHAR
STARTCHAR 222B
ENCODING 8562
SWIDTH 2400 0
DWIDTH 24 0
BBX 4 20 10 -3
BITMAP
70
B0
80
80
80
C0
C0
C0
60
60
60
20
30
30
10
10
10
10
E0
E0
ENDCHAR
STARTCHAR 222C
ENCODING 8563
SWIDTH 2400 0
DWIDTH 24 0
BBX 10 20 7 -3
BITMAP
71C0
B2C0
8200
8200
8200
C300
C300
C300
6180
6180
6180
2080
30C0
30C0
10C0
1040
1040
1040
E340
E380
ENDCHAR
STARTCHAR 2208
ENCODING 8564
SWIDTH 2400 0
DWIDTH 24 0
BBX 17 13 3 0
BITMAP
07FF80
180000
600000
400000
800000
800000
FFFF80
800000
800000
400000
600000
300000
0FFF80
ENDCHAR
STARTCHAR 220B
ENCODING 8565
SWIDTH 2400 0
DWIDTH 24 0
BBX 18 13 3 0
BITMAP
FFF800
000600
000100
000080
0000C0
000040
FFFFC0
000040
0000C0
000080
000180
000300
FFFC00
ENDCHAR
STARTCHAR 2286
ENCODING 8566
SWIDTH 2400 0
DWIDTH 24 0
BBX 15 14 4 0
BITMAP
0FFE
3000
4000
8000
8000
8000
8000
4000
6000
1FFE
0000
0000
0000
FFFE
ENDCHAR
STARTCHAR 2287
ENCODING 8567
SWIDTH 2400 0
DWIDTH 24 0
BBX 15 14 5 0
BITMAP
FFF0
0008
0004
0002
0002
0002
0002
0004
000C
FFF0
0000
0000
0000
FFFC
ENDCHAR
STARTCHAR 2282
ENCODING 8568
SWIDTH 2400 0
DWIDTH 24 0
BBX 17 13 3 0
BITMAP
07FF80
180000
200000
400000
800000
800000
800000
800000
800000
400000
600000
300000
0FFF80
ENDCHAR
STARTCHAR 2283
ENCODING 8569
SWIDTH 2400 0
DWIDTH 24 0
BBX 17 13 4 0
BITMAP
FFF800
000600
000300
000100
000080
000080
000080
000080
000080
000180
000100
000600
FFFC00
ENDCHAR
STARTCHAR 222A
ENCODING 8570
SWIDTH 2400 0
DWIDTH 24 0
BBX 14 17 5 -2
BITMAP
8004
8004
8004
8004
8004
8004
8004
8004
8004
8004
8004
8004
800C
4008
6010
3060
0F80
ENDCHAR
STARTCHAR 2229
ENCODING 8571
SWIDTH 2400 0
DWIDTH 24 0
BBX 14 17 5 -2
BITMAP
0FC0
1830
2018
4008
8004
8004
8004
8004
8004
8004
8004
8004
8004
8004
8004
8004
8000
ENDCHAR
STARTCHAR 2227
ENCODING 8572
SWIDTH 2400 0
DWIDTH 24 0
BBX 16 14 4 0
BITMAP
0180
0180
0240
0240
0420
0430
0810
1008
1008
2004
2004
4002
4002
8001
ENDCHAR
STARTCHAR 2228
ENCODING 8573
SWIDTH 2400 0
DWIDTH 24 0
BBX 16 14 4 0
BITMAP
8001
4003
4002
2004
2004
1008
1808
0810
0C30
0420
0260
0240
0180
0180
ENDCHAR
STARTCHAR FFE2
ENCODING 8574
SWIDTH 2400 0
DWIDTH 24 0
BBX 15 11 5 0
BITMAP
FFFE
0002
0002
0002
0002
0002
0002
0002
0002
0002
0002
ENDCHAR
STARTCHAR 21D2
ENCODING 8737
SWIDTH 2400 0
DWIDTH 24 0
BBX 22 12 1 1
BITMAP
000180
0000C0
000060
FFFFF0
000018
00000C
000008
000010
FFFFE0
000040
000080
000100
ENDCHAR
STARTCHAR 21D4
ENCODING 8738
SWIDTH 2400 0
DWIDTH 24 0
BBX 20 12 2 1
BITMAP
060600
0C0300
180180
3FFFC0
600020
C00010
400030
200060
1FFF80
080100
040200
020400
ENDCHAR
STARTCHAR 2200
ENCODING 8739
SWIDTH 2400 0
DWIDTH 24 0
BBX 16 17 4 0
BITMAP
8001
C001
4002
6002
2004
3FFC
1008
1008
0818
0810
0C10
0420
0620
0240
0240
0180
0180
ENDCHAR
STARTCHAR 2203
ENCODING 8740
SWIDTH 2400 0
DWIDTH 24 0
BBX 12 16 6 0
BITMAP
FFF0
0010
0010
0010
0010
0010
0010
7FF0
0010
0010
0010
0010
0010
0010
0010
FFF0
ENDCHAR
STARTCHAR 00B4
ENCODING 8741
SWIDTH 2400 0
DWIDTH 24 0
BBX 5 3 9 16
BITMAP
38
60
C0
ENDCHAR
STARTCHAR FF5E
ENCODING 8742
SWIDTH 2400 0
DWIDTH 24 0
BBX 10 4 7 15
BITMAP
7000
FE00
1FC0
0380
ENDCHAR
STARTCHAR 02C7
ENCODING 8743
SWIDTH 2400 0
DWIDTH 24 0
BBX 8 4 8 15
BITMAP
81
66
3C
18
ENDCHAR
STARTCHAR 02D8
ENCODING 8744
SWIDTH 2400 0
DWIDTH 24 0
BBX 8 4 8 15
BITMAP
01
81
FF
7C
ENDCHAR
STARTCHAR 02DD
ENCODING 8745
SWIDTH 2400 0
DWIDTH 24 0
BBX 7 3 8 16
BITMAP
76
4C
80
ENDCHAR
STARTCHAR 02DA
ENCODING 8746
SWIDTH 2400 0
DWIDTH 24 0
BBX 4 4 10 15
BITMAP
60
90
90
F0
ENDCHAR
STARTCHAR 02D9
ENCODING 8747
SWIDTH 2400 0
DWIDTH 24 0
BBX 3 3 11 6
BITMAP
40
E0
E0
ENDCHAR
STARTCHAR 00B8
ENCODING 8748
SWIDTH 2400 0
DWIDTH 24 0
BBX 5 4 9 -3
BITMAP
30
38
18
F0
ENDCHAR
STARTCHAR 02DB
ENCODING 8749
SWIDTH 2400 0
DWIDTH 24 0
BBX 4 4 10 -3
BITMAP
40
80
90
60
ENDCHAR
STARTCHAR 00A1
ENCODING 8750
SWIDTH 2400 0
DWIDTH 24 0
BBX 3 17 10 0
BITMAP
20
20
20
00
00
40
40
40
40
40
40
40
40
E0
E0
E0
E0
ENDCHAR
STARTCHAR 00BF
ENCODING 8751
SWIDTH 2400 0
DWIDTH 24 0
BBX 7 17 9 0
BITMAP
10
10
10
00
00
08
08
08
18
78
C0
80
80
80
80
4E
3C
ENDCHAR
STARTCHAR 02D0
ENCODING 8752
SWIDTH 2400 0
DWIDTH 24 0
BBX 4 11 10 2
BITMAP
F0
F0
60
00
00
00
00
00
60
60
F0
ENDCHAR
STARTCHAR 222E
ENCODING 8753
SWIDTH 2400 0
DWIDTH 24 0
BBX 8 19 8 -2
BITMAP
03
05
08
08
08
08
08
3C
5A
5A
5A
3C
18
10
10
10
10
E0
C0
ENDCHAR
STARTCHAR 2211
ENCODING 8754
SWIDTH 2400 0
DWIDTH 24 0
BBX 19 19 2 -2
BITMAP
FFFFE0
F00020
780020
3C0020
0F0020
078020
03C020
01E020
00F000
003000
006000
01C000
038000
060020
0C0020
180020
300020
7FFFE0
FFFFE0
ENDCHAR
STARTCHAR 220F
ENCODING 8755
SWIDTH 2400 0
DWIDTH 24 0
BBX 16 19 4 -2
BITMAP
FFFF
1008
1008
1008
1008
1008
1008
1008
1008
1008
1008
1008
1008
1008
1008
1008
1008
1008
7C3E
ENDCHAR
STARTCHAR 00A4
ENCODING 8756
SWIDTH 2400 0
DWIDTH 24 0
BBX 17 17 4 -1
BITMAP
800000
400080
47E300
2C3600
300C00
200400
600600
400200
400200
400200
400200
600400
200400
100C00
3C3600
67E300
C00180
ENDCHAR
STARTCHAR 2109
ENCODING 8757
SWIDTH 2400 0
DWIDTH 24 0
BBX 20 17 2 -1
BITMAP
01FFC0
7060E0
904060
904030
904000
704100
004100
004300
007F00
004300
004100
004100
004000
004000
004000
006000
01F800
ENDCHAR
STARTCHAR 2030
ENCODING 8758
SWIDTH 2400 0
DWIDTH 24 0
BBX 21 21 1 -3
BITMAP
1C0000
220100
610200
410600
410400
410800
411000
412000
412000
224000
1CB070
014850
038488
028488
048488
088488
108488
108488
208488
404850
803070
ENDCHAR
STARTCHAR 25C1
ENCODING 8759
SWIDTH 2400 0
DWIDTH 24 0
BBX 15 19 4 -2
BITMAP
0002
0006
001A
0062
00C2
0302
0402
1802
2002
C002
2002
1002
0C02
0302
0082
0062
001A
0006
0002
ENDCHAR
STARTCHAR 25C0
ENCODING 8760
SWIDTH 2400 0
DWIDTH 24 0
BBX 15 19 4 -2
BITMAP
0002
000E
001E
007E
01FE
03FE
0FFE
1FFE
7FFE
FFFE
7FFE
1FFE
0FFE
03FE
01FE
007E
001E
000E
0002
ENDCHAR
STARTCHAR 25B7
ENCODING 8761
SWIDTH 2400 0
DWIDTH 24 0
BBX 15 19 5 -2
BITMAP
8000
C000
B000
8C00
8600
8180
80C0
8030
8008
8006
800C
8010
8060
8180
8200
8C00
9000
E000
8000
ENDCHAR
STARTCHAR 25B6
ENCODING 8762
SWIDTH 2400 0
DWIDTH 24 0
BBX 15 19 5 -2
BITMAP
8000
E000
F000
FC00
FF00
FF80
FFE0
FFF0
FFFC
FFFE
FFFC
FFF0
FFE0
FF80
FF00
FC00
F000
E000
8000
ENDCHAR
STARTCHAR 2664
ENCODING 8763
SWIDTH 2400 0
DWIDTH 24 0
BBX 17 21 4 -3
BITMAP
008000
014000
024000
042000
041000
080800
100400
200200
200200
400100
800100
800080
800080
800080
800080
462100
3E3E00
022000
042000
041000
07F000
ENDCHAR
STARTCHAR 2660
ENCODING 8764
SWIDTH 2400 0
DWIDTH 24 0
BBX 18 20 3 -3
BITMAP
00C000
01E000
03F000
07F800
07F800
0FFC00
1FFE00
3FFF00
3FFF00
7FFF80
7FFF80
7FFF80
FFFFC0
FFFFC0
7EDF80
3EDF00
09C000
01E000
03E000
03F000
ENDCHAR
STARTCHAR 2661
ENCODING 8765
SWIDTH 2400 0
DWIDTH 24 0
BBX 18 19 3 -2
BITMAP
1E1E00
212100
40C080
40C080
800040
800040
800040
800080
400080
400080
200100
200100
100200
100400
080800
040800
021000
012000
00C000
ENDCHAR
STARTCHAR 2665
ENCODING 8766
SWIDTH 2400 0
DWIDTH 24 0
BBX 20 20 2 -3
BITMAP
1F0F80
3F9FC0
7FFFE0
7FFFE0
FFFFF0
FFFFF0
7FFFE0
7FFFE0
7FFFE0
3FFFC0
3FFFC0
1FFF80
0FFF00
0FFF00
07FE00
03FC00
01F800
00F800
00F000
006000
ENDCHAR
STARTCHAR 2667
ENCODING 8767
SWIDTH 2400 0
DWIDTH 24 0
BBX 20 21 2 -3
BITMAP
00F000
030800
020400
040400
040200
040200
040400
020400
1D0B80
630C60
400020
800010
800010
800010
800010
419820
629460
1C9380
011000
010800
01F800
ENDCHAR
STARTCHAR 2663
ENCODING 8768
SWIDTH 2400 0
DWIDTH 24 0
BBX 20 21 2 -3
BITMAP
00F000
03F800
03FC00
07FE00
07FE00
07FE00
03FC00
03FC00
3CF380
7FFFE0
FFFFF0
FFFFF0
FFFFF0
FFFFF0
FF7FF0
7F6FE0
3E67C0
00F000
00F000
00F000
01F800
ENDCHAR
STARTCHAR 2299
ENCODING 8769
SWIDTH 2400 0
DWIDTH 24 0
BBX 20 19 2 -2
BITMAP
03FC00
0E0700
180180
20F040
63FC60
47FE20
8FFF30
8FFF10
8FFF10
8FFF10
8FFF10
8FFF10
8FFF10
47FE20
63FC60
20F040
180180
0E0700
03FC00
ENDCHAR
STARTCHAR 25C8
ENCODING 8770
SWIDTH 2400 0
DWIDTH 24 0
BBX 22 21 1 -3
BITMAP
003000
005800
008C00
010200
023100
047880
08FC40
13FE20
27FF90
4FFFC8
9FFFC4
47FF88
23FF10
11FE20
08FCC0
067980
033300
018600
00CC00
007800
002000
ENDCHAR
STARTCHAR 25A3
ENCODING 8771
SWIDTH 2400 0
DWIDTH 24 0
BBX 19 19 2 -2
BITMAP
FFFFE0
800020
800020
800020
800020
87FE20
87FE20
87FE20
87FE20
87FE20
87FE20
87FE20
87FE20
87FE20
87FE20
800020
800020
800020
FFFFE0
ENDCHAR
STARTCHAR 25D0
ENCODING 8772
SWIDTH 2400 0
DWIDTH 24 0
BBX 20 19 2 -2
BITMAP
01FC00
07C700
1FC180
3FC0C0
3FC060
7FC020
7FC030
FFC010
FFC010
FFC010
FFC010
FFC010
7FC030
7FC020
3FC060
3FC0C0
1FC180
0FC700
01F800
ENDCHAR
STARTCHAR 25D1
ENCODING 8773
SWIDTH 2400 0
DWIDTH 24 0
BBX 20 19 2 -2
BITMAP
01F800
0E3E00
183F80
303FC0
203FC0
403FE0
403FE0
803FF0
803FF0
803FF0
803FF0
803FF0
C03FE0
403FE0
603FC0
303FC0
183F80
0E3E00
01F800
ENDCHAR
STARTCHAR 2592
ENCODING 8774
SWIDTH 2400 0
DWIDTH 24 0
BBX 19 19 2 -2
BITMAP
FFFFE0
800020
912260
A44920
800020
912260
800020
A44920
912260
800020
A44920
800020
912260
A44920
800020
912260
800020
A44920
FFFFE0
ENDCHAR
STARTCHAR 25A4
ENCODING 8775
SWIDTH 2400 0
DWIDTH 24 0
BBX 19 19 2 -2
BITMAP
FFFFE0
800020
800020
800020
800020
FFFFE0
800020
800020
800020
FFFFE0
800020
800020
800020
FFFFE0
800020
800020
800020
800020
FFFFE0
ENDCHAR
STARTCHAR 25A5
ENCODING 8776
SWIDTH 2400 0
DWIDTH 24 0
BBX 20 19 2 -2
BITMAP
FFFFF0
842210
842210
842210
842210
842210
842210
842210
842210
842210
842210
842210
842210
842210
842210
842210
842210
842210
FFFFF0
ENDCHAR
STARTCHAR 25A8
ENCODING 8777
SWIDTH 2400 0
DWIDTH 24 0
BBX 19 19 3 -2
BITMAP
FFFFE0
808060
8100A0
820120
840220
880420
900820
A01020
C02020
804020
808060
8100A0
820120
8C0620
980820
B01020
E02020
C04020
FFFFE0
ENDCHAR
STARTCHAR 25A7
ENCODING 8778
SWIDTH 2400 0
DWIDTH 24 0
BBX 19 19 2 -2
BITMAP
FFFFE0
C06020
A03020
901820
880C20
840620
820120
8180A0
80C060
C06020
A03020
901820
880C20
840620
820320
8101A0
8080E0
804060
FFFFE0
ENDCHAR
STARTCHAR 25A6
ENCODING 8779
SWIDTH 2400 0
DWIDTH 24 0
BBX 18 19 3 -2
BITMAP
FFFFC0
884440
884440
884440
884440
FFFFC0
884440
884440
884440
FFFFC0
884440
884440
884440
FFFFC0
884440
884440
884440
884440
FFFFC0
ENDCHAR
STARTCHAR 25A9
ENCODING 8780
SWIDTH 2400 0
DWIDTH 24 0
BBX 19 19 3 -2
BITMAP
FFFFE0
C0E060
A130A0
921920
8C0E20
8C0A20
921120
A120A0
C0C060
80C060
C120E0
A211A0
940A20
880420
9C0A20
B21120
E120A0
C0C060
FFFFE0
ENDCHAR
STARTCHAR 2668
ENCODING 8781
SWIDTH 2400 0
DWIDTH 24 0
BBX 19 20 2 -3
BITMAP
002000
002400
026400
026C00
06CC00
06CC00
06EC00
066C00
036600
037600
033600
133700
6364C0
826C60
824860
8048E0
E007C0
7FFF80
3FFE00
07F800
ENDCHAR
STARTCHAR 260F
ENCODING 8782
SWIDTH 2400 0
DWIDTH 24 0
BBX 20 15 1 0
BITMAP
01FE00
0E01C0
33FE60
458510
45FD10
C57B10
7B86F0
030300
0E0100
120180
120140
230340
218640
407820
3FFFC0
ENDCHAR
STARTCHAR 260E
ENCODING 8783
SWIDTH 2400 0
DWIDTH 24 0
BBX 21 15 1 0
BITMAP
07FF00
3FFFE0
7FFFF0
FB86F8
FBFEF8
FBFEF8
E38718
070300
0E0180
1E01C0
1E01E0
3F03E0
3F87E0
7FFFF0
3FFFE0
ENDCHAR
STARTCHAR 261C
ENCODING 8784
SWIDTH 2400 0
DWIDTH 24 0
BBX 22 10 1 2
BITMAP
07FF00
F830CC
FFC03C
05BC0C
05DA0C
03E90C
01340C
00C83C
007BC0
000400
ENDCHAR
STARTCHAR 261E
ENCODING 8785
SWIDTH 2400 0
DWIDTH 24 0
BBX 22 9 1 3
BITMAP
03FFC0
EC103C
B00FFC
A0FA80
A16680
A25F80
A0B100
FC4E00
03FC00
ENDCHAR
STARTCHAR 00B6
ENCODING 8786
SWIDTH 2400 0
DWIDTH 24 0
BBX 13 20 4 -3
BITMAP
1F88
6088
4088
8088
8088
8088
4088
6088
1F88
0088
0088
0088
0088
0088
0088
0088
0088
0088
0088
0088
ENDCHAR
STARTCHAR 2020
ENCODING 8787
SWIDTH 2400 0
DWIDTH 24 0
BBX 13 21 6 -3
BITMAP
0200
0200
0200
0200
0200
0200
FFF8
0200
0200
0200
0200
0200
0200
0200
0200
0200
0200
0200
0200
0200
0200
ENDCHAR
STARTCHAR 2021
ENCODING 8788
SWIDTH 2400 0
DWIDTH 24 0
BBX 11 21 6 -3
BITMAP
0400
0400
0400
0400
FFE0
0400
0400
FFE0
0400
0400
0400
0400
0400
0400
0400
0400
0400
0400
0400
0400
0400
ENDCHAR
STARTCHAR 2195
ENCODING 8789
SWIDTH 2400 0
DWIDTH 24 0
BBX 6 17 9 -1
BITMAP
30
78
A4
20
20
20
20
20
20
20
20
20
20
20
A4
78
30
ENDCHAR
STARTCHAR 2197
ENCODING 8790
SWIDTH 2400 0
DWIDTH 24 0
BBX 15 14 4 0
BITMAP
00FE
001E
001E
0034
0064
00C0
0180
0200
0400
0800
1000
2000
4000
8000
ENDCHAR
STARTCHAR 2199
ENCODING 8791
SWIDTH 2400 0
DWIDTH 24 0
BBX 14 14 5 1
BITMAP
0004
000C
0010
0020
0040
0080
0100
0200
8400
8800
9000
E000
E000
FC00
ENDCHAR
STARTCHAR 2196
ENCODING 8792
SWIDTH 2400 0
DWIDTH 24 0
BBX 14 14 6 0
BITMAP
FC00
C000
E000
9000
8800
0400
0200
0100
0080
0040
0020
0010
0008
0004
ENDCHAR
STARTCHAR 2198
ENCODING 8793
SWIDTH 2400 0
DWIDTH 24 0
BBX 14 14 5 1
BITMAP
8000
C000
6000
3000
1800
0C00
0200
0100
0084
0044
0024
001C
001C
00FC
ENDCHAR
STARTCHAR 266D
ENCODING 8794
SWIDTH 2400 0
DWIDTH 24 0
BBX 7 16 8 -1
BITMAP
80
80
80
80
80
BC
C6
82
82
82
86
84
8C
98
F0
C0
ENDCHAR
STARTCHAR 2669
ENCODING 8795
SWIDTH 2400 0
DWIDTH 24 0
BBX 5 19 9 -2
BITMAP
08
08
08
08
08
08
08
08
08
08
08
08
08
08
08
08
78
F0
F0
ENDCHAR
STARTCHAR 266A
ENCODING 8796
SWIDTH 2400 0
DWIDTH 24 0
BBX 12 19 5 -2
BITMAP
0800
0C00
0E00
0F00
0B80
09C0
08E0
0860
0830
0820
0820
0860
0840
0880
0800
3800
F800
F000
E000
ENDCHAR
STARTCHAR 266C
ENCODING 8797
SWIDTH 2400 0
DWIDTH 24 0
BBX 17 17 3 -1
BITMAP
07FF80
07FF80
040080
040080
07FF80
07FF80
040080
040080
040080
040080
040080
040080
040080
1C0780
7C0F80
780F00
F00E00
ENDCHAR
STARTCHAR 327F
ENCODING 8798
SWIDTH 2400 0
DWIDTH 24 0
BBX 20 19 2 -2
BITMAP
01F800
07FE00
1E0700
3801C0
321CC0
623860
627030
C2E000
C3C000
FBE3F0
FB63F0
023030
621830
621860
320C60
1801C0
0E0780
07FF00
01F800
ENDCHAR
STARTCHAR 321C
ENCODING 8799
SWIDTH 2400 0
DWIDTH 24 0
BBX 22 19 1 -2
BITMAP
100000
2FFF10
220610
400808
403008
405804
4187C4
860004
880004
8007E4
9FF804
802004
402004
402004
402008
402008
202008
202010
100000
ENDCHAR
STARTCHAR 2116
ENCODING 8800
SWIDTH 2400 0
DWIDTH 24 0
BBX 20 17 2 -1
BITMAP
E18000
608000
608000
508000
508000
488780
488840
4C8840
449020
449020
429020
429020
419020
419020
408850
E08490
000300
ENDCHAR
STARTCHAR 33C7
ENCODING 8801
SWIDTH 2400 0
DWIDTH 24 0
BBX 21 18 2 -1
BITMAP
0C8000
138000
208000
404000
404000
400000
C00700
C00880
C01840
C01040
C01040
C01040
C01040
405040
609040
308888
1F0D88
000200
ENDCHAR
STARTCHAR 2122
ENCODING 8802
SWIDTH 2400 0
DWIDTH 24 0
BBX 20 16 2 0
BITMAP
7F7870
C99860
889860
889860
0818A0
0814A0
0814A0
0814A0
0814A0
081520
081320
081320
081320
081320
081220
1C7C70
ENDCHAR
STARTCHAR 33C2
ENCODING 8803
SWIDTH 2400 0
DWIDTH 24 0
BBX 22 11 1 0
BITMAP
380740
4439A0
C40920
440920
040920
1C0920
640920
C40920
840920
850920
FEDFFC
ENDCHAR
STARTCHAR 33D8
ENCODING 8804
SWIDTH 2400 0
DWIDTH 24 0
BBX 22 15 1 -4
BITMAP
5C0640
6239A0
420920
410920
410920
410920
410920
410920
410920
420920
669FF4
580000
400000
400000
E00000
ENDCHAR
STARTCHAR 2121
ENCODING 8805
SWIDTH 2400 0
DWIDTH 24 0
BBX 22 16 1 0
BITMAP
7FE018
C43018
841008
040008
040208
040D08
041088
041088
041088
041FC8
041008
041008
041008
041008
040808
1F0F9C
ENDCHAR
STARTCHAR FF01
ENCODING 8993
SWIDTH 2400 0
DWIDTH 24 0
BBX 2 17 11 0
BITMAP
40
C0
C0
C0
40
40
40
40
40
40
40
40
00
00
00
40
40
ENDCHAR
STARTCHAR FF02
ENCODING 8994
SWIDTH 2400 0
DWIDTH 24 0
BBX 8 6 8 13
BITMAP
33
26
64
48
88
10
ENDCHAR
STARTCHAR FF03
ENCODING 8995
SWIDTH 2400 0
DWIDTH 24 0
BBX 10 20 7 -3
BITMAP
0880
0880
0880
1080
1080
1100
FFC0
1100
1100
2100
2100
2200
2200
FFC0
2200
2200
4200
4400
4400
4400
ENDCHAR
STARTCHAR FF04
ENCODING 8996
SWIDTH 2400 0
DWIDTH 24 0
BBX 12 22 6 -4
BITMAP
0900
0900
3FC0
6960
C920
8920
8900
C900
E900
7F00
1FC0
09E0
0970
0930
0910
8910
C930
E920
7DC0
0B00
0900
0900
ENDCHAR
STARTCHAR FF05
ENCODING 8997
SWIDTH 2400 0
DWIDTH 24 0
BBX 18 21 3 -4
BITMAP
1C0000
620040
610080
410100
410200
410400
410800
611000
622000
3C4000
008000
011E00
033100
062080
0C2080
182080
306080
602080
C03080
803100
001E00
ENDCHAR
STARTCHAR FF06
ENCODING 8998
SWIDTH 2400 0
DWIDTH 24 0
BBX 18 17 3 -1
BITMAP
07C000
086000
083000
087000
086000
0DC000
078000
0E1FC0
130600
230200
618200
C0C400
E0C400
E06800
703000
387880
1F8F00
ENDCHAR
STARTCHAR FF07
ENCODING 8999
SWIDTH 2400 0
DWIDTH 24 0
BBX 2 6 11 13
BITMAP
C0
C0
C0
C0
80
80
ENDCHAR
STARTCHAR FF08
ENCODING 9000
SWIDTH 2400 0
DWIDTH 24 0
BBX 4 21 18 -3
BITMAP
10
20
20
40
40
80
80
80
80
80
80
80
80
80
80
80
40
40
40
20
10
ENDCHAR
STARTCHAR FF09
ENCODING 9001
SWIDTH 2400 0
DWIDTH 24 0
BBX 4 21 2 -3
BITMAP
80
40
40
20
20
10
10
10
10
10
10
10
10
10
10
10
20
20
20
40
80
ENDCHAR
STARTCHAR FF0A
ENCODING 9002
SWIDTH 2400 0
DWIDTH 24 0
BBX 8 8 8 3
BITMAP
18
89
EB
1C
3C
CB
08
18
ENDCHAR
STARTCHAR FF0B
ENCODING 9003
SWIDTH 2400 0
DWIDTH 24 0
BBX 16 15 3 0
BITMAP
0080
0080
0080
0080
0080
0080
0080
FFFF
0080
0080
0080
0080
0080
0080
0080
ENDCHAR
STARTCHAR FF0C
ENCODING 9004
SWIDTH 2400 0
DWIDTH 24 0
BBX 2 5 2 -3
BITMAP
C0
C0
40
40
80
ENDCHAR
STARTCHAR FF0D
ENCODING 9005
SWIDTH 2400 0
DWIDTH 24 0
BBX 16 1 4 7
BITMAP
FFFF
ENDCHAR
STARTCHAR FF0E
ENCODING 9006
SWIDTH 2400 0
DWIDTH 24 0
BBX 1 2 3 0
BITMAP
80
80
ENDCHAR
STARTCHAR FF0F
ENCODING 9007
SWIDTH 2400 0
DWIDTH 24 0
BBX 22 22 1 -4
BITMAP
000004
000008
000010
000020
000040
000080
000100
000200
000400
000800
001000
002000
004000
008000
010000
020000
040000
080000
100000
200000
400000
800000
ENDCHAR
STARTCHAR FF10
ENCODING 9008
SWIDTH 2400 0
DWIDTH 24 0
BBX 8 17 8 0
BITMAP
3C
66
42
42
81
81
81
81
81
81
81
81
81
82
42
42
24
ENDCHAR
STARTCHAR FF11
ENCODING 9009
SWIDTH 2400 0
DWIDTH 24 0
BBX 7 17 9 0
BITMAP
10
F0
10
10
10
10
10
10
10
10
10
10
10
10
10
38
FE
ENDCHAR
STARTCHAR FF12
ENCODING 9010
SWIDTH 2400 0
DWIDTH 24 0
BBX 8 17 8 0
BITMAP
18
66
81
C1
C1
C1
01
03
06
04
08
10
20
40
41
83
FF
ENDCHAR
STARTCHAR FF13
ENCODING 9011
SWIDTH 2400 0
DWIDTH 24 0
BBX 9 17 7 -1
BITMAP
1F00
2180
6080
2080
0080
0080
0100
0E00
0200
0100
0080
0080
4080
C080
C180
6300
1E00
ENDCHAR
STARTCHAR FF14
ENCODING 9012
SWIDTH 2400 0
DWIDTH 24 0
BBX 9 17 7 0
BITMAP
0200
0200
0600
0600
0A00
0A00
1200
1200
2200
2200
4200
8200
FF80
0200
0200
0200
0F80
ENDCHAR
STARTCHAR FF15
ENCODING 9013
SWIDTH 2400 0
DWIDTH 24 0
BBX 9 16 7 0
BITMAP
7F00
4000
4000
4000
4000
4800
7600
4100
0080
0080
0080
0080
E080
E180
6100
3E00
ENDCHAR
STARTCHAR FF16
ENCODING 9014
SWIDTH 2400 0
DWIDTH 24 0
BBX 9 17 8 0
BITMAP
0E00
3300
2300
4000
4000
8000
8000
BF00
C100
8080
8080
8080
8080
8080
4100
2300
1C00
ENDCHAR
STARTCHAR FF17
ENCODING 9015
SWIDTH 2400 0
DWIDTH 24 0
BBX 9 16 7 0
BITMAP
7F80
4080
4100
8100
0200
0200
0400
0400
0400
0800
0800
1800
1800
1800
1800
1800
ENDCHAR
STARTCHAR FF18
ENCODING 9016
SWIDTH 2400 0
DWIDTH 24 0
BBX 10 17 7 0
BITMAP
1E00
2100
6180
4080
4080
6180
7100
3E00
1F00
2380
41C0
C0C0
C040
C040
40C0
6180
1E00
ENDCHAR
STARTCHAR FF19
ENCODING 9017
SWIDTH 2400 0
DWIDTH 24 0
BBX 8 17 8 0
BITMAP
3C
66
42
82
81
81
81
81
83
65
19
01
02
02
C2
C4
78
ENDCHAR
STARTCHAR FF1A
ENCODING 9018
SWIDTH 2400 0
DWIDTH 24 0
BBX 1 11 11 0
BITMAP
80
80
00
00
00
00
00
00
00
80
80
ENDCHAR
STARTCHAR FF1B
ENCODING 9019
SWIDTH 2400 0
DWIDTH 24 0
BBX 2 14 11 -3
BITMAP
40
40
00
00
00
00
00
00
00
C0
C0
40
40
80
ENDCHAR
STARTCHAR FF1C
ENCODING 9020
SWIDTH 2400 0
DWIDTH 24 0
BBX 15 15 4 -1
BITMAP
0002
000C
0030
00C0
0300
0C00
3000
C000
3000
0C00
0300
00C0
0030
000C
0002
ENDCHAR
STARTCHAR FF1D
ENCODING 9021
SWIDTH 2400 0
DWIDTH 24 0
BBX 16 6 4 4
BITMAP
FFFF
0000
0000
0000
0000
FFFF
ENDCHAR
STARTCHAR FF1E
ENCODING 9022
SWIDTH 2400 0
DWIDTH 24 0
BBX 14 14 5 0
BITMAP
8000
6000
1800
0700
01C0
0070
000C
000C
0030
01C0
0700
1800
6000
8000
ENDCHAR
STARTCHAR FF1F
ENCODING 9023
SWIDTH 2400 0
DWIDTH 24 0
BBX 9 17 7 -2
BITMAP
3F00
6180
E180
E180
4180
0180
0300
0600
0400
0800
0800
0800
0000
0000
0400
0400
0400
ENDCHAR
STARTCHAR FF20
ENCODING 9024
SWIDTH 2400 0
DWIDTH 24 0
BBX 15 16 5 -1
BITMAP
07E0
0810
3008
4004
43D4
8652
8C22
8822
8824
8844
89C8
4630
2004
1008
0E30
01C0
ENDCHAR
STARTCHAR FF21
ENCODING 9025
SWIDTH 2400 0
DWIDTH 24 0
BBX 17 16 3 0
BITMAP
00C000
014000
016000
016000
022000
023000
021000
041800
041800
07F800
080C00
080C00
100400
100600
300600
FC1F80
ENDCHAR
STARTCHAR FF22
ENCODING 9026
SWIDTH 2400 0
DWIDTH 24 0
BBX 14 16 5 0
BITMAP
FFE0
2010
2008
2008
2008
2010
2020
3FC0
2070
2008
200C
200C
200C
2008
2018
FFE0
ENDCHAR
STARTCHAR FF23
ENCODING 9027
SWIDTH 2400 0
DWIDTH 24 0
BBX 14 17 5 0
BITMAP
0390
1C70
2018
4008
4000
8000
8000
8000
8000
8000
8000
8000
C004
4008
6008
3830
1FE0
ENDCHAR
STARTCHAR FF24
ENCODING 9028
SWIDTH 2400 0
DWIDTH 24 0
BBX 15 16 5 0
BITMAP
FFC0
3030
2008
2004
2004
2002
2002
2002
2002
2002
2002
2004
2004
2008
2030
FFC0
ENDCHAR
STARTCHAR FF25
ENCODING 9029
SWIDTH 2400 0
DWIDTH 24 0
BBX 14 16 5 0
BITMAP
FFF8
1038
1008
1004
1000
1040
10C0
1FC0
10C0
1040
1040
1000
1004
100C
1038
FFF8
ENDCHAR
STARTCHAR FF26
ENCODING 9030
SWIDTH 2400 0
DWIDTH 24 0
BBX 14 16 5 0
BITMAP
7FF8
1018
100C
1004
1000
1040
1040
1FC0
10C0
1040
1040
1000
1000
1000
1000
FE00
ENDCHAR
STARTCHAR FF27
ENCODING 9031
SWIDTH 2400 0
DWIDTH 24 0
BBX 15 17 5 -1
BITMAP
0FF0
1018
2008
4000
4000
8000
8000
8000
8000
807E
8008
8008
4008
4008
2008
1838
07C0
ENDCHAR
STARTCHAR FF28
ENCODING 9032
SWIDTH 2400 0
DWIDTH 24 0
BBX 17 16 4 0
BITMAP
FE3F80
100400
100400
100400
100400
100400
100400
1FFC00
100400
100400
100400
100400
100400
100400
100400
FE3F80
ENDCHAR
STARTCHAR FF29
ENCODING 9033
SWIDTH 2400 0
DWIDTH 24 0
BBX 6 16 10 0
BITMAP
F8
20
20
20
20
20
20
20
20
20
20
20
20
20
20
FC
ENDCHAR
STARTCHAR FF2A
ENCODING 9034
SWIDTH 2400 0
DWIDTH 24 0
BBX 9 19 8 -3
BITMAP
3F80
0600
0400
0400
0400
0400
0400
0400
0400
0400
0400
0400
0400
0400
0400
0400
0400
C800
F000
ENDCHAR
STARTCHAR FF2B
ENCODING 9035
SWIDTH 2400 0
DWIDTH 24 0
BBX 17 16 3 0
BITMAP
7C3F00
100800
101000
102000
104000
108000
130000
158000
18C000
104000
102000
103000
101000
100800
100C00
FE3F80
ENDCHAR
STARTCHAR FF2C
ENCODING 9036
SWIDTH 2400 0
DWIDTH 24 0
BBX 14 16 5 0
BITMAP
FE00
1000
1000
1000
1000
1000
1000
1000
1000
1000
1000
1000
1004
1018
1038
FFF0
ENDCHAR
STARTCHAR FF2D
ENCODING 9037
SWIDTH 2400 0
DWIDTH 24 0
BBX 20 16 2 0
BITMAP
F001F0
300280
280280
280280
240480
240480
240880
220880
220880
211080
211080
212080
20A080
20A080
30C080
F847E0
ENDCHAR
STARTCHAR FF2E
ENCODING 9038
SWIDTH 2400 0
DWIDTH 24 0
BBX 17 16 3 0
BITMAP
F00F80
180600
180200
140200
120200
110200
110200
108200
104200
102200
102200
101200
100A00
100600
380600
FE0200
ENDCHAR
STARTCHAR FF2F
ENCODING 9039
SWIDTH 2400 0
DWIDTH 24 0
BBX 15 17 4 0
BITMAP
0FE0
1830
2008
4004
4004
8002
8002
8002
8002
8002
8002
8002
4004
4004
2008
3830
0FE0
ENDCHAR
STARTCHAR FF30
ENCODING 9040
SWIDTH 2400 0
DWIDTH 24 0
BBX 14 16 5 0
BITMAP
FFE0
1018
100C
1004
1004
1004
100C
1018
1FE0
1000
1000
1000
1000
1000
1000
FE00
ENDCHAR
STARTCHAR FF31
ENCODING 9041
SWIDTH 2400 0
DWIDTH 24 0
BBX 15 20 5 -3
BITMAP
0FC0
3870
6018
4008
C00C
C004
8006
8006
8006
8006
8006
8004
8004
DF08
6088
2050
1860
07F0
003E
0018
ENDCHAR
STARTCHAR FF32
ENCODING 9042
SWIDTH 2400 0
DWIDTH 24 0
BBX 15 16 5 0
BITMAP
FFE0
1030
1008
1008
1008
1018
1030
1FE0
1180
1080
1040
1040
1020
1030
1010
FE1E
ENDCHAR
STARTCHAR FF33
ENCODING 9043
SWIDTH 2400 0
DWIDTH 24 0
BBX 12 18 6 -1
BITMAP
0C40
33C0
4040
C020
C000
C000
4000
7800
0F00
01C0
0060
0030
0030
8030
C020
6020
7DC0
0200
ENDCHAR
STARTCHAR FF34
ENCODING 9044
SWIDTH 2400 0
DWIDTH 24 0
BBX 17 16 4 0
BITMAP
3FFE00
608300
408100
808080
008000
008000
008000
008000
008000
008000
008000
008000
008000
008000
008000
07F000
ENDCHAR
STARTCHAR FF35
ENCODING 9045
SWIDTH 2400 0
DWIDTH 24 0
BBX 16 17 4 0
BITMAP
003F
F804
2004
2004
2004
2004
2004
2004
2004
2004
2004
2004
2004
2004
3008
1818
07E0
ENDCHAR
STARTCHAR FF36
ENCODING 9046
SWIDTH 2400 0
DWIDTH 24 0
BBX 16 16 4 0
BITMAP
FC1F
3004
3004
1008
1808
0810
0C10
0C10
0420
0620
0240
0240
0340
0180
0180
0080
ENDCHAR
STARTCHAR FF37
ENCODING 9047
SWIDTH 2400 0
DWIDTH 24 0
BBX 24 16 0 0
BITMAP
FC7E3F
30180C
101808
180808
181810
081C10
0C2410
0C2420
042620
064620
064240
024340
028340
038180
018180
010180
ENDCHAR
STARTCHAR FF38
ENCODING 9048
SWIDTH 2400 0
DWIDTH 24 0
BBX 16 16 4 0
BITMAP
7C3E
1818
0810
0C20
0420
0240
0380
0180
0280
0240
0440
0820
0810
1010
3018
FC3F
ENDCHAR
STARTCHAR FF39
ENCODING 9049
SWIDTH 2400 0
DWIDTH 24 0
BBX 16 16 4 0
BITMAP
FC1F
3004
1808
0808
0410
0420
0220
0140
0180
0080
0080
0080
0080
0080
0080
07F0
ENDCHAR
STARTCHAR FF3A
ENCODING 9050
SWIDTH 2400 0
DWIDTH 24 0
BBX 12 16 6 0
BITMAP
7FF0
6020
4060
80C0
0080
0100
0300
0200
0400
0C00
0800
1000
3000
6010
4070
FFE0
ENDCHAR
STARTCHAR FF3B
ENCODING 9051
SWIDTH 2400 0
DWIDTH 24 0
BBX 4 22 18 -4
BITMAP
F0
80
80
80
80
80
80
80
80
80
80
80
80
80
80
80
80
80
80
80
80
F0
ENDCHAR
STARTCHAR FFE6
ENCODING 9052
SWIDTH 2400 0
DWIDTH 24 0
BBX 22 16 1 -1
BITMAP
F9FC7C
602018
203010
203010
303020
FFFFFC
105820
184840
FFFFFC
088C80
0C8480
050480
050700
070700
060200
020200
ENDCHAR
STARTCHAR FF3D
ENCODING 9053
SWIDTH 2400 0
DWIDTH 24 0
BBX 4 22 2 -4
BITMAP
F0
10
10
10
10
10
10
10
10
10
10
10
10
10
10
10
10
10
10
10
10
F0
ENDCHAR
STARTCHAR FF3E
ENCODING 9054
SWIDTH 2400 0
DWIDTH 24 0
BBX 8 3 8 15
BITMAP
1C
3E
C3
ENDCHAR
STARTCHAR FF3F
ENCODING 9055
SWIDTH 2400 0
DWIDTH 24 0
BBX 22 1 1 -3
BITMAP
FFFFFC
ENDCHAR
STARTCHAR FF40
ENCODING 9056
SWIDTH 2400 0
DWIDTH 24 0
BBX 6 9 9 10
BITMAP
E0
60
60
30
10
18
08
08
04
ENDCHAR
STARTCHAR FF41
ENCODING 9057
SWIDTH 2400 0
DWIDTH 24 0
BBX 11 11 6 0
BITMAP
1E00
6100
6180
0080
0180
0E80
3080
6080
C080
C1C0
7EE0
ENDCHAR
STARTCHAR FF42
ENCODING 9058
SWIDTH 2400 0
DWIDTH 24 0
BBX 11 17 6 -1
BITMAP
E000
2000
2000
2000
2000
2700
38C0
2040
2020
2020
2020
2020
2020
2060
2040
3980
0600
ENDCHAR
STARTCHAR FF43
ENCODING 9059
SWIDTH 2400 0
DWIDTH 24 0
BBX 10 11 7 0
BITMAP
0F00
3180
6180
4000
C000
8000
8000
C000
C000
60C0
3F00
ENDCHAR
STARTCHAR FF44
ENCODING 9060
SWIDTH 2400 0
DWIDTH 24 0
BBX 11 17 7 0
BITMAP
0080
0380
0080
0080
0080
0080
1E80
2180
4080
8080
8080
8080
8080
8080
8080
4180
3EE0
ENDCHAR
STARTCHAR FF45
ENCODING 9061
SWIDTH 2400 0
DWIDTH 24 0
BBX 10 12 7 0
BITMAP
1F00
3080
6080
4040
C040
FFC0
8000
8000
8000
C000
6080
3F00
ENDCHAR
STARTCHAR FF46
ENCODING 9062
SWIDTH 2400 0
DWIDTH 24 0
BBX 8 16 8 0
BITMAP
07
0B
10
10
10
10
FE
10
10
10
10
10
10
10
10
7C
ENDCHAR
STARTCHAR FF47
ENCODING 9063
SWIDTH 2400 0
DWIDTH 24 0
BBX 12 15 6 -4
BITMAP
1F70
21B0
6080
40C0
40C0
4080
2180
1E00
6000
7C00
2380
4060
8060
C0C0
7F80
ENDCHAR
STARTCHAR FF48
ENCODING 9064
SWIDTH 2400 0
DWIDTH 24 0
BBX 11 17 6 0
BITMAP
2000
E000
2000
2000
2000
2000
2780
38C0
2040
2040
2040
2040
2040
2040
2040
2040
F9E0
ENDCHAR
STARTCHAR FF49
ENCODING 9065
SWIDTH 2400 0
DWIDTH 24 0
BBX 5 17 9 0
BITMAP
10
10
00
00
00
00
E0
60
20
20
20
20
20
20
20
20
F8
ENDCHAR
STARTCHAR FF4A
ENCODING 9066
SWIDTH 2400 0
DWIDTH 24 0
BBX 5 21 9 -4
BITMAP
08
08
00
00
00
00
08
38
08
08
08
08
08
08
08
08
08
08
48
F0
40
ENDCHAR
STARTCHAR FF4B
ENCODING 9067
SWIDTH 2400 0
DWIDTH 24 0
BBX 12 17 6 0
BITMAP
2000
E000
2000
2000
2000
2000
23E0
2080
2100
2200
2400
2E00
3200
2100
2180
20C0
F9F0
ENDCHAR
STARTCHAR FF4C
ENCODING 9068
SWIDTH 2400 0
DWIDTH 24 0
BBX 4 16 10 0
BITMAP
E0
20
20
20
20
20
20
20
20
20
20
20
20
20
20
F0
ENDCHAR
STARTCHAR FF4D
ENCODING 9069
SWIDTH 2400 0
DWIDTH 24 0
BBX 19 11 3 0
BITMAP
E79F00
786180
204080
204080
204080
204080
204080
204080
204080
204080
F9F3E0
ENDCHAR
STARTCHAR FF4E
ENCODING 9070
SWIDTH 2400 0
DWIDTH 24 0
BBX 12 11 6 0
BITMAP
E780
3840
2040
2040
2040
2040
2040
2040
2040
2040
F9F0
ENDCHAR
STARTCHAR FF4F
ENCODING 9071
SWIDTH 2400 0
DWIDTH 24 0
BBX 10 12 7 -1
BITMAP
1E00
2100
4080
80C0
8040
8040
8040
8040
8040
4080
2100
1E00
ENDCHAR
STARTCHAR FF50
ENCODING 9072
SWIDTH 2400 0
DWIDTH 24 0
BBX 11 15 6 -4
BITMAP
2700
F880
2040
2020
2020
2020
2020
2020
2040
2040
3980
2600
2000
2000
F800
ENDCHAR
STARTCHAR FF51
ENCODING 9073
SWIDTH 2400 0
DWIDTH 24 0
BBX 11 15 7 -4
BITMAP
3E80
6180
4080
8080
8080
8080
8080
8080
8080
4080
3380
0C80
0080
0080
03E0
ENDCHAR
STARTCHAR FF52
ENCODING 9074
SWIDTH 2400 0
DWIDTH 24 0
BBX 8 11 8 0
BITMAP
23
EF
30
20
20
20
20
20
20
20
F8
ENDCHAR
STARTCHAR FF53
ENCODING 9075
SWIDTH 2400 0
DWIDTH 24 0
BBX 9 11 8 0
BITMAP
7E00
C300
8100
C000
7800
3F00
0300
0180
8100
E100
5E00
ENDCHAR
STARTCHAR FF54
ENCODING 9076
SWIDTH 2400 0
DWIDTH 24 0
BBX 7 14 9 0
BITMAP
20
20
60
FE
20
20
20
20
20
20
20
20
22
1C
ENDCHAR
STARTCHAR FF55
ENCODING 9077
SWIDTH 2400 0
DWIDTH 24 0
BBX 10 11 7 0
BITMAP
4080
C380
4080
4080
4080
4080
4080
4080
4080
4180
3EC0
ENDCHAR
STARTCHAR FF56
ENCODING 9078
SWIDTH 2400 0
DWIDTH 24 0
BBX 12 10 6 0
BITMAP
F8F0
3040
1040
1880
1880
0900
0D00
0500
0600
0200
ENDCHAR
STARTCHAR FF57
ENCODING 9079
SWIDTH 2400 0
DWIDTH 24 0
BBX 18 11 3 0
BITMAP
F9F3C0
30C100
104100
106200
18A200
092200
0D3400
061400
061800
060800
000800
ENDCHAR
STARTCHAR FF58
ENCODING 9080
SWIDTH 2400 0
DWIDTH 24 0
BBX 12 11 6 0
BITMAP
F9F0
3040
1080
0900
0600
0600
0B00
1100
2080
60E0
F1F0
ENDCHAR
STARTCHAR FF59
ENCODING 9081
SWIDTH 2400 0
DWIDTH 24 0
BBX 12 15 6 -4
BITMAP
F9F0
6040
3040
3080
1880
1900
0900
0D00
0600
0600
0400
0400
0800
7800
6000
ENDCHAR
STARTCHAR FF5A
ENCODING 9082
SWIDTH 2400 0
DWIDTH 24 0
BBX 9 10 8 0
BITMAP
7F00
8200
8400
0C00
0800
1000
2000
6080
C100
FF00
ENDCHAR
STARTCHAR FF5B
ENCODING 9083
SWIDTH 2400 0
DWIDTH 24 0
BBX 5 22 17 -4
BITMAP
18
10
20
20
20
20
20
20
20
40
80
40
20
20
20
20
20
20
20
20
10
08
ENDCHAR
STARTCHAR FF5C
ENCODING 9084
SWIDTH 2400 0
DWIDTH 24 0
BBX 1 22 11 -4
BITMAP
80
80
80
80
80
80
80
80
80
80
80
80
80
80
80
80
80
80
80
80
80
80
ENDCHAR
STARTCHAR FF5D
ENCODING 9085
SWIDTH 2400 0
DWIDTH 24 0
BBX 5 22 2 -4
BITMAP
C0
40
20
20
20
20
20
20
20
10
08
10
20
20
20
20
20
20
20
20
40
80
ENDCHAR
STARTCHAR FFE3
ENCODING 9086
SWIDTH 2400 0
DWIDTH 24 0
BBX 8 1 8 16
BITMAP
FF
ENDCHAR
STARTCHAR 3131
ENCODING 9249
SWIDTH 2400 0
DWIDTH 24 0
BBX 15 12 4 1
BITMAP
FFFE
7E02
0002
0002
0002
0002
0002
0002
0002
0002
0002
0002
ENDCHAR
STARTCHAR 3132
ENCODING 9250
SWIDTH 2400 0
DWIDTH 24 0
BBX 17 13 4 1
BITMAP
020100
FE7F80
420100
020100
020100
020100
020100
020100
020100
020100
020100
020100
000100
ENDCHAR
STARTCHAR 3133
ENCODING 9251
SWIDTH 2400 0
DWIDTH 24 0
BBX 19 13 3 1
BITMAP
020000
FE0E00
220600
020400
020C00
020C00
020A00
021A00
021180
0220C0
0240C0
024060
008000
ENDCHAR
STARTCHAR 3134
ENCODING 9252
SWIDTH 2400 0
DWIDTH 24 0
BBX 17 10 4 3
BITMAP
E00000
600000
200000
200000
200000
200000
200000
200000
200700
1FFF80
ENDCHAR
STARTCHAR 3135
ENCODING 9253
SWIDTH 2400 0
DWIDTH 24 0
BBX 20 13 2 1
BITMAP
000040
E07FE0
203600
200300
200300
200200
200700
200480
208CC0
231860
3E1020
382030
004000
ENDCHAR
STARTCHAR 3136
ENCODING 9254
SWIDTH 2400 0
DWIDTH 24 0
BBX 21 13 2 0
BITMAP
C00F80
200000
200078
207FF8
202000
200200
200F80
2058C0
219040
2E1040
381040
0018C0
000F80
ENDCHAR
STARTCHAR 3137
ENCODING 9255
SWIDTH 2400 0
DWIDTH 24 0
BBX 16 10 4 3
BITMAP
001C
FFFC
4000
4000
4000
4000
4000
4000
400F
7FFF
ENDCHAR
STARTCHAR 3138
ENCODING 9256
SWIDTH 2400 0
DWIDTH 24 0
BBX 18 13 3 1
BITMAP
004180
C43F80
7E2000
402000
402000
402000
402000
402000
402000
412000
4621C0
783FC0
600000
ENDCHAR
STARTCHAR 3139
ENCODING 9257
SWIDTH 2400 0
DWIDTH 24 0
BBX 16 13 4 1
BITMAP
000C
FFFC
600C
0008
0008
0018
FFF8
4000
4000
4000
4000
400E
7FFF
ENDCHAR
STARTCHAR 313A
ENCODING 9258
SWIDTH 2400 0
DWIDTH 24 0
BBX 18 12 2 1
BITMAP
030040
7D8FC0
010040
010040
020040
FF0040
200040
200040
200040
20C040
3F0040
380000
ENDCHAR
STARTCHAR 313B
ENCODING 9259
SWIDTH 2400 0
DWIDTH 24 0
BBX 19 13 2 1
BITMAP
013000
7F9FE0
010820
010820
010820
030820
FF0820
200840
200840
200840
204FE0
2F8800
380000
ENDCHAR
STARTCHAR 313C
ENCODING 9260
SWIDTH 2400 0
DWIDTH 24 0
BBX 19 13 2 1
BITMAP
038060
3D1020
010820
010820
020820
FF0FE0
200820
200820
200820
204820
2F8820
380FE0
000820
ENDCHAR
STARTCHAR 313D
ENCODING 9261
SWIDTH 2400 0
DWIDTH 24 0
BBX 18 12 3 2
BITMAP
038C00
7D0600
010600
010600
020400
FF0C00
200C00
200A00
201100
205180
2FA0C0
384040
ENDCHAR
STARTCHAR 313E
ENCODING 9262
SWIDTH 2400 0
DWIDTH 24 0
BBX 18 13 3 1
BITMAP
00C1C0
073FC0
7A2000
022000
022000
042380
FE3F80
402000
402000
402000
40A0C0
5F3FC0
780000
ENDCHAR
STARTCHAR 313F
ENCODING 9263
SWIDTH 2400 0
DWIDTH 24 0
BBX 19 13 3 1
BITMAP
020000
FF00E0
027F00
022300
020180
024180
FE2180
403100
401100
401100
431200
5C0260
71FFE0
ENDCHAR
STARTCHAR 3140
ENCODING 9264
SWIDTH 2400 0
DWIDTH 24 0
BBX 20 13 2 0
BITMAP
7F0F80
230000
020030
02FFF0
022200
FE1F00
203880
203040
203040
203040
233880
3C1F00
300000
ENDCHAR
STARTCHAR 3141
ENCODING 9265
SWIDTH 2400 0
DWIDTH 24 0
BBX 16 12 4 2
BITMAP
0002
FFFF
6003
6002
2002
2002
2002
2002
2004
2004
3FFE
2000
ENDCHAR
STARTCHAR 3142
ENCODING 9266
SWIDTH 2400 0
DWIDTH 24 0
BBX 13 14 5 1
BITMAP
0030
0018
C008
4008
4008
4008
7FF8
4008
4008
4008
4008
4008
7FF8
4008
ENDCHAR
STARTCHAR 3143
ENCODING 9267
SWIDTH 2400 0
DWIDTH 24 0
BBX 18 14 3 0
BITMAP
0000C0
033040
C11040
411040
411040
411FC0
7F1040
411040
411040
411040
411040
411FC0
7F1040
010000
ENDCHAR
STARTCHAR 3144
ENCODING 9268
SWIDTH 2400 0
DWIDTH 24 0
BBX 18 13 3 1
BITMAP
030C00
C10600
410600
410600
410400
7F0C00
410C00
411A00
411100
413180
4120C0
7F4040
408000
ENDCHAR
STARTCHAR 3145
ENCODING 9269
SWIDTH 2400 0
DWIDTH 24 0
BBX 18 13 3 1
BITMAP
018000
00E000
006000
00C000
00C000
01A000
031000
020800
040600
080380
100180
6000C0
800000
ENDCHAR
STARTCHAR 3146
ENCODING 9270
SWIDTH 2400 0
DWIDTH 24 0
BBX 19 12 3 2
BITMAP
000800
060600
030600
060600
040C00
0E0800
191C00
11B200
20A180
4040C0
8080C0
010060
ENDCHAR
STARTCHAR 3147
ENCODING 9271
SWIDTH 2400 0
DWIDTH 24 0
BBX 12 14 6 1
BITMAP
0400
0600
1F80
6040
4020
8010
8010
8010
8010
8010
8010
4020
2040
1F80
ENDCHAR
STARTCHAR 3148
ENCODING 9272
SWIDTH 2400 0
DWIDTH 24 0
BBX 17 12 3 2
BITMAP
000700
3FFF00
184000
006000
00C000
01A000
019000
030800
060700
080380
300180
C00080
ENDCHAR
STARTCHAR 3149
ENCODING 9273
SWIDTH 2400 0
DWIDTH 24 0
BBX 20 12 2 2
BITMAP
004020
7FEFF0
360300
030300
060200
0E0600
090500
198C80
20D860
407030
806010
008000
ENDCHAR
STARTCHAR 314A
ENCODING 9274
SWIDTH 2400 0
DWIDTH 24 0
BBX 17 14 3 0
BITMAP
03F000
000000
000000
000000
7FFF80
3C4000
00E000
00C000
01A000
031800
060600
180380
300180
C00000
ENDCHAR
STARTCHAR 314B
ENCODING 9275
SWIDTH 2400 0
DWIDTH 24 0
BBX 14 13 5 1
BITMAP
0004
7FFC
3E04
0004
0004
001C
01E4
FE04
7004
0008
0008
0008
0008
ENDCHAR
STARTCHAR 314C
ENCODING 9276
SWIDTH 2400 0
DWIDTH 24 0
BBX 17 12 4 2
BITMAP
C01E00
7FFE00
200000
200000
200000
200000
3FFE00
200000
200000
200000
200780
3FFF80
ENDCHAR
STARTCHAR 314D
ENCODING 9277
SWIDTH 2400 0
DWIDTH 24 0
BBX 18 12 3 1
BITMAP
000780
7FFF80
380000
001800
080C00
0C0C00
040800
060800
061000
001180
FFFFC0
200000
ENDCHAR
STARTCHAR 314E
ENCODING 9278
SWIDTH 2400 0
DWIDTH 24 0
BBX 18 13 3 1
BITMAP
03F000
000000
000180
FFFFC0
204000
00C000
073800
080400
080400
080400
080400
040800
03F000
ENDCHAR
STARTCHAR 314F
ENCODING 9279
SWIDTH 2400 0
DWIDTH 24 0
BBX 10 21 8 -3
BITMAP
E000
3000
1000
1000
1000
1000
1000
1000
1000
11C0
1FC0
1000
1000
1000
1000
1000
1000
1000
1000
1000
1000
ENDCHAR
STARTCHAR 3150
ENCODING 9280
SWIDTH 2400 0
DWIDTH 24 0
BBX 10 21 7 -3
BITMAP
0380
00C0
C040
6040
2040
2040
2040
2040
2040
2040
2040
3FC0
2040
2040
2040
2040
2040
2040
2040
2040
0040
ENDCHAR
STARTCHAR 3151
ENCODING 9281
SWIDTH 2400 0
DWIDTH 24 0
BBX 10 21 8 -3
BITMAP
E000
3000
1000
1000
1000
1000
1180
1F80
1000
1000
1000
1000
11C0
1FC0
1000
1000
1000
1000
1000
1000
1000
ENDCHAR
STARTCHAR 3152
ENCODING 9282
SWIDTH 2400 0
DWIDTH 24 0
BBX 9 21 7 -3
BITMAP
0700
0180
E080
2080
2080
2080
2080
3F80
2080
2080
2080
2080
3F80
2080
2080
2080
2080
2080
2080
0080
0080
ENDCHAR
STARTCHAR 3153
ENCODING 9283
SWIDTH 2400 0
DWIDTH 24 0
BBX 9 21 6 -3
BITMAP
0600
0380
0080
0080
0080
0080
0080
0080
0080
CF80
3080
0080
0080
0080
0080
0080
0080
0080
0080
0080
0080
ENDCHAR
STARTCHAR 3154
ENCODING 9284
SWIDTH 2400 0
DWIDTH 24 0
BBX 12 21 5 -3
BITMAP
0060
0030
0E10
0210
0210
0210
0210
0210
0210
0210
FE10
0210
0210
0210
0210
0210
0210
0210
0210
0010
0010
ENDCHAR
STARTCHAR 3155
ENCODING 9285
SWIDTH 2400 0
DWIDTH 24 0
BBX 9 21 6 -3
BITMAP
0700
0180
0080
0080
0080
0080
0080
FF80
7080
0080
0080
0080
0080
FF80
2080
0080
0080
0080
0080
0080
0080
ENDCHAR
STARTCHAR 3156
ENCODING 9286
SWIDTH 2400 0
DWIDTH 24 0
BBX 13 21 4 -3
BITMAP
0070
0018
0708
0108
0108
0108
0108
FF08
2108
0108
0108
0108
0108
7F08
2108
0108
0108
0108
0108
0008
0008
ENDCHAR
STARTCHAR 3157
ENCODING 9287
SWIDTH 2400 0
DWIDTH 24 0
BBX 20 12 3 1
BITMAP
01C000
004000
004000
004000
004000
004000
004000
004000
0040E0
01FFF0
FE0000
200000
ENDCHAR
STARTCHAR 3158
ENCODING 9288
SWIDTH 2400 0
DWIDTH 24 0
BBX 21 21 1 -3
BITMAP
000E00
000300
000100
000100
040100
030100
010100
010100
010100
010100
0101F8
010100
010700
01F900
FF8100
300100
000100
000100
000100
000100
000100
ENDCHAR
STARTCHAR 3159
ENCODING 9289
SWIDTH 2400 0
DWIDTH 24 0
BBX 17 21 3 -3
BITMAP
000380
004080
003080
001080
381080
081080
081080
081080
081080
081080
081F80
081080
08F080
1F1080
F01080
001080
001080
001080
001080
000080
000080
ENDCHAR
STARTCHAR 315A
ENCODING 9290
SWIDTH 2400 0
DWIDTH 24 0
BBX 17 20 2 -3
BITMAP
000380
000080
000080
000080
038080
010080
010080
010080
010080
010080
010080
010380
013C80
8FC080
7C0080
000080
000080
000080
000080
000080
ENDCHAR
STARTCHAR 315B
ENCODING 9291
SWIDTH 2400 0
DWIDTH 24 0
BBX 20 10 2 3
BITMAP
000C00
060600
020600
020600
020600
020400
020400
020400
020470
FFFFF0
ENDCHAR
STARTCHAR 315C
ENCODING 9292
SWIDTH 2400 0
DWIDTH 24 0
BBX 21 16 2 -3
BITMAP
000070
FFFFF8
782000
002000
002000
002000
002000
002000
002000
002000
002000
002000
002000
002000
002000
002000
ENDCHAR
STARTCHAR 315D
ENCODING 9293
SWIDTH 2400 0
DWIDTH 24 0
BBX 17 20 2 -3
BITMAP
000380
000080
000080
000080
000080
001880
FFE080
7D0080
010080
010080
011F80
010080
010080
010080
010080
010080
010080
000080
000080
000080
ENDCHAR
STARTCHAR 315E
ENCODING 9294
SWIDTH 2400 0
DWIDTH 24 0
BBX 18 21 2 -3
BITMAP
000180
0000C0
001C40
000440
000440
000440
000440
00E440
FF0440
220440
020440
027C40
020440
020440
020440
020440
020440
000440
000040
000040
000040
ENDCHAR
STARTCHAR 315F
ENCODING 9295
SWIDTH 2400 0
DWIDTH 24 0
BBX 16 20 3 -3
BITMAP
0003
0001
0001
0001
0001
0001
000F
FFF1
7D01
0101
0101
0101
0101
0101
0101
0101
0101
0001
0001
0001
ENDCHAR
STARTCHAR 3160
ENCODING 9296
SWIDTH 2400 0
DWIDTH 24 0
BBX 20 16 2 -3
BITMAP
0001F0
FFFFF0
7E0400
020400
020400
020400
020400
020400
020400
020400
020400
020400
020400
020400
020400
020400
ENDCHAR
STARTCHAR 3161
ENCODING 9297
SWIDTH 2400 0
DWIDTH 24 0
BBX 21 3 2 5
BITMAP
0000F8
FFFFF8
200000
ENDCHAR
STARTCHAR 3162
ENCODING 9298
SWIDTH 2400 0
DWIDTH 24 0
BBX 16 21 3 -3
BITMAP
000C
0007
0001
0001
0001
0001
0001
0001
0001
0001
0001
001F
07E1
FC01
2001
0001
0001
0001
0001
0001
0001
ENDCHAR
STARTCHAR 3163
ENCODING 9299
SWIDTH 2400 0
DWIDTH 24 0
BBX 3 21 10 -3
BITMAP
C0
60
20
20
20
20
20
20
20
20
20
20
20
20
20
20
20
20
20
20
20
ENDCHAR
STARTCHAR 3164
ENCODING 9300
SWIDTH 2400 0
DWIDTH 24 0
BBX 0 0 0 0
BITMAP
ENDCHAR
STARTCHAR 3165
ENCODING 9301
SWIDTH 2400 0
DWIDTH 24 0
BBX 18 11 3 2
BITMAP
C0E000
602000
202000
202000
202000
202000
202000
202000
21A000
2E21C0
383FC0
ENDCHAR
STARTCHAR 3166
ENCODING 9302
SWIDTH 2400 0
DWIDTH 24 0
BBX 18 12 3 2
BITMAP
00C180
003F80
C02000
402000
402000
402000
402000
402000
40A000
432000
4C20C0
703FC0
ENDCHAR
STARTCHAR 3167
ENCODING 9303
SWIDTH 2400 0
DWIDTH 24 0
BBX 19 12 2 2
BITMAP
000C00
E00600
200600
200600
200400
200C00
200A00
201100
20B1C0
2720C0
384060
008020
ENDCHAR
STARTCHAR 3168
ENCODING 9304
SWIDTH 2400 0
DWIDTH 24 0
BBX 20 12 2 1
BITMAP
E00600
200600
200600
200D00
200D00
201880
2018C0
201040
213060
262020
386030
207FF0
ENDCHAR
STARTCHAR 3169
ENCODING 9305
SWIDTH 2400 0
DWIDTH 24 0
BBX 19 13 3 1
BITMAP
000400
FFC300
484100
084300
084300
884200
704700
404500
404480
404840
425060
7C5020
604000
ENDCHAR
STARTCHAR 316A
ENCODING 9306
SWIDTH 2400 0
DWIDTH 24 0
BBX 20 12 2 2
BITMAP
0000E0
7FFFE0
211000
031000
021000
FF1000
201000
201000
201000
205000
2F9060
381FF0
ENDCHAR
STARTCHAR 316B
ENCODING 9307
SWIDTH 2400 0
DWIDTH 24 0
BBX 19 12 3 1
BITMAP
FC3180
0D9180
089180
089180
C89100
70F100
409380
409280
409260
429460
7CF820
008020
ENDCHAR
STARTCHAR 316C
ENCODING 9308
SWIDTH 2400 0
DWIDTH 24 0
BBX 20 13 2 0
BITMAP
FF8300
218300
010300
010680
010480
7F8480
200C40
200840
201820
205020
21B020
2E3FF0
380000
ENDCHAR
STARTCHAR 316D
ENCODING 9309
SWIDTH 2400 0
DWIDTH 24 0
BBX 19 13 3 1
BITMAP
020000
FF0060
427FE0
023000
060000
040600
FE0F00
403180
4020C0
4020C0
41A0C0
4E3180
700F00
ENDCHAR
STARTCHAR 316E
ENCODING 9310
SWIDTH 2400 0
DWIDTH 24 0
BBX 18 12 3 1
BITMAP
8070C0
FF1040
421040
421040
421040
421FC0
421040
421040
421040
421040
7E1FC0
401040
ENDCHAR
STARTCHAR 316F
ENCODING 9311
SWIDTH 2400 0
DWIDTH 24 0
BBX 19 13 3 1
BITMAP
001800
000C00
FF8600
430400
430C00
430800
431C00
431200
433100
4221C0
4240C0
7F8060
410000
ENDCHAR
STARTCHAR 3170
ENCODING 9312
SWIDTH 2400 0
DWIDTH 24 0
BBX 18 12 3 2
BITMAP
000C00
010400
FF8600
430E00
430900
431900
431100
431080
433080
422040
426040
7F7FC0
ENDCHAR
STARTCHAR 3171
ENCODING 9313
SWIDTH 2400 0
DWIDTH 24 0
BBX 12 16 6 -1
BITMAP
FFF0
4020
4020
4060
4060
4060
7FE0
4000
1F80
2040
4020
4020
4020
4020
2040
1F80
ENDCHAR
STARTCHAR 3172
ENCODING 9314
SWIDTH 2400 0
DWIDTH 24 0
BBX 17 12 3 1
BITMAP
030080
C11F80
410080
410080
410080
7F0080
410080
410080
410080
410080
7F0080
410080
ENDCHAR
STARTCHAR 3173
ENCODING 9315
SWIDTH 2400 0
DWIDTH 24 0
BBX 19 12 3 1
BITMAP
C331C0
411F80
411000
411000
7F1000
411000
411000
411000
411000
411000
7F10E0
411FC0
ENDCHAR
STARTCHAR 3174
ENCODING 9316
SWIDTH 2400 0
DWIDTH 24 0
BBX 19 13 2 1
BITMAP
046000
061860
C219A0
421820
421020
423020
7E3020
422820
424620
424620
428320
7F0020
420020
ENDCHAR
STARTCHAR 3175
ENCODING 9317
SWIDTH 2400 0
DWIDTH 24 0
BBX 20 13 2 1
BITMAP
0C6000
C436E0
442300
442200
442200
7C6200
446200
445200
44DA00
448A00
450E00
7D03F0
420000
ENDCHAR
STARTCHAR 3176
ENCODING 9318
SWIDTH 2400 0
DWIDTH 24 0
BBX 18 13 3 1
BITMAP
060180
C2FFC0
420C00
420C00
420C00
7E0C00
420A00
421A00
423180
4220C0
4240C0
7E8040
410000
ENDCHAR
STARTCHAR 3177
ENCODING 9319
SWIDTH 2400 0
DWIDTH 24 0
BBX 19 14 3 0
BITMAP
0041C0
067FC0
C22000
422000
422000
422380
7E3F80
422000
422000
422000
4220C0
7E3FE0
420000
400000
ENDCHAR
STARTCHAR 3178
ENCODING 9320
SWIDTH 2400 0
DWIDTH 24 0
BBX 12 20 6 -3
BITMAP
0070
C010
4010
4010
7FF0
4010
4010
4010
4010
7FF0
4010
0F80
30C0
6060
6020
4020
6020
6060
30C0
1F80
ENDCHAR
STARTCHAR 3179
ENCODING 9321
SWIDTH 2400 0
DWIDTH 24 0
BBX 15 20 4 -3
BITMAP
00C6
8642
4242
427E
7E42
4242
4242
4242
7E7E
4240
0000
07C0
0C30
1808
1808
1808
1808
1808
0C10
07E0
ENDCHAR
STARTCHAR 317A
ENCODING 9322
SWIDTH 2400 0
DWIDTH 24 0
BBX 17 11 3 2
BITMAP
064180
063E80
060080
040080
0C0080
0A0080
1A0080
118080
20C080
40C080
804080
ENDCHAR
STARTCHAR 317B
ENCODING 9323
SWIDTH 2400 0
DWIDTH 24 0
BBX 20 12 2 2
BITMAP
083000
071800
030800
060800
060800
040800
0E0800
090800
118800
20C800
404870
804FF0
ENDCHAR
STARTCHAR 317C
ENCODING 9324
SWIDTH 2400 0
DWIDTH 24 0
BBX 19 12 2 2
BITMAP
0820C0
061FC0
061000
061000
041000
0C1000
0A1000
1A1000
119000
20D000
40D0E0
805FE0
ENDCHAR
STARTCHAR 317D
ENCODING 9325
SWIDTH 2400 0
DWIDTH 24 0
BBX 18 12 2 2
BITMAP
0C00C0
071840
060840
060840
060840
0C0FC0
0E0840
1B0840
118840
20C840
404FC0
804840
ENDCHAR
STARTCHAR 317E
ENCODING 9326
SWIDTH 2400 0
DWIDTH 24 0
BBX 19 13 2 1
BITMAP
080040
067FE0
061600
060300
040300
0C0600
0A0600
1A0500
318C80
209840
409060
802020
004000
ENDCHAR
STARTCHAR 317F
ENCODING 9327
SWIDTH 2400 0
DWIDTH 24 0
BBX 14 13 5 1
BITMAP
0300
0100
0300
0680
04C0
0C40
0820
1830
3010
2008
600C
4004
FFFC
ENDCHAR
STARTCHAR 3180
ENCODING 9328
SWIDTH 2400 0
DWIDTH 24 0
BBX 19 11 2 1
BITMAP
1E0780
230C40
419860
409020
409020
C09020
409020
409020
419860
630C40
1E0780
ENDCHAR
STARTCHAR 3181
ENCODING 9329
SWIDTH 2400 0
DWIDTH 24 0
BBX 10 13 7 1
BITMAP
1C00
0C00
0C00
3F00
6180
C0C0
8040
8040
8040
8040
C0C0
6180
3F00
ENDCHAR
STARTCHAR 3182
ENCODING 9330
SWIDTH 2400 0
DWIDTH 24 0
BBX 19 14 3 1
BITMAP
180000
081800
080600
3C0600
420400
C30C00
810C00
810C00
811A00
811180
8120C0
C340C0
428060
3D0000
ENDCHAR
STARTCHAR 3183
ENCODING 9331
SWIDTH 2400 0
DWIDTH 24 0
BBX 19 13 3 1
BITMAP
180C00
080400
080600
3C0E00
420900
811900
811100
811080
813080
812040
816040
424060
3C7FE0
ENDCHAR
STARTCHAR 3184
ENCODING 9332
SWIDTH 2400 0
DWIDTH 24 0
BBX 15 18 5 -2
BITMAP
7FFC
00C0
1030
0820
0860
0840
004C
FFFE
0000
0000
0F80
1060
2010
2010
2010
2010
1020
0FC0
ENDCHAR
STARTCHAR 3185
ENCODING 9333
SWIDTH 2400 0
DWIDTH 24 0
BBX 21 13 2 1
BITMAP
1F0780
000000
000000
01C038
FFFFF8
440980
1F03C0
210460
408820
408820
408820
210440
1E0380
ENDCHAR
STARTCHAR 3186
ENCODING 9334
SWIDTH 2400 0
DWIDTH 24 0
BBX 16 14 4 0
BITMAP
000F
FFFF
2000
0000
0000
07E0
0C30
0818
1008
1008
1008
1818
0C30
03C0
ENDCHAR
STARTCHAR 3187
ENCODING 9335
SWIDTH 2400 0
DWIDTH 24 0
BBX 20 21 2 -3
BITMAP
000E00
000300
000100
000100
006100
002100
182100
0821F0
082100
082100
082100
082100
082700
08F970
FF0180
200100
000100
000100
000100
000100
000100
ENDCHAR
STARTCHAR 3188
ENCODING 9336
SWIDTH 2400 0
DWIDTH 24 0
BBX 15 21 4 -3
BITMAP
000E
0006
00C2
0062
0022
01B2
00BA
30BE
18BA
08BA
08BA
08BA
08FE
09BA
FE3A
303A
003A
003A
003A
0002
0002
ENDCHAR
STARTCHAR 3189
ENCODING 9337
SWIDTH 2400 0
DWIDTH 24 0
BBX 16 20 3 -3
BITMAP
0006
0003
0001
0001
00C1
0041
0C41
0441
0441
0441
0441
0441
04F9
FF01
3001
0001
0001
0001
0001
0001
ENDCHAR
STARTCHAR 318A
ENCODING 9338
SWIDTH 2400 0
DWIDTH 24 0
BBX 17 20 2 -3
BITMAP
000700
000180
000080
000080
000080
001880
FFE080
3C4080
044080
044F80
044080
044080
044080
044F80
044080
044080
004080
000080
000080
000080
ENDCHAR
STARTCHAR 318B
ENCODING 9339
SWIDTH 2400 0
DWIDTH 24 0
BBX 18 20 2 -3
BITMAP
000380
0018C0
000440
000440
000440
000440
003440
FFC440
788440
08BC40
088440
088440
08FC40
088440
088440
088440
000440
000040
000040
000040
ENDCHAR
STARTCHAR 318C
ENCODING 9340
SWIDTH 2400 0
DWIDTH 24 0
BBX 16 21 3 -3
BITMAP
0006
0003
0001
0001
0001
0001
0001
003D
FFE1
7421
0421
0421
0421
0421
0421
0421
0421
0021
0001
0001
0001
ENDCHAR
STARTCHAR 318D
ENCODING 9341
SWIDTH 2400 0
DWIDTH 24 0
BBX 4 4 10 6
BITMAP
70
F0
F0
70
ENDCHAR
STARTCHAR 318E
ENCODING 9342
SWIDTH 2400 0
DWIDTH 24 0
BBX 12 21 6 -3
BITMAP
0060
0030
0010
0010
0010
0010
0010
7010
F010
F010
7010
0010
0010
0010
0010
0010
0010
0010
0010
0010
0010
ENDCHAR
STARTCHAR 2170
ENCODING 9505
SWIDTH 2400 0
DWIDTH 24 0
BBX 4 16 10 0
BITMAP
40
40
00
00
00
20
E0
20
20
20
20
20
20
20
20
F0
ENDCHAR
STARTCHAR 2171
ENCODING 9506
SWIDTH 2400 0
DWIDTH 24 0
BBX 12 17 6 0
BITMAP
4020
4020
4020
0000
0000
0000
2040
E1C0
2040
2040
2040
2040
2040
2040
2040
2040
F9F0
ENDCHAR
STARTCHAR 2172
ENCODING 9507
SWIDTH 2400 0
DWIDTH 24 0
BBX 15 17 4 0
BITMAP
4102
4102
4102
0000
0000
0000
2084
E39C
2084
2084
2084
2084
2084
2084
2084
2084
F3DE
ENDCHAR
STARTCHAR 2173
ENCODING 9508
SWIDTH 2400 0
DWIDTH 24 0
BBX 15 16 5 0
BITMAP
4000
4000
0000
0000
0000
2F8E
E604
2308
2308
2108
2190
2090
20E0
2060
2060
7040
ENDCHAR
STARTCHAR 2174
ENCODING 9509
SWIDTH 2400 0
DWIDTH 24 0
BBX 11 10 7 0
BITMAP
F1E0
6080
2080
3080
1100
1900
0A00
0E00
0400
0400
ENDCHAR
STARTCHAR 2175
ENCODING 9510
SWIDTH 2400 0
DWIDTH 24 0
BBX 16 16 4 0
BITMAP
0004
0004
0000
0000
0000
F9E6
2086
3082
3082
1102
1902
0A02
0E02
0E02
0402
040F
ENDCHAR
STARTCHAR 2176
ENCODING 9511
SWIDTH 2400 0
DWIDTH 24 0
BBX 18 17 3 0
BITMAP
000840
000840
000000
000000
000000
000000
F3B180
613180
611080
221080
321080
321080
141080
1C1080
1C1080
081080
0839C0
ENDCHAR
STARTCHAR 2177
ENCODING 9512
SWIDTH 2400 0
DWIDTH 24 0
BBX 20 17 2 0
BITMAP
002220
002220
000000
000000
000000
000000
F3B360
611120
611120
221120
321120
321120
141120
1C1120
1C1120
081120
083FF0
ENDCHAR
STARTCHAR 2178
ENCODING 9513
SWIDTH 2400 0
DWIDTH 24 0
BBX 16 17 4 0
BITMAP
1000
1000
0000
0000
0000
0000
E7DE
2308
2190
2090
20E0
2060
20B0
2110
2118
220C
FF9F
ENDCHAR
STARTCHAR 2179
ENCODING 9514
SWIDTH 2400 0
DWIDTH 24 0
BBX 12 10 6 0
BITMAP
70E0
1080
1900
0E00
0600
0B00
1100
1180
20C0
F1F0
ENDCHAR
STARTCHAR 2160
ENCODING 9520
SWIDTH 2400 0
DWIDTH 24 0
BBX 7 16 8 0
BITMAP
FE
10
10
10
10
10
10
10
10
10
10
10
10
10
38
FE
ENDCHAR
STARTCHAR 2161
ENCODING 9521
SWIDTH 2400 0
DWIDTH 24 0
BBX 15 16 5 0
BITMAP
FFFE
1810
1010
1010
1010
1010
1010
1010
1010
1010
1010
1010
1010
1010
1838
FFFE
ENDCHAR
STARTCHAR 2162
ENCODING 9522
SWIDTH 2400 0
DWIDTH 24 0
BBX 18 16 3 0
BITMAP
FFFFC0
204100
204100
204100
204100
204100
204100
204100
204100
204100
204100
204100
204100
204100
204100
FFFFC0
ENDCHAR
STARTCHAR 2163
ENCODING 9523
SWIDTH 2400 0
DWIDTH 24 0
BBX 20 16 2 0
BITMAP
7FE1F0
118040
118080
108080
10C080
10C100
104100
106100
106200
102200
103200
103400
101400
101800
101800
FE0800
ENDCHAR
STARTCHAR 2164
ENCODING 9524
SWIDTH 2400 0
DWIDTH 24 0
BBX 16 17 4 -1
BITMAP
FC1F
300C
3004
1008
1808
1810
0810
0C10
0C20
0420
0620
0240
0340
0380
0180
0180
0100
ENDCHAR
STARTCHAR 2165
ENCODING 9525
SWIDTH 2400 0
DWIDTH 24 0
BBX 18 16 3 0
BITMAP
F87FC0
601100
202100
302100
302100
104100
184100
188100
088100
088100
0D0100
0D0100
050100
060100
060100
060FC0
ENDCHAR
STARTCHAR 2166
ENCODING 9526
SWIDTH 2400 0
DWIDTH 24 0
BBX 21 17 2 -1
BITMAP
FC7FF8
702420
202420
304420
304420
104420
184420
188420
088420
088420
0D0420
0D0420
050420
070420
060420
020E70
020180
ENDCHAR
STARTCHAR 2167
ENCODING 9527
SWIDTH 2400 0
DWIDTH 24 0
BBX 22 16 1 0
BITMAP
F8FFFC
304890
304890
308890
308890
108890
188890
190890
190890
190890
0A0890
0E0890
0E0890
0E0890
0C0890
043FFC
ENDCHAR
STARTCHAR 2168
ENCODING 9528
SWIDTH 2400 0
DWIDTH 24 0
BBX 19 16 3 0
BITMAP
FFC3C0
218080
218100
20C200
206400
206400
203800
203000
203800
202C00
204400
20C600
208300
210300
230180
FFC7E0
ENDCHAR
STARTCHAR 2169
ENCODING 9529
SWIDTH 2400 0
DWIDTH 24 0
BBX 16 16 4 0
BITMAP
FE3E
1808
0810
0C10
0420
0240
0380
0180
0280
0240
0460
0820
1010
1018
301C
FC7F
ENDCHAR
STARTCHAR 0391
ENCODING 9537
SWIDTH 2400 0
DWIDTH 24 0
BBX 19 16 2 0
BITMAP
000600
000A00
000B00
001300
002300
004300
004100
008100
010100
01FF00
020100
040180
080180
080180
100180
FC07E0
ENDCHAR
STARTCHAR 0392
ENCODING 9538
SWIDTH 2400 0
DWIDTH 24 0
BBX 17 16 3 0
BITMAP
07FF00
018080
010080
030080
020080
020100
060600
07F800
040600
040300
0C0100
080100
080300
180200
180C00
FFF000
ENDCHAR
STARTCHAR 0393
ENCODING 9539
SWIDTH 2400 0
DWIDTH 24 0
BBX 17 16 4 0
BITMAP
0FFF80
020300
020100
060100
060000
040000
040000
0C0000
0C0000
080000
080000
180000
100000
100000
300000
FC0000
ENDCHAR
STARTCHAR 0394
ENCODING 9540
SWIDTH 2400 0
DWIDTH 24 0
BBX 16 16 4 0
BITMAP
0003
0006
000A
0012
0022
0042
0086
0106
0204
0404
0804
1004
2004
200C
7FFC
FFF8
ENDCHAR
STARTCHAR 0395
ENCODING 9541
SWIDTH 2400 0
DWIDTH 24 0
BBX 18 16 3 0
BITMAP
07FF80
010080
0100C0
030040
020000
020800
060800
07F800
043000
0C1000
081000
080000
180100
180200
100E00
FFFC00
ENDCHAR
STARTCHAR 0396
ENCODING 9542
SWIDTH 2400 0
DWIDTH 24 0
BBX 16 16 4 0
BITMAP
07FF
0F02
0C04
1808
0010
0020
0040
0080
0100
0200
0400
0C00
1808
3018
6030
FFF0
ENDCHAR
STARTCHAR 0397
ENCODING 9543
SWIDTH 2400 0
DWIDTH 24 0
BBX 20 16 2 0
BITMAP
0FC1F0
0300C0
020080
020080
060180
040100
040100
0FFF00
080200
080200
180600
100600
100400
300C00
300C00
FC7F00
ENDCHAR
STARTCHAR 0398
ENCODING 9544
SWIDTH 2400 0
DWIDTH 24 0
BBX 15 18 5 -1
BITMAP
01E0
0618
1804
3004
2004
6006
4026
CCC4
8FC4
88C4
900C
8008
8018
8010
C020
4040
3B80
0400
ENDCHAR
STARTCHAR 0399
ENCODING 9545
SWIDTH 2400 0
DWIDTH 24 0
BBX 11 16 6 0
BITMAP
07E0
0180
0100
0100
0300
0200
0200
0600
0400
0400
0C00
0C00
0800
0800
1800
FE00
ENDCHAR
STARTCHAR 039A
ENCODING 9546
SWIDTH 2400 0
DWIDTH 24 0
BBX 20 16 2 0
BITMAP
0FE3F0
0380C0
030100
020200
020C00
061000
066000
05A000
0E3000
081000
081800
180800
100C00
100400
300600
FC3F80
ENDCHAR
STARTCHAR 039B
ENCODING 9547
SWIDTH 2400 0
DWIDTH 24 0
BBX 17 16 3 0
BITMAP
000C00
001C00
002C00
002400
004400
008400
008400
010400
020400
020400
040400
080600
080600
100600
300600
FC3F80
ENDCHAR
STARTCHAR 039C
ENCODING 9548
SWIDTH 2400 0
DWIDTH 24 0
BBX 22 16 1 0
BITMAP
07803C
018050
028070
0280A0
028120
048160
048260
048440
088440
0888C0
089080
10A080
10A180
10C100
208300
F88FC0
ENDCHAR
STARTCHAR 039D
ENCODING 9549
SWIDTH 2400 0
DWIDTH 24 0
BBX 20 16 2 0
BITMAP
0F00F0
030040
038040
028080
04C080
044080
044100
086100
082100
083200
101200
101200
101A00
100C00
300C00
FC0400
ENDCHAR
STARTCHAR 039E
ENCODING 9550
SWIDTH 2400 0
DWIDTH 24 0
BBX 16 16 4 0
BITMAP
0FFF
0801
1001
1000
0000
0408
0C10
0FF0
0830
0010
0000
0004
8008
8008
C018
FFF0
ENDCHAR
STARTCHAR 039F
ENCODING 9551
SWIDTH 2400 0
DWIDTH 24 0
BBX 14 17 5 0
BITMAP
01E0
0618
0808
1004
3004
6004
6004
4004
C00C
C00C
8008
8018
8010
C030
4060
60C0
3F00
ENDCHAR
STARTCHAR 03A0
ENCODING 9552
SWIDTH 2400 0
DWIDTH 24 0
BBX 20 16 2 0
BITMAP
07FFF0
010080
010080
030180
020100
020100
060300
040300
040200
0C0600
080600
080400
180400
100C00
100800
FC7E00
ENDCHAR
STARTCHAR 03A1
ENCODING 9553
SWIDTH 2400 0
DWIDTH 24 0
BBX 17 16 4 0
BITMAP
0FFC00
030300
020100
020180
060100
040300
040E00
0FF800
080000
080000
180000
100000
100000
100000
300000
FC0000
ENDCHAR
STARTCHAR 03A3
ENCODING 9554
SWIDTH 2400 0
DWIDTH 24 0
BBX 16 16 4 0
BITMAP
07FF
0603
0201
0301
0100
0180
00C0
00C0
0040
0180
0200
0404
1808
2008
4038
FFF0
ENDCHAR
STARTCHAR 03A4
ENCODING 9555
SWIDTH 2400 0
DWIDTH 24 0
BBX 16 16 4 0
BITMAP
3FFF
60C7
C081
8181
0100
0100
0300
0200
0200
0600
0400
0400
0C00
0800
0800
7F00
ENDCHAR
STARTCHAR 03A5
ENCODING 9556
SWIDTH 2400 0
DWIDTH 24 0
BBX 16 17 4 0
BITMAP
1C07
6E1F
0227
0340
0380
0300
0300
0200
0600
0400
0400
0C00
0800
0800
1800
1800
FE00
ENDCHAR
STARTCHAR 03A6
ENCODING 9557
SWIDTH 2400 0
DWIDTH 24 0
BBX 14 16 5 0
BITMAP
03F0
01C0
0EB0
1088
2184
6104
4104
C304
820C
820C
8618
C618
4430
3CC0
0F80
7E00
ENDCHAR
STARTCHAR 03A7
ENCODING 9558
SWIDTH 2400 0
DWIDTH 24 0
BBX 22 16 1 0
BITMAP
07F0FC
018060
008080
00C100
004200
006400
002800
003000
005000
009800
010800
020C00
040400
080600
380700
FE1FC0
ENDCHAR
STARTCHAR 03A8
ENCODING 9559
SWIDTH 2400 0
DWIDTH 24 0
BBX 17 17 4 0
BITMAP
200700
F3F780
198B80
118800
310800
211800
631000
421000
C21000
C63000
463000
64E000
1F8000
0C0000
080000
180000
7F0000
ENDCHAR
STARTCHAR 03A9
ENCODING 9560
SWIDTH 2400 0
DWIDTH 24 0
BBX 18 16 3 0
BITMAP
007E00
018180
020080
0400C0
0800C0
0800C0
1800C0
180080
180180
080300
0C0600
063C00
026000
424100
C24200
FCFE00
ENDCHAR
STARTCHAR 03B1
ENCODING 9569
SWIDTH 2400 0
DWIDTH 24 0
BBX 12 11 6 0
BITMAP
0710
08B0
10A0
20A0
6140
4140
C180
8100
8300
C500
79C0
ENDCHAR
STARTCHAR 03B2
ENCODING 9570
SWIDTH 2400 0
DWIDTH 24 0
BBX 14 19 5 -3
BITMAP
00F8
0108
020C
040C
040C
0418
0810
0BE0
0820
1030
1010
1030
3030
3020
2860
67C0
6000
4000
C000
ENDCHAR
STARTCHAR 03B3
ENCODING 9571
SWIDTH 2400 0
DWIDTH 24 0
BBX 10 14 7 -3
BITMAP
7040
F0C0
1880
0900
0A00
0C00
0800
0800
1000
3000
3000
6000
6000
C000
ENDCHAR
STARTCHAR 03B4
ENCODING 9572
SWIDTH 2400 0
DWIDTH 24 0
BBX 10 17 7 0
BITMAP
0400
0F00
1180
10C0
0840
0440
0200
1E00
2100
4180
8180
8180
8180
8100
8300
C600
7800
ENDCHAR
STARTCHAR 03B5
ENCODING 9573
SWIDTH 2400 0
DWIDTH 24 0
BBX 10 11 7 0
BITMAP
0F00
3FC0
2000
2000
2000
7E00
8000
8000
8000
E180
7E00
ENDCHAR
STARTCHAR 03B6
ENCODING 9574
SWIDTH 2400 0
DWIDTH 24 0
BBX 10 19 7 -3
BITMAP
3000
60C0
6380
3700
1800
2000
2000
4000
8000
8000
8000
8000
C000
7800
3E00
0200
0200
6400
7C00
ENDCHAR
STARTCHAR 03B7
ENCODING 9575
SWIDTH 2400 0
DWIDTH 24 0
BBX 10 14 7 -3
BITMAP
7380
74C0
1840
10C0
1080
2080
6180
6100
C300
C200
0600
0600
0C00
0C00
ENDCHAR
STARTCHAR 03B8
ENCODING 9576
SWIDTH 2400 0
DWIDTH 24 0
BBX 11 17 7 0
BITMAP
0380
0440
0840
1060
3040
2040
6040
40C0
7FC0
C080
8080
8100
8100
8200
8200
8400
7800
ENDCHAR
STARTCHAR 03B9
ENCODING 9577
SWIDTH 2400 0
DWIDTH 24 0
BBX 6 11 9 0
BITMAP
0C
18
18
30
20
60
40
40
84
C8
70
ENDCHAR
STARTCHAR 03BA
ENCODING 9578
SWIDTH 2400 0
DWIDTH 24 0
BBX 10 11 7 0
BITMAP
18C0
11C0
3200
3400
2400
7800
4C00
4400
C400
CD00
8700
ENDCHAR
STARTCHAR 03BB
ENCODING 9579
SWIDTH 2400 0
DWIDTH 24 0
BBX 10 16 7 0
BITMAP
0700
0380
0080
0080
0080
0080
0180
0380
0680
0480
0880
1880
3080
20C0
60C0
C040
ENDCHAR
STARTCHAR 03BC
ENCODING 9580
SWIDTH 2400 0
DWIDTH 24 0
BBX 12 13 6 -3
BITMAP
0410
0C10
1830
1830
1060
3060
3040
2080
20F0
7F60
4000
C000
C000
ENDCHAR
STARTCHAR 03BD
ENCODING 9581
SWIDTH 2400 0
DWIDTH 24 0
BBX 10 11 7 0
BITMAP
6040
6040
6040
2080
2080
2100
4100
4600
4C00
F800
E000
ENDCHAR
STARTCHAR 03BE
ENCODING 9582
SWIDTH 2400 0
DWIDTH 24 0
BBX 12 20 6 -3
BITMAP
0180
07C0
0400
07F0
0DF0
1000
2000
2000
1000
1FE0
2080
4000
8000
8000
8000
FC00
3F00
0100
0300
0E00
ENDCHAR
STARTCHAR 03BF
ENCODING 9583
SWIDTH 2400 0
DWIDTH 24 0
BBX 10 12 7 -1
BITMAP
0F00
1080
20C0
60C0
40C0
C0C0
8080
8080
C100
4200
2C00
1000
ENDCHAR
STARTCHAR 03C0
ENCODING 9584
SWIDTH 2400 0
DWIDTH 24 0
BBX 12 10 6 0
BITMAP
3FF0
48F0
8900
1100
1100
2200
2200
6200
C300
C380
ENDCHAR
STARTCHAR 03C1
ENCODING 9585
SWIDTH 2400 0
DWIDTH 24 0
BBX 11 13 7 -3
BITMAP
0380
0C40
1060
3060
6060
6060
6040
A0C0
A180
9F00
8000
8000
8000
ENDCHAR
STARTCHAR 03C3
ENCODING 9586
SWIDTH 2400 0
DWIDTH 24 0
BBX 12 12 6 0
BITMAP
0070
07F0
1F00
3080
60C0
40C0
40C0
C0C0
C080
C180
4300
3C00
ENDCHAR
STARTCHAR 03C4
ENCODING 9587
SWIDTH 2400 0
DWIDTH 24 0
BBX 9 11 8 0
BITMAP
3980
FF00
9000
1000
2000
2000
6000
4000
4000
D800
7000
ENDCHAR
STARTCHAR 03C5
ENCODING 9588
SWIDTH 2400 0
DWIDTH 24 0
BBX 10 12 7 -1
BITMAP
3180
30C0
30C0
30C0
2080
6080
4180
8100
8200
8400
5800
2000
ENDCHAR
STARTCHAR 03C6
ENCODING 9589
SWIDTH 2400 0
DWIDTH 24 0
BBX 12 13 6 -3
BITMAP
0440
39E0
6310
C210
8410
8410
8420
C840
6980
3F00
1000
1000
3000
ENDCHAR
STARTCHAR 03C7
ENCODING 9590
SWIDTH 2400 0
DWIDTH 24 0
BBX 12 14 6 -3
BITMAP
1C30
3C30
2660
02C0
0280
0300
0200
0600
0A00
1A00
3200
6220
E360
C1C0
ENDCHAR
STARTCHAR 03C8
ENCODING 9591
SWIDTH 2400 0
DWIDTH 24 0
BBX 12 19 6 -3
BITMAP
00C0
0080
0180
0180
0100
1130
3230
6230
4230
C420
C420
C440
C840
6980
1E00
1000
1000
3000
3000
ENDCHAR
STARTCHAR 03C9
ENCODING 9592
SWIDTH 2400 0
DWIDTH 24 0
BBX 14 11 5 0
BITMAP
0608
1808
3084
2184
6184
4184
C30C
C308
C218
4630
39E0
ENDCHAR
STARTCHAR 2500
ENCODING 9761
SWIDTH 2400 0
DWIDTH 24 0
BBX 24 1 0 7
BITMAP
FFFFFF
ENDCHAR
STARTCHAR 2502
ENCODING 9762
SWIDTH 2400 0
DWIDTH 24 0
BBX 1 24 11 -5
BITMAP
80
80
80
80
80
80
80
80
80
80
80
80
80
80
80
80
80
80
80
80
80
80
80
80
ENDCHAR
STARTCHAR 250C
ENCODING 9763
SWIDTH 2400 0
DWIDTH 24 0
BBX 13 13 11 -5
BITMAP
FFF8
8000
8000
8000
8000
8000
8000
8000
8000
8000
8000
8000
8000
ENDCHAR
STARTCHAR 2510
ENCODING 9764
SWIDTH 2400 0
DWIDTH 24 0
BBX 13 13 -1 -5
BITMAP
FFF8
0008
0008
0008
0008
0008
0008
0008
0008
0008
0008
0008
0008
ENDCHAR
STARTCHAR 2518
ENCODING 9765
SWIDTH 2400 0
DWIDTH 24 0
BBX 13 12 -1 7
BITMAP
0008
0008
0008
0008
0008
0008
0008
0008
0008
0008
0008
FFF8
ENDCHAR
STARTCHAR 2514
ENCODING 9766
SWIDTH 2400 0
DWIDTH 24 0
BBX 13 12 11 7
BITMAP
8000
8000
8000
8000
8000
8000
8000
8000
8000
8000
8000
FFF8
ENDCHAR
STARTCHAR 251C
ENCODING 9767
SWIDTH 2400 0
DWIDTH 24 0
BBX 13 24 11 -5
BITMAP
8000
8000
8000
8000
8000
8000
8000
8000
8000
8000
8000
FFF8
8000
8000
8000
8000
8000
8000
8000
8000
8000
8000
8000
8000
ENDCHAR
STARTCHAR 252C
ENCODING 9768
SWIDTH 2400 0
DWIDTH 24 0
BBX 25 13 -1 -5
BITMAP
FFFFFF80
00080000
00080000
00080000
00080000
00080000
00080000
00080000
00080000
00080000
00080000
00080000
00080000
ENDCHAR
STARTCHAR 2524
ENCODING 9769
SWIDTH 2400 0
DWIDTH 24 0
BBX 13 24 -1 -5
BITMAP
0008
0008
0008
0008
0008
0008
0008
0008
0008
0008
0008
FFF8
0008
0008
0008
0008
0008
0008
0008
0008
0008
0008
0008
0008
ENDCHAR
STARTCHAR 2534
ENCODING 9770
SWIDTH 2400 0
DWIDTH 24 0
BBX 25 12 -1 7
BITMAP
00080000
00080000
00080000
00080000
00080000
00080000
00080000
00080000
00080000
00080000
00080000
FFFFFF80
ENDCHAR
STARTCHAR 253C
ENCODING 9771
SWIDTH 2400 0
DWIDTH 24 0
BBX 25 24 -1 -5
BITMAP
00080000
00080000
00080000
00080000
00080000
00080000
00080000
00080000
00080000
00080000
00080000
FFFFFF80
00080000
00080000
00080000
00080000
00080000
00080000
00080000
00080000
00080000
00080000
00080000
00080000
ENDCHAR
STARTCHAR 2501
ENCODING 9772
SWIDTH 2400 0
DWIDTH 24 0
BBX 24 2 0 6
BITMAP
FFFFFF
FFFFFF
ENDCHAR
STARTCHAR 2503
ENCODING 9773
SWIDTH 2400 0
DWIDTH 24 0
BBX 1 24 11 -5
BITMAP
80
80
80
80
80
80
80
80
80
80
80
80
80
80
80
80
80
80
80
80
80
80
80
80
ENDCHAR
STARTCHAR 250F
ENCODING 9774
SWIDTH 2400 0
DWIDTH 24 0
BBX 12 13 11 -5
BITMAP
FFF0
FFF0
8000
8000
8000
8000
8000
8000
8000
8000
8000
8000
8000
ENDCHAR
STARTCHAR 2513
ENCODING 9775
SWIDTH 2400 0
DWIDTH 24 0
BBX 12 13 0 -5
BITMAP
FFF0
FFF0
0010
0010
0010
0010
0010
0010
0010
0010
0010
0010
0010
ENDCHAR
STARTCHAR 251B
ENCODING 9776
SWIDTH 2400 0
DWIDTH 24 0
BBX 12 13 0 6
BITMAP
0010
0010
0010
0010
0010
0010
0010
0010
0010
0010
0010
FFF0
FFF0
ENDCHAR
STARTCHAR 2517
ENCODING 9777
SWIDTH 2400 0
DWIDTH 24 0
BBX 12 13 11 6
BITMAP
8000
8000
8000
8000
8000
8000
8000
8000
8000
8000
8000
FFF0
FFF0
ENDCHAR
STARTCHAR 2523
ENCODING 9778
SWIDTH 2400 0
DWIDTH 24 0
BBX 12 24 11 -5
BITMAP
8000
8000
8000
8000
8000
8000
8000
8000
8000
8000
8000
FFF0
FFF0
8000
8000
8000
8000
8000
8000
8000
8000
8000
8000
8000
ENDCHAR
STARTCHAR 2533
ENCODING 9779
SWIDTH 2400 0
DWIDTH 24 0
BBX 23 13 0 -5
BITMAP
FFFFFE
FFFFFE
001000
001000
001000
001000
001000
001000
001000
001000
001000
001000
001000
ENDCHAR
STARTCHAR 252B
ENCODING 9780
SWIDTH 2400 0
DWIDTH 24 0
BBX 12 24 0 -5
BITMAP
0010
0010
0010
0010
0010
0010
0010
0010
0010
0010
0010
FFF0
FFF0
0010
0010
0010
0010
0010
0010
0010
0010
0010
0010
0010
ENDCHAR
STARTCHAR 253B
ENCODING 9781
SWIDTH 2400 0
DWIDTH 24 0
BBX 23 13 1 6
BITMAP
001000
001000
001000
001000
001000
001000
001000
001000
001000
001000
001000
FFFFFE
FFFFFE
ENDCHAR
STARTCHAR 254B
ENCODING 9782
SWIDTH 2400 0
DWIDTH 24 0
BBX 23 24 1 -5
BITMAP
001000
001000
001000
001000
001000
001000
001000
001000
001000
001000
001000
FFFFFE
FFFFFE
001000
001000
001000
001000
001000
001000
001000
001000
001000
001000
001000
ENDCHAR
STARTCHAR 2520
ENCODING 9783
SWIDTH 2400 0
DWIDTH 24 0
BBX 12 24 11 -5
BITMAP
8000
8000
8000
8000
8000
8000
8000
8000
8000
8000
8000
FFF0
8000
8000
8000
8000
8000
8000
8000
8000
8000
8000
8000
8000
ENDCHAR
STARTCHAR 252F
ENCODING 9784
SWIDTH 2400 0
DWIDTH 24 0
BBX 25 13 -1 -5
BITMAP
FFFFFF80
FFFFFF80
00080000
00080000
00080000
00080000
00080000
00080000
00080000
00080000
00080000
00080000
00080000
ENDCHAR
STARTCHAR 2528
ENCODING 9785
SWIDTH 2400 0
DWIDTH 24 0
BBX 12 24 1 -5
BITMAP
0010
0010
0010
0010
0010
0010
0010
0010
0010
0010
0010
FFF0
0010
0010
0010
0010
0010
0010
0010
0010
0010
0010
0010
0010
ENDCHAR
STARTCHAR 2537
ENCODING 9786
SWIDTH 2400 0
DWIDTH 24 0
BBX 25 13 -1 6
BITMAP
00080000
00080000
00080000
00080000
00080000
00080000
00080000
00080000
00080000
00080000
00080000
FFFFFF80
FFFFFF80
ENDCHAR
STARTCHAR 253F
ENCODING 9787
SWIDTH 2400 0
DWIDTH 24 0
BBX 25 24 -1 -5
BITMAP
00080000
00080000
00080000
00080000
00080000
00080000
00080000
00080000
00080000
00080000
00080000
FFFFFF80
FFFFFF80
00080000
00080000
00080000
00080000
00080000
00080000
00080000
00080000
00080000
00080000
00080000
ENDCHAR
STARTCHAR 251D
ENCODING 9788
SWIDTH 2400 0
DWIDTH 24 0
BBX 13 24 11 -5
BITMAP
8000
8000
8000
8000
8000
8000
8000
8000
8000
8000
8000
FFF8
FFF8
8000
8000
8000
8000
8000
8000
8000
8000
8000
8000
8000
ENDCHAR
STARTCHAR 2530
ENCODING 9789
SWIDTH 2400 0
DWIDTH 24 0
BBX 23 13 0 -5
BITMAP
FFFFFE
001000
001000
001000
001000
001000
001000
001000
001000
001000
001000
001000
001000
ENDCHAR
STARTCHAR 2525
ENCODING 9790
SWIDTH 2400 0
DWIDTH 24 0
BBX 13 24 -1 -5
BITMAP
0008
0008
0008
0008
0008
0008
0008
0008
0008
0008
0008
FFF8
FFF8
0008
0008
0008
0008
0008
0008
0008
0008
0008
0008
0008
ENDCHAR
STARTCHAR 2538
ENCODING 9791
SWIDTH 2400 0
DWIDTH 24 0
BBX 23 12 0 7
BITMAP
001000
001000
001000
001000
001000
001000
001000
001000
001000
001000
001000
FFFFFE
ENDCHAR
STARTCHAR 2542
ENCODING 9792
SWIDTH 2400 0
DWIDTH 24 0
BBX 23 24 0 -5
BITMAP
001000
001000
001000
001000
001000
001000
001000
001000
001000
001000
001000
FFFFFE
001000
001000
001000
001000
001000
001000
001000
001000
001000
001000
001000
001000
ENDCHAR
STARTCHAR 2512
ENCODING 9793
SWIDTH 2400 0
DWIDTH 24 0
BBX 12 13 0 -5
BITMAP
FFF0
0010
0010
0010
0010
0010
0010
0010
0010
0010
0010
0010
0010
ENDCHAR
STARTCHAR 2511
ENCODING 9794
SWIDTH 2400 0
DWIDTH 24 0
BBX 13 13 -1 -5
BITMAP
FFF8
FFF8
0008
0008
0008
0008
0008
0008
0008
0008
0008
0008
0008
ENDCHAR
STARTCHAR 251A
ENCODING 9795
SWIDTH 2400 0
DWIDTH 24 0
BBX 12 12 0 7
BITMAP
0010
0010
0010
0010
0010
0010
0010
0010
0010
0010
0010
FFF0
ENDCHAR
STARTCHAR 2519
ENCODING 9796
SWIDTH 2400 0
DWIDTH 24 0
BBX 13 13 0 6
BITMAP
0008
0008
0008
0008
0008
0008
0008
0008
0008
0008
0008
FFF8
FFF8
ENDCHAR
STARTCHAR 2516
ENCODING 9797
SWIDTH 2400 0
DWIDTH 24 0
BBX 12 12 11 7
BITMAP
8000
8000
8000
8000
8000
8000
8000
8000
8000
8000
8000
FFF0
ENDCHAR
STARTCHAR 2515
ENCODING 9798
SWIDTH 2400 0
DWIDTH 24 0
BBX 13 13 11 6
BITMAP
8000
8000
8000
8000
8000
8000
8000
8000
8000
8000
8000
FFF8
FFF8
ENDCHAR
STARTCHAR 250E
ENCODING 9799
SWIDTH 2400 0
DWIDTH 24 0
BBX 12 13 12 -5
BITMAP
FFF0
8000
8000
8000
8000
8000
8000
8000
8000
8000
8000
8000
8000
ENDCHAR
STARTCHAR 250D
ENCODING 9800
SWIDTH 2400 0
DWIDTH 24 0
BBX 13 13 11 -5
BITMAP
FFF8
FFF8
8000
8000
8000
8000
8000
8000
8000
8000
8000
8000
8000
ENDCHAR
STARTCHAR 251E
ENCODING 9801
SWIDTH 2400 0
DWIDTH 24 0
BBX 13 24 11 -5
BITMAP
4000
4000
4000
4000
4000
4000
4000
4000
4000
4000
4000
7FF8
8000
8000
8000
8000
8000
8000
8000
8000
8000
8000
8000
8000
ENDCHAR
STARTCHAR 251F
ENCODING 9802
SWIDTH 2400 0
DWIDTH 24 0
BBX 12 24 11 -5
BITMAP
4000
4000
4000
4000
4000
4000
4000
4000
4000
4000
4000
7FF0
8000
8000
8000
8000
8000
8000
8000
8000
8000
8000
8000
8000
ENDCHAR
STARTCHAR 2521
ENCODING 9803
SWIDTH 2400 0
DWIDTH 24 0
BBX 13 24 11 -5
BITMAP
4000
4000
4000
4000
4000
4000
4000
4000
4000
4000
4000
7FF8
FFF8
8000
8000
8000
8000
8000
8000
8000
8000
8000
8000
8000
ENDCHAR
STARTCHAR 2522
ENCODING 9804
SWIDTH 2400 0
DWIDTH 24 0
BBX 12 24 11 -5
BITMAP
4000
4000
4000
4000
4000
4000
4000
4000
4000
4000
4000
7FF0
FFF0
8000
8000
8000
8000
8000
8000
8000
8000
8000
8000
8000
ENDCHAR
STARTCHAR 2526
ENCODING 9805
SWIDTH 2400 0
DWIDTH 24 0
BBX 12 24 0 -5
BITMAP
0010
0010
0010
0010
0010
0010
0010
0010
0010
0010
0010
FFF0
0010
0010
0010
0010
0010
0010
0010
0010
0010
0010
0010
0010
ENDCHAR
STARTCHAR 2527
ENCODING 9806
SWIDTH 2400 0
DWIDTH 24 0
BBX 13 24 0 -5
BITMAP
0008
0008
0008
0008
0008
0008
0008
0008
0008
0008
0008
FFF8
0010
0010
0010
0010
0010
0010
0010
0010
0010
0010
0010
0010
ENDCHAR
STARTCHAR 2529
ENCODING 9807
SWIDTH 2400 0
DWIDTH 24 0
BBX 13 24 0 -5
BITMAP
0010
0010
0010
0010
0010
0010
0010
0010
0010
0010
0010
FFF0
FFF8
0008
0008
0008
0008
0008
0008
0008
0008
0008
0008
0008
ENDCHAR
STARTCHAR 252A
ENCODING 9808
SWIDTH 2400 0
DWIDTH 24 0
BBX 12 24 1 -5
BITMAP
0020
0020
0020
0020
0020
0020
0020
0020
0020
0020
0020
FFE0
FFF0
0010
0010
0010
0010
0010
0010
0010
0010
0010
0010
0010
ENDCHAR
STARTCHAR 252D
ENCODING 9809
SWIDTH 2400 0
DWIDTH 24 0
BBX 25 13 -1 -5
BITMAP
FFFFFF80
FFF80000
00080000
00080000
00080000
00080000
00080000
00080000
00080000
00080000
00080000
00080000
00080000
ENDCHAR
STARTCHAR 252E
ENCODING 9810
SWIDTH 2400 0
DWIDTH 24 0
BBX 25 13 -1 -5
BITMAP
FFFFFF80
000FFF80
00080000
00080000
00080000
00080000
00080000
00080000
00080000
00080000
00080000
00080000
00080000
ENDCHAR
STARTCHAR 2531
ENCODING 9811
SWIDTH 2400 0
DWIDTH 24 0
BBX 23 13 0 -5
BITMAP
FFFFFE
FFF000
001000
001000
001000
001000
001000
001000
001000
001000
001000
001000
001000
ENDCHAR
STARTCHAR 2532
ENCODING 9812
SWIDTH 2400 0
DWIDTH 24 0
BBX 23 13 0 -5
BITMAP
FFFFFE
001FFE
001000
001000
001000
001000
001000
001000
001000
001000
001000
001000
001000
ENDCHAR
STARTCHAR 2535
ENCODING 9813
SWIDTH 2400 0
DWIDTH 24 0
BBX 25 13 -1 6
BITMAP
00080000
00080000
00080000
00080000
00080000
00080000
00080000
00080000
00080000
00080000
00080000
FFFFFF80
FFF80000
ENDCHAR
STARTCHAR 2536
ENCODING 9814
SWIDTH 2400 0
DWIDTH 24 0
BBX 25 13 -1 6
BITMAP
00080000
00080000
00080000
00080000
00080000
00080000
00080000
00080000
00080000
00080000
00080000
FFFFFF80
0007FF80
ENDCHAR
STARTCHAR 2539
ENCODING 9815
SWIDTH 2400 0
DWIDTH 24 0
BBX 23 13 0 6
BITMAP
001000
001000
001000
001000
001000
001000
001000
001000
001000
001000
001000
FFFFFE
FFF000
ENDCHAR
STARTCHAR 253A
ENCODING 9816
SWIDTH 2400 0
DWIDTH 24 0
BBX 23 13 0 6
BITMAP
001000
001000
001000
001000
001000
001000
001000
001000
001000
001000
001000
FFFFFE
001FFE
ENDCHAR
STARTCHAR 253D
ENCODING 9817
SWIDTH 2400 0
DWIDTH 24 0
BBX 25 24 -1 -5
BITMAP
00080000
00080000
00080000
00080000
00080000
00080000
00080000
00080000
00080000
00080000
00080000
FFFFFF80
FFF80000
00080000
00080000
00080000
00080000
00080000
00080000
00080000
00080000
00080000
00080000
00080000
ENDCHAR
STARTCHAR 253E
ENCODING 9818
SWIDTH 2400 0
DWIDTH 24 0
BBX 25 24 -1 -5
BITMAP
00080000
00080000
00080000
00080000
00080000
00080000
00080000
00080000
00080000
00080000
00080000
FFFFFF80
000FFF80
00080000
00080000
00080000
00080000
00080000
00080000
00080000
00080000
00080000
00080000
00080000
ENDCHAR
STARTCHAR 2540
ENCODING 9819
SWIDTH 2400 0
DWIDTH 24 0
BBX 23 24 0 -5
BITMAP
001000
001000
001000
001000
001000
001000
001000
001000
001000
001000
001000
FFFFFE
001000
001000
001000
001000
001000
001000
001000
001000
001000
001000
001000
001000
ENDCHAR
STARTCHAR 2541
ENCODING 9820
SWIDTH 2400 0
DWIDTH 24 0
BBX 23 24 0 -5
BITMAP
001000
001000
001000
001000
001000
001000
001000
001000
001000
001000
001000
FFFFFE
001000
001000
001000
001000
001000
001000
001000
001000
001000
001000
001000
001000
ENDCHAR
STARTCHAR 2543
ENCODING 9821
SWIDTH 2400 0
DWIDTH 24 0
BBX 23 24 0 -5
BITMAP
001000
001000
001000
001000
001000
001000
001000
001000
001000
001000
001000
FFFFFE
FFF800
000800
000800
000800
000800
000800
000800
000800
000800
000800
000800
000800
ENDCHAR
STARTCHAR 2544
ENCODING 9822
SWIDTH 2400 0
DWIDTH 24 0
BBX 23 24 0 -5
BITMAP
001000
001000
001000
001000
001000
001000
001000
001000
001000
001000
001000
FFFFFE
001FFE
001000
001000
001000
001000
001000
001000
001000
001000
001000
001000
001000
ENDCHAR
STARTCHAR 2545
ENCODING 9823
SWIDTH 2400 0
DWIDTH 24 0
BBX 23 24 0 -5
BITMAP
001000
001000
001000
001000
001000
001000
001000
001000
001000
001000
001000
FFFFFE
FFF000
001000
001000
001000
001000
001000
001000
001000
001000
001000
001000
001000
ENDCHAR
STARTCHAR 2546
ENCODING 9824
SWIDTH 2400 0
DWIDTH 24 0
BBX 23 24 0 -5
BITMAP
001000
001000
001000
001000
001000
001000
001000
001000
001000
001000
001000
FFFFFE
001FFE
001000
001000
001000
001000
001000
001000
001000
001000
001000
001000
001000
ENDCHAR
STARTCHAR 2547
ENCODING 9825
SWIDTH 2400 0
DWIDTH 24 0
BBX 23 24 1 -5
BITMAP
001000
001000
001000
001000
001000
001000
001000
001000
001000
001000
001000
FFFFFE
FFFFFE
002000
002000
002000
002000
002000
002000
002000
002000
002000
002000
002000
ENDCHAR
STARTCHAR 2548
ENCODING 9826
SWIDTH 2400 0
DWIDTH 24 0
BBX 23 24 0 -5
BITMAP
000800
000800
000800
000800
000800
000800
000800
000800
000800
000800
000800
FFFFFE
FFFFFE
001000
001000
001000
001000
001000
001000
001000
001000
001000
001000
001000
ENDCHAR
STARTCHAR 2549
ENCODING 9827
SWIDTH 2400 0
DWIDTH 24 0
BBX 23 24 0 -5
BITMAP
001000
001000
001000
001000
001000
001000
001000
001000
001000
001000
001000
FFFFFE
FFF000
001000
001000
001000
001000
001000
001000
001000
001000
001000
001000
001000
ENDCHAR
STARTCHAR 254A
ENCODING 9828
SWIDTH 2400 0
DWIDTH 24 0
BBX 23 24 0 -5
BITMAP
001000
001000
001000
001000
001000
001000
001000
001000
001000
001000
001000
FFFFFE
001FFE
001000
001000
001000
001000
001000
001000
001000
001000
001000
001000
001000
ENDCHAR
STARTCHAR 3395
ENCODING 10017
SWIDTH 2400 0
DWIDTH 24 0
BBX 23 21 1 -4
BITMAP
000018
000028
000044
000044
000088
000088
040888
0C1890
0C1890
1810A0
1830A0
1030C0
306180
2062C2
204044
20C844
517038
4E0000
400000
C00000
800000
ENDCHAR
STARTCHAR 3396
ENCODING 10018
SWIDTH 2400 0
DWIDTH 24 0
BBX 22 18 1 -1
BITMAP
000030
000050
000088
000088
000118
000110
0CC110
772110
442120
442140
442140
442180
442100
442384
442C88
442088
E46050
000020
ENDCHAR
STARTCHAR 3397
ENCODING 10019
SWIDTH 2400 0
DWIDTH 24 0
BBX 20 18 2 -1
BITMAP
0000C0
008120
008220
008220
008460
008440
008440
3E84C0
418480
408500
808500
808600
808400
809E10
80A220
418220
368140
080080
ENDCHAR
STARTCHAR 2113
ENCODING 10020
SWIDTH 2400 0
DWIDTH 24 0
BBX 10 17 7 0
BITMAP
0300
0580
0880
0880
1180
1100
1100
1200
1200
1400
1800
1000
3000
5840
8880
0880
0700
ENDCHAR
STARTCHAR 3398
ENCODING 10021
SWIDTH 2400 0
DWIDTH 24 0
BBX 21 18 2 -1
BITMAP
000060
4000A0
400110
400110
400230
400220
400220
43C260
420240
440280
440280
5C0300
660200
430608
411910
418110
E1E0A0
000040
ENDCHAR
STARTCHAR 33C4
ENCODING 10022
SWIDTH 2400 0
DWIDTH 24 0
BBX 21 12 2 -1
BITMAP
1E01E0
610610
418418
818818
800800
800800
800800
800800
C00C00
410410
360220
0801C0
ENDCHAR
STARTCHAR 33A3
ENCODING 10023
SWIDTH 2400 0
DWIDTH 24 0
BBX 21 18 1 0
BITMAP
000078
000008
000010
000008
000008
000048
000030
D99B30
664CC8
444888
444888
444888
444888
444888
444888
444888
444888
64E898
ENDCHAR
STARTCHAR 33A4
ENCODING 10024
SWIDTH 2400 0
DWIDTH 24 0
BBX 20 19 2 -1
BITMAP
0000E0
000090
000020
000020
000010
000090
000060
1C6EE0
223320
432220
402220
802220
802220
802220
C02220
412220
622220
327370
0C0000
ENDCHAR
STARTCHAR 33A5
ENCODING 10025
SWIDTH 2400 0
DWIDTH 24 0
BBX 16 18 5 0
BITMAP
000F
0001
0006
0001
0009
000A
0004
0E38
51CC
6184
4104
4104
4104
4104
4104
4104
4104
E38E
ENDCHAR
STARTCHAR 33A6
ENCODING 10026
SWIDTH 2400 0
DWIDTH 24 0
BBX 20 18 2 0
BITMAP
0000E0
C00090
400020
400020
400010
400090
400060
473660
441BA0
481220
481220
581220
6C1220
4C1220
441220
461220
421220
C7B260
ENDCHAR
STARTCHAR 3399
ENCODING 10027
SWIDTH 2400 0
DWIDTH 24 0
BBX 17 17 3 0
BITMAP
180000
380000
400000
400000
400000
400000
FB3380
414C80
418880
410880
410880
410880
410880
410880
410880
410880
E39980
ENDCHAR
STARTCHAR 339A
ENCODING 10028
SWIDTH 2400 0
DWIDTH 24 0
BBX 21 11 1 0
BITMAP
4F3330
709CC8
409088
409088
409088
409088
409088
409088
409088
409088
E1F9D8
ENDCHAR
STARTCHAR 339B
ENCODING 10029
SWIDTH 2400 0
DWIDTH 24 0
BBX 23 15 0 -4
BITMAP
0416EC
0C3332
0C2222
086222
186222
104222
10C222
10C222
108222
109222
29F776
260000
600000
400000
C00000
ENDCHAR
STARTCHAR 339C
ENCODING 10030
SWIDTH 2400 0
DWIDTH 24 0
BBX 22 11 1 0
BITMAP
D98D90
6A86E8
448488
448488
448488
448488
448488
448488
448488
448488
6DCDDC
ENDCHAR
STARTCHAR 339D
ENCODING 10031
SWIDTH 2400 0
DWIDTH 24 0
BBX 22 12 1 -1
BITMAP
1E3330
611DC8
411108
C11108
801108
801108
801108
801108
C01108
411108
323B9C
0C0000
ENDCHAR
STARTCHAR 339E
ENCODING 10032
SWIDTH 2400 0
DWIDTH 24 0
BBX 21 16 2 0
BITMAP
C00000
400000
400000
400000
400000
406660
423990
442110
482110
582110
682110
4C2110
442110
462110
422110
E773B8
ENDCHAR
STARTCHAR 339F
ENCODING 10033
SWIDTH 2400 0
DWIDTH 24 0
BBX 21 18 1 0
BITMAP
000070
000048
000018
000020
000040
000078
000000
D99B30
664CD0
444890
444890
444890
444890
444890
444890
444890
444890
6EDDF8
ENDCHAR
STARTCHAR 33A0
ENCODING 10034
SWIDTH 2400 0
DWIDTH 24 0
BBX 20 19 2 -1
BITMAP
0000F0
000090
000020
000040
000080
000110
0000E0
1E6EE0
213320
432220
402220
C02220
C02220
C02220
402220
402220
612220
326220
0C0000
ENDCHAR
STARTCHAR 33A1
ENCODING 10035
SWIDTH 2400 0
DWIDTH 24 0
BBX 16 18 5 0
BITMAP
000E
0009
0002
0004
0008
0011
000E
CE38
71CC
6184
4104
4104
4104
4104
4104
4104
4104
E38E
ENDCHAR
STARTCHAR 33A2
ENCODING 10036
SWIDTH 2400 0
DWIDTH 24 0
BBX 19 18 3 0
BITMAP
0001C0
000120
800060
800080
800120
8001E0
800000
8ED9C0
846640
884440
904440
B04440
D84440
984440
884440
8C4440
844440
8EE4E0
ENDCHAR
STARTCHAR 33CA
ENCODING 10037
SWIDTH 2400 0
DWIDTH 24 0
BBX 23 16 0 0
BITMAP
E00000
200000
200000
200000
200000
2000F0
270318
38C208
204308
204038
2040C8
204308
204208
204208
204218
F9F3EE
ENDCHAR
STARTCHAR 338D
ENCODING 10038
SWIDTH 2400 0
DWIDTH 24 0
BBX 24 16 0 -5
BITMAP
020063
06099F
041908
0C190C
08310C
183198
1820F0
106100
104200
104300
30D9FC
2F3106
600202
400202
C00306
0000F8
ENDCHAR
STARTCHAR 338E
ENCODING 10039
SWIDTH 2400 0
DWIDTH 24 0
BBX 23 16 1 -5
BITMAP
0CC1CE
772236
442610
442610
442610
442330
4423C0
442400
442400
442700
E423F8
00040C
000804
000C04
000408
0003F0
ENDCHAR
STARTCHAR 338F
ENCODING 10040
SWIDTH 2400 0
DWIDTH 24 0
BBX 23 21 1 -5
BITMAP
C00000
400000
400000
400000
400000
40018C
40027E
438410
420410
440430
480620
7C03C0
460400
420800
430C00
4187F0
A0041C
00080C
00080C
000C18
0003E0
ENDCHAR
STARTCHAR 33CF
ENCODING 10041
SWIDTH 2400 0
DWIDTH 24 0
BBX 19 17 2 -1
BITMAP
600000
200000
200000
200000
200200
200200
2007C0
21C200
210200
220200
260200
2A0200
310200
218200
208220
2041C0
F9F000
ENDCHAR
STARTCHAR 3388
ENCODING 10042
SWIDTH 2400 0
DWIDTH 24 0
BBX 23 17 0 -1
BITMAP
00000C
000004
000004
000004
000004
1E0F04
211184
419884
411084
C00784
C01884
C02084
C02084
402084
612084
321FAE
0C0040
ENDCHAR
STARTCHAR 3389
ENCODING 10043
SWIDTH 2400 0
DWIDTH 24 0
BBX 24 17 0 -1
BITMAP
600002
600002
600002
600002
600002
6038E2
634922
624F32
64C032
6C8032
7C80F2
648132
668232
62C232
624232
E7EBDF
001000
ENDCHAR
STARTCHAR 33C8
ENCODING 10044
SWIDTH 2400 0
DWIDTH 24 0
BBX 24 17 0 -1
BITMAP
0083F8
008204
008206
008206
008206
008206
3C820C
4283F8
418204
808202
808201
808201
808201
808203
418206
36863C
0801C0
ENDCHAR
STARTCHAR 33A7
ENCODING 10045
SWIDTH 2400 0
DWIDTH 24 0
BBX 22 21 1 -4
BITMAP
DDC000
664004
444008
444010
444020
444040
444080
444300
444400
444900
0012F0
002410
004400
008600
0103E0
020070
040018
080408
100610
200310
4000E0
ENDCHAR
STARTCHAR 33A8
ENCODING 10046
SWIDTH 2400 0
DWIDTH 24 0
BBX 22 21 1 -4
BITMAP
DD8000
664004
444008
444010
444020
444040
444080
44410C
444214
444C04
0013C8
002448
004450
00841C
010700
0201C0
040060
080820
100420
200640
400180
ENDCHAR
STARTCHAR 33B0
ENCODING 10047
SWIDTH 2400 0
DWIDTH 24 0
BBX 19 15 3 -4
BITMAP
DE0F40
6310C0
611040
409800
408E00
408780
4081C0
408040
409060
611040
520C40
4C0380
400000
400000
600000
ENDCHAR
STARTCHAR 33B1
ENCODING 10048
SWIDTH 2400 0
DWIDTH 24 0
BBX 18 12 3 -1
BITMAP
CE0F00
5310C0
611040
411000
411800
410F00
4103C0
4100C0
410040
411040
411C40
000380
ENDCHAR
STARTCHAR 33B2
ENCODING 10049
SWIDTH 2400 0
DWIDTH 24 0
BBX 22 15 1 -4
BITMAP
0209E0
061B18
041A08
0C1300
0C3380
0831F0
182038
10600C
104204
104308
2CF9C8
230030
600000
400000
C00000
ENDCHAR
STARTCHAR 33B3
ENCODING 10050
SWIDTH 2400 0
DWIDTH 24 0
BBX 21 11 2 0
BITMAP
0CC3E0
772430
442410
442600
442300
4421E0
442070
442018
442408
442610
E463F0
ENDCHAR
STARTCHAR 33B4
ENCODING 10051
SWIDTH 2400 0
DWIDTH 24 0
BBX 22 22 1 -5
BITMAP
00783C
003018
003010
001010
001810
001820
CE0820
718C20
608C40
404440
404640
404240
404280
404380
404180
608100
7B8100
4E0000
400000
400000
400000
E00000
ENDCHAR
STARTCHAR 33B5
ENCODING 10052
SWIDTH 2400 0
DWIDTH 24 0
BBX 21 16 1 0
BITMAP
007818
003010
001010
001010
001820
4F0820
708820
408C20
408440
408440
408640
408280
408380
408180
408100
E1C100
ENDCHAR
STARTCHAR 33B6
ENCODING 10053
SWIDTH 2400 0
DWIDTH 24 0
BBX 23 20 0 -4
BITMAP
001E06
000C04
000404
000404
000608
020A08
061A08
0C1B10
0C3110
183110
1821A0
1060A0
1040A0
1040C0
30C840
2D7040
620000
400000
C00000
C00000
ENDCHAR
STARTCHAR 33B7
ENCODING 10054
SWIDTH 2400 0
DWIDTH 24 0
BBX 23 16 1 0
BITMAP
007C1E
001808
001808
000808
000C10
DDCC10
664410
444620
444620
444220
444340
444140
444140
444180
444080
EEC080
ENDCHAR
STARTCHAR 33B8
ENCODING 10055
SWIDTH 2400 0
DWIDTH 24 0
BBX 22 17 1 0
BITMAP
600000
203C1C
201808
200810
200810
200C10
200420
21C420
210620
220620
240240
2A0240
330340
210180
208180
20C180
F9F000
ENDCHAR
STARTCHAR 33B9
ENCODING 10056
SWIDTH 2400 0
DWIDTH 24 0
BBX 23 16 0 0
BITMAP
E06386
606104
606104
70A184
50A184
50A088
50A088
5920C8
4920C8
492050
4F2050
462070
462070
462020
462020
E0F020
ENDCHAR
STARTCHAR 3380
ENCODING 10057
SWIDTH 2400 0
DWIDTH 24 0
BBX 20 20 2 -4
BITMAP
000200
000200
000300
000500
000500
CE0580
730980
618880
408880
4090C0
409FC0
409040
409040
40A060
612060
5E7070
400000
400000
400000
600000
ENDCHAR
STARTCHAR 3381
ENCODING 10058
SWIDTH 2400 0
DWIDTH 24 0
BBX 22 16 1 0
BITMAP
000080
0000C0
0000C0
000140
000140
C70160
598260
608220
408220
408230
4087F0
408410
408418
408818
408818
60DE1C
ENDCHAR
STARTCHAR 3382
ENCODING 10059
SWIDTH 2400 0
DWIDTH 24 0
BBX 23 20 0 -4
BITMAP
000020
000020
000060
000060
0000B0
020890
061890
0C1118
0C3118
083108
1861F8
10620C
10420C
104204
10CC04
397606
260000
600000
400000
C00000
ENDCHAR
STARTCHAR 3383
ENCODING 10060
SWIDTH 2400 0
DWIDTH 24 0
BBX 22 16 1 0
BITMAP
000080
000080
0000C0
0001C0
000140
D98160
6A8260
4C8220
488220
488430
4887F0
488410
488410
488818
488818
7DDE3C
ENDCHAR
STARTCHAR 3384
ENCODING 10061
SWIDTH 2400 0
DWIDTH 24 0
BBX 23 16 1 0
BITMAP
4000C0
4000C0
4000C0
400140
400160
400160
438220
420230
440230
480410
5C07F0
640418
460818
420808
41080C
E3DE1E
ENDCHAR
STARTCHAR 33BA
ENCODING 10062
SWIDTH 2400 0
DWIDTH 24 0
BBX 23 21 1 -5
BITMAP
03CF9E
018204
008304
008308
00C308
00C388
BE4588
C16488
80E490
80A4D0
80A8D0
80B850
80B870
809860
C11820
F71020
9C0020
800000
800000
800000
C00000
ENDCHAR
STARTCHAR 33BB
ENCODING 10063
SWIDTH 2400 0
DWIDTH 24 0
BBX 23 16 0 0
BITMAP
00E386
006184
006184
006184
0021C4
C73244
59B244
609268
409A68
409A28
409A28
408C38
408C38
408C10
408410
E1C410
ENDCHAR
STARTCHAR 33BC
ENCODING 10064
SWIDTH 2400 0
DWIDTH 24 0
BBX 24 20 0 -4
BITMAP
007DEF
0018C2
0018C4
0008C4
0008C4
0218E4
043D64
0C2D24
0C6528
186528
18C538
10C738
108618
108218
210210
32E210
6C0000
400000
C00000
C00000
ENDCHAR
STARTCHAR 33BD
ENCODING 10065
SWIDTH 2400 0
DWIDTH 24 0
BBX 22 16 1 0
BITMAP
00738C
003188
003188
003188
001188
DB1288
6C92D0
489AD0
489A50
488A50
488A50
488C60
488C60
488C60
488420
FDC420
ENDCHAR
STARTCHAR 33BE
ENCODING 10066
SWIDTH 2400 0
DWIDTH 24 0
BBX 22 16 1 0
BITMAP
40738C
403188
403188
403188
403288
401288
4392D0
421AD0
441AD0
480A50
580C50
6C0C60
460C60
420C60
430420
E3C420
ENDCHAR
STARTCHAR 33BF
ENCODING 10067
SWIDTH 2400 0
DWIDTH 24 0
BBX 24 16 0 0
BITMAP
E06663
606622
606622
706632
50A232
50A234
50A254
59A354
492394
492394
492398
4E2198
462198
462108
462108
E0F100
ENDCHAR
STARTCHAR 3390
ENCODING 10068
SWIDTH 2400 0
DWIDTH 24 0
BBX 23 16 1 0
BITMAP
E07000
402000
402000
402000
402000
402000
4023FC
7FE218
402430
402020
402060
4020C0
402182
402304
40260C
E077F8
ENDCHAR
STARTCHAR 3391
ENCODING 10069
SWIDTH 2400 0
DWIDTH 24 0
BBX 23 16 1 0
BITMAP
C0E700
404200
404200
404200
404200
40427E
4742C4
447E8C
484208
504218
584210
784230
4C4222
4C4262
444244
CEE7FC
ENDCHAR
STARTCHAR 3392
ENCODING 10070
SWIDTH 2400 0
DWIDTH 24 0
BBX 24 16 0 0
BITMAP
61B180
619180
639180
639180
739180
739180
55919F
559FA6
5591A6
55918C
5D918C
599198
599190
4991B1
4991A2
EBFBBE
ENDCHAR
STARTCHAR 3393
ENCODING 10071
SWIDTH 2400 0
DWIDTH 24 0
BBX 24 17 0 -1
BITMAP
7C2100
C42100
822100
822100
802100
80213F
802162
803F46
802104
87210C
822108
822118
822110
822131
862122
68217E
100000
ENDCHAR
STARTCHAR 3394
ENCODING 10072
SWIDTH 2400 0
DWIDTH 24 0
BBX 24 16 0 0
BITMAP
FDC380
928100
108100
108100
108100
10813F
108162
10FF46
108104
10810C
108108
108118
108111
108121
108122
31C3FE
ENDCHAR
STARTCHAR 2126
ENCODING 10073
SWIDTH 2400 0
DWIDTH 24 0
BBX 16 17 4 0
BITMAP
03E0
0C18
100E
2006
4003
4003
4003
4003
4003
2002
3006
1818
0670
8241
8241
8241
FE7F
ENDCHAR
STARTCHAR 33C0
ENCODING 10074
SWIDTH 2400 0
DWIDTH 24 0
BBX 23 17 1 0
BITMAP
0000C0
800730
800808
801804
801006
801002
803002
87B002
821006
841804
88080C
9C0610
A40160
C60140
832144
812144
C3DF3C
ENDCHAR
STARTCHAR 33C1
ENCODING 10075
SWIDTH 2400 0
DWIDTH 24 0
BBX 24 17 0 0
BITMAP
0000F8
E0630C
606402
606402
706801
50A801
50A801
50A801
59A801
492403
492602
49218C
4E2050
462451
462451
462451
E077DF
ENDCHAR
STARTCHAR 338A
ENCODING 10076
SWIDTH 2400 0
DWIDTH 24 0
BBX 20 20 2 -4
BITMAP
001FF0
000810
000810
000800
000800
DF0800
618840
40CFC0
404840
404840
404800
404800
404800
408800
608800
5B0800
441000
400000
400000
E00000
ENDCHAR
STARTCHAR 338B
ENCODING 10077
SWIDTH 2400 0
DWIDTH 24 0
BBX 20 16 2 0
BITMAP
001FF0
000810
000800
000800
000800
5E0800
610840
410FC0
410840
410800
410800
410800
410800
410800
410800
E3BC00
ENDCHAR
STARTCHAR 338C
ENCODING 10078
SWIDTH 2400 0
DWIDTH 24 0
BBX 22 20 1 -4
BITMAP
0007FC
000204
000200
000200
000200
040200
0C1210
0C33F0
183210
186200
106200
304200
20C200
208200
209200
5BE700
440000
C00000
C00000
800000
ENDCHAR
STARTCHAR 33D6
ENCODING 10079
SWIDTH 2400 0
DWIDTH 24 0
BBX 23 17 0 -1
BITMAP
000006
000002
000002
000002
000002
DDC382
664C62
444822
445012
445012
445012
445012
445012
445012
445822
EEEC62
000780
ENDCHAR
STARTCHAR 33C5
ENCODING 10080
SWIDTH 2400 0
DWIDTH 24 0
BBX 22 17 1 -1
BITMAP
000008
000008
000008
000008
000008
1E0008
2101C8
418228
410418
C00808
800808
800808
800808
C00808
410418
22022C
1C01C0
ENDCHAR
STARTCHAR 33AD
ENCODING 10081
SWIDTH 2400 0
DWIDTH 24 0
BBX 24 16 0 0
BITMAP
000006
000002
000002
000002
000002
047802
7E8432
62C44A
600486
603C82
604482
608482
608482
6084C6
608C46
F0F63B
ENDCHAR
STARTCHAR 33AE
ENCODING 10082
SWIDTH 2400 0
DWIDTH 24 0
BBX 22 21 1 -4
BITMAP
000100
000100
000100
DB8100
6A5F00
41E100
476100
4E6100
5C6100
4FD300
000D0C
000030
000040
0001B0
00064C
001840
006030
01800C
060004
180064
600018
ENDCHAR
STARTCHAR 33AF
ENCODING 10083
SWIDTH 2400 0
DWIDTH 24 0
BBX 22 21 1 -4
BITMAP
000100
000100
000100
DB8100
6A5F00
40E100
476100
4E6100
5C6100
4FD304
000D18
000060
00018C
0006C4
001928
006114
0180C8
060020
180120
6000A0
000040
ENDCHAR
STARTCHAR 33DB
ENCODING 10084
SWIDTH 2400 0
DWIDTH 24 0
BBX 17 11 3 0
BITMAP
7E3180
821780
801800
C01000
601000
3C1000
061000
031000
811000
C21000
7C3800
ENDCHAR
STARTCHAR 33A9
ENCODING 10085
SWIDTH 2400 0
DWIDTH 24 0
BBX 20 17 2 -1
BITMAP
7E0000
410000
408000
408000
408000
408F00
4090C0
419840
431840
7C0040
4007C0
401840
401040
403040
403040
E01BF0
000400
ENDCHAR
STARTCHAR 33AA
ENCODING 10086
SWIDTH 2400 0
DWIDTH 24 0
BBX 23 16 1 0
BITMAP
C07C00
C04200
C04200
C04200
C04300
C04270
CE4288
C4428C
C8460C
D0781C
F0406C
D8408C
C8418C
CC410C
C4418C
CEE1FE
ENDCHAR
STARTCHAR 33AB
ENCODING 10087
SWIDTH 2400 0
DWIDTH 24 0
BBX 24 17 0 -1
BITMAP
E3BE00
631100
631180
631080
631080
7510B8
7510C4
7511E2
551102
551E0E
551032
591042
5910C2
4910C2
4910C6
49307B
EB8000
ENDCHAR
STARTCHAR 33AC
ENCODING 10088
SWIDTH 2400 0
DWIDTH 24 0
BBX 24 17 0 0
BITMAP
300000
6E7C00
426300
826100
826180
806180
8061B8
8061C4
8061C6
806306
87660E
827836
826046
C26086
C26086
466086
7E60FB
ENDCHAR
STARTCHAR 33DD
ENCODING 10089
SWIDTH 2400 0
DWIDTH 24 0
BBX 22 16 1 0
BITMAP
EF3200
462200
622200
622200
624200
674200
274270
274388
294208
398204
398204
398204
118204
118204
110308
1006F0
ENDCHAR
STARTCHAR 33D0
ENCODING 10090
SWIDTH 2400 0
DWIDTH 24 0
BBX 16 16 4 0
BITMAP
4000
C000
4000
4000
4000
4066
43B9
4221
4221
4221
4221
4221
4221
4221
4221
E733
ENDCHAR
STARTCHAR 33D3
ENCODING 10091
SWIDTH 2400 0
DWIDTH 24 0
BBX 17 16 4 0
BITMAP
400000
C00000
400000
400000
400000
400000
430200
418400
40C800
405000
407000
403000
405800
408C00
410600
EF0780
ENDCHAR
STARTCHAR 33C3
ENCODING 10092
SWIDTH 2400 0
DWIDTH 24 0
BBX 22 20 1 -4
BITMAP
7F0000
40C000
40C000
404000
404000
40C1CC
408338
430608
7D8408
404408
402408
402C08
402408
406608
40C618
FF83E8
000008
000008
000008
000008
ENDCHAR
STARTCHAR 33C9
ENCODING 10093
SWIDTH 2400 0
DWIDTH 24 0
BBX 20 22 2 -5
BITMAP
180000
660000
430000
810000
810000
810000
800000
803830
801820
800820
838C40
810C40
810440
810680
410280
430300
350300
080200
000200
000200
001C00
001800
ENDCHAR
STARTCHAR 33DC
ENCODING 10094
SWIDTH 2400 0
DWIDTH 24 0
BBX 23 17 1 0
BITMAP
3F0000
418000
808000
804000
800000
800000
E03E3E
7C1808
0F8C08
01C410
006610
006220
006320
006340
8061C0
60C180
5F0080
ENDCHAR
STARTCHAR 33C6
ENCODING 10095
SWIDTH 2400 0
DWIDTH 24 0
BBX 23 20 1 -3
BITMAP
3C0000
620400
410800
811000
801000
802000
804000
818000
428000
7D0000
024000
044C20
0448DE
08508C
10788C
204878
2044C0
4000FC
800184
0000D8
ENDCHAR
STARTCHAR 00C6
ENCODING 10273
SWIDTH 2400 0
DWIDTH 24 0
BBX 23 16 0 0
BITMAP
007FF8
00281C
006804
004802
008820
008820
010860
020FE0
020860
07F820
080820
080802
100802
100804
30081C
FC7FF8
ENDCHAR
STARTCHAR 00D0
ENCODING 10274
SWIDTH 2400 0
DWIDTH 24 0
BBX 16 16 3 0
BITMAP
7FE0
0C18
0804
0802
0802
0801
0801
FF81
0801
0801
0801
0802
0802
0804
0818
7FE0
ENDCHAR
STARTCHAR 00AA
ENCODING 10275
SWIDTH 2400 0
DWIDTH 24 0
BBX 12 17 6 0
BITMAP
0F00
38C0
3040
0040
0040
03C0
1CC0
20C0
40C0
40C0
40C0
21C0
1E60
0000
0000
0000
FFF0
ENDCHAR
STARTCHAR 0126
ENCODING 10276
SWIDTH 2400 0
DWIDTH 24 0
BBX 17 16 4 0
BITMAP
FE3F80
100400
FFFF80
100400
100400
100400
100400
1FFC00
100400
100400
100400
100400
100400
100400
300400
FE3F80
ENDCHAR
STARTCHAR 0132
ENCODING 10278
SWIDTH 2400 0
DWIDTH 24 0
BBX 16 17 4 -1
BITMAP
FE7F
100C
1008
1008
1008
1008
1008
1008
1008
1008
1008
1008
1008
1008
1990
FDD0
01E0
ENDCHAR
STARTCHAR 013F
ENCODING 10280
SWIDTH 2400 0
DWIDTH 24 0
BBX 14 16 5 0
BITMAP
7C00
1000
1000
1000
1000
1000
1040
1040
1040
1000
1000
1000
1004
1008
1018
FFF0
ENDCHAR
STARTCHAR 0141
ENCODING 10281
SWIDTH 2400 0
DWIDTH 24 0
BBX 15 16 4 0
BITMAP
3E00
0800
0880
0900
0A00
0C00
0800
0800
1800
2800
4800
8800
0802
0804
081C
7FF8
ENDCHAR
STARTCHAR 00D8
ENCODING 10282
SWIDTH 2400 0
DWIDTH 24 0
BBX 18 18 3 -1
BITMAP
03F080
0C1D80
100700
200200
400500
400980
C01080
C020C0
C040C0
C080C0
C10080
C20080
640080
680100
300100
380600
461800
81E000
ENDCHAR
STARTCHAR 0152
ENCODING 10283
SWIDTH 2400 0
DWIDTH 24 0
BBX 22 18 1 -1
BITMAP
078000
1C7FF0
301018
201008
401000
401000
801040
8010C0
801FC0
8010C0
801040
801040
C01000
401004
60100C
301018
0E7FF8
018000
ENDCHAR
STARTCHAR 00BA
ENCODING 10284
SWIDTH 2400 0
DWIDTH 24 0
BBX 10 17 7 0
BITMAP
1E00
6180
4080
8040
8040
8040
8040
8040
8040
8040
4080
6180
1E00
0000
0000
0000
FFC0
ENDCHAR
STARTCHAR 00DE
ENCODING 10285
SWIDTH 2400 0
DWIDTH 24 0
BBX 14 16 5 0
BITMAP
FC00
3000
1000
1FE0
1018
100C
1004
1004
1004
1004
1018
1FF0
1000
1000
1000
FE00
ENDCHAR
STARTCHAR 0166
ENCODING 10286
SWIDTH 2400 0
DWIDTH 24 0
BBX 17 16 3 0
BITMAP
3FFE00
708700
408100
808100
808080
008000
008000
008000
0FF800
008000
008000
008000
008000
008000
008000
07F000
ENDCHAR
STARTCHAR 014A
ENCODING 10287
SWIDTH 2400 0
DWIDTH 24 0
BBX 13 18 5 -1
BITMAP
00C0
E730
6810
3008
2008
2008
2008
2008
2008
2008
2008
2008
2008
2188
2388
2108
F990
0060
ENDCHAR
STARTCHAR 3260
ENCODING 10289
SWIDTH 2400 0
DWIDTH 24 0
BBX 22 21 1 -3
BITMAP
00FC00
070380
0C00C0
100020
200010
400018
400088
8FFF8C
830084
800084
800084
800084
800084
80008C
400088
400098
200090
1000A0
0C00C0
070380
00FC00
ENDCHAR
STARTCHAR 3261
ENCODING 10290
SWIDTH 2400 0
DWIDTH 24 0
BBX 22 22 1 -4
BITMAP
00FC00
070380
0C00C0
100020
200010
600010
400008
460008
820004
820004
820004
820004
820004
820004
420188
43FFC8
600018
200010
100020
0C00C0
070380
00FC00
ENDCHAR
STARTCHAR 3262
ENCODING 10291
SWIDTH 2400 0
DWIDTH 24 0
BBX 22 22 1 -4
BITMAP
00FC00
070380
0C00C0
100020
200010
600010
4C0308
47FF08
820004
820004
820004
820004
820004
820004
420008
43FF88
600018
200010
100020
0C00C0
070380
00FC00
ENDCHAR
STARTCHAR 3263
ENCODING 10292
SWIDTH 2400 0
DWIDTH 24 0
BBX 22 22 1 -4
BITMAP
00FC00
070380
0C00C0
100020
200010
600010
47FF08
400308
800204
800204
87FF04
820004
820004
820004
420108
43FF88
600010
200010
100020
0C00C0
070380
00FC00
ENDCHAR
STARTCHAR 3264
ENCODING 10293
SWIDTH 2400 0
DWIDTH 24 0
BBX 22 21 1 -4
BITMAP
00FC00
070380
0C00C0
100020
200010
4C0018
47FF88
82030C
820304
820304
820304
820204
820204
83FF04
420008
400018
200010
100020
0C00C0
070380
00FC00
ENDCHAR
STARTCHAR 3265
ENCODING 10294
SWIDTH 2400 0
DWIDTH 24 0
BBX 22 22 1 -4
BITMAP
00FC00
070380
0C00C0
100020
200010
600710
430108
410108
810104
81FF04
810104
810104
810104
810104
41FF08
410108
600018
200010
100020
0C00C0
070380
00FC00
ENDCHAR
STARTCHAR 3266
ENCODING 10295
SWIDTH 2400 0
DWIDTH 24 0
BBX 22 21 1 -4
BITMAP
00FC00
070380
0C00C0
100020
203010
401818
401808
80300C
803004
806804
80C604
818384
830184
8400C4
580008
400018
200010
100020
0C00C0
070380
00FC00
ENDCHAR
STARTCHAR 3267
ENCODING 10296
SWIDTH 2400 0
DWIDTH 24 0
BBX 22 22 1 -4
BITMAP
00FC00
070380
0C00C0
100020
200010
603010
40FC08
438308
830184
860084
860084
860084
860084
830104
438308
40FC08
600018
200010
100020
0C00C0
070380
00FC00
ENDCHAR
STARTCHAR 3268
ENCODING 10297
SWIDTH 2400 0
DWIDTH 24 0
BBX 22 22 1 -4
BITMAP
00FC00
070380
0C00C0
100020
200010
600190
47FF88
438108
800304
800604
800C04
801804
803404
806304
418188
4E00C8
600018
200010
100020
0C00C0
070380
00FC00
ENDCHAR
STARTCHAR 3269
ENCODING 10298
SWIDTH 2400 0
DWIDTH 24 0
BBX 22 22 1 -4
BITMAP
00FC00
070380
0C00C0
100020
20C010
607C10
400008
400308
87FF84
830304
800604
800C04
801004
806C04
40C388
4301C8
640050
200010
100020
0C00C0
070380
00FC00
ENDCHAR
STARTCHAR 326A
ENCODING 10299
SWIDTH 2400 0
DWIDTH 24 0
BBX 22 22 1 -4
BITMAP
00FC00
070380
0C00C0
100020
200010
600010
4001C8
47FFC8
810084
800084
800084
800F84
87F104
820104
400308
400208
600218
200410
100820
0C00C0
070380
00FC00
ENDCHAR
STARTCHAR 326B
ENCODING 10300
SWIDTH 2400 0
DWIDTH 24 0
BBX 22 22 1 -4
BITMAP
00FC00
070380
0C00C0
100020
200010
6C0710
43FF08
420008
820004
820004
83FF04
820004
820004
820004
420008
43FFC8
600018
200010
100020
0C00C0
070380
00FC00
ENDCHAR
STARTCHAR 326C
ENCODING 10301
SWIDTH 2400 0
DWIDTH 24 0
BBX 22 22 1 -4
BITMAP
00FC00
070380
0C00C0
100020
200010
600190
47FFC8
420C08
810604
818404
808404
80C404
808804
8008C4
503FE8
4FC008
600018
200010
100020
0C00C0
070380
00FC00
ENDCHAR
STARTCHAR 326D
ENCODING 10302
SWIDTH 2400 0
DWIDTH 24 0
BBX 22 22 1 -4
BITMAP
00FC00
070380
0C00C0
100020
200010
607C10
400008
4000C8
800FE4
8FF004
807804
808404
810204
810204
410208
410208
608418
207810
100020
0C00C0
070380
00FC00
ENDCHAR
STARTCHAR 326E
ENCODING 10303
SWIDTH 2400 0
DWIDTH 24 0
BBX 22 21 1 -4
BITMAP
00FC00
070380
0C06C0
100120
200110
400118
4FF108
80310C
806104
804124
8081F4
818104
820104
8C0104
400108
400118
200110
100120
0C00C0
070380
00FC00
ENDCHAR
STARTCHAR 326F
ENCODING 10304
SWIDTH 2400 0
DWIDTH 24 0
BBX 22 22 1 -4
BITMAP
00FC00
070380
0C00C0
100620
200110
600110
400108
4C0108
840104
840104
840124
8401F4
841904
85E104
470108
400108
600118
200110
100120
0C00C0
070380
00FC00
ENDCHAR
STARTCHAR 3270
ENCODING 10305
SWIDTH 2400 0
DWIDTH 24 0
BBX 22 22 1 -4
BITMAP
00FC00
070380
0C00C0
100620
200110
600110
407108
5FF108
840104
840104
840124
8401F4
840104
843904
47C108
400108
600118
200110
100120
0C00C0
070380
00FC00
ENDCHAR
STARTCHAR 3271
ENCODING 10306
SWIDTH 2400 0
DWIDTH 24 0
BBX 22 22 1 -4
BITMAP
00FC00
070380
0C00C0
100620
200310
600110
4FF108
442108
802104
802104
8FE104
8401F4
840104
840504
44F908
478108
600118
200110
100120
0C00C0
070380
00FC00
ENDCHAR
STARTCHAR 3272
ENCODING 10307
SWIDTH 2400 0
DWIDTH 24 0
BBX 22 22 1 -4
BITMAP
00FC00
070380
0C00C0
100620
200310
600110
402108
4FF108
841104
841104
843104
8421F4
842104
87F104
440108
400108
600118
200110
100120
0C00C0
070380
00FC00
ENDCHAR
STARTCHAR 3273
ENCODING 10308
SWIDTH 2400 0
DWIDTH 24 0
BBX 22 22 1 -4
BITMAP
00FC00
070380
0C00C0
100620
200110
60E110
586108
486108
886104
8FE104
882124
8821F4
882104
882104
4FE108
482108
600118
200110
100120
0C00C0
070380
00FC00
ENDCHAR
STARTCHAR 3274
ENCODING 10309
SWIDTH 2400 0
DWIDTH 24 0
BBX 22 22 1 -4
BITMAP
00FC00
070380
0C00C0
100620
200110
600110
40C108
40C108
80C104
818104
818124
8261F4
863104
881104
500108
400108
600118
200110
100120
0C00C0
070380
00FC00
ENDCHAR
STARTCHAR 3275
ENCODING 10310
SWIDTH 2400 0
DWIDTH 24 0
BBX 22 22 1 -4
BITMAP
00FC00
070380
0C00C0
100620
200310
600110
430108
478108
886104
906104
902104
9021F4
906104
886104
47C108
400108
600118
200110
100120
0C00C0
070380
00FC00
ENDCHAR
STARTCHAR 3276
ENCODING 10311
SWIDTH 2400 0
DWIDTH 24 0
BBX 22 22 1 -4
BITMAP
00FC00
070380
0C00C0
100420
200310
600110
400108
4FF108
806104
804104
808104
81C1F4
833104
841104
480108
400108
600118
200110
100120
0C00C0
070380
00FC00
ENDCHAR
STARTCHAR 3277
ENCODING 10312
SWIDTH 2400 0
DWIDTH 24 0
BBX 22 22 1 -4
BITMAP
00FC00
070380
0C00C0
100620
200110
618110
40E108
400108
8FF104
842104
806104
80C1F4
81C104
833104
441108
580108
600118
200110
100120
0C00C0
070380
00FC00
ENDCHAR
STARTCHAR 3278
ENCODING 10313
SWIDTH 2400 0
DWIDTH 24 0
BBX 22 22 1 -4
BITMAP
00FC00
070380
0C00C0
100620
200110
600110
407108
47B108
803104
80E104
8F6124
80C1F4
808104
810104
420108
440108
600118
200110
100120
0C00C0
070380
00FC00
ENDCHAR
STARTCHAR 3279
ENCODING 10314
SWIDTH 2400 0
DWIDTH 24 0
BBX 22 22 1 -4
BITMAP
00FC00
070380
0C00C0
100620
200310
600110
402108
4FE108
840104
840104
87E104
8401F4
840504
843904
47C108
440108
600118
200110
100120
0C00C0
070380
00FC00
ENDCHAR
STARTCHAR 327A
ENCODING 10315
SWIDTH 2400 0
DWIDTH 24 0
BBX 22 22 1 -4
BITMAP
00FC00
070380
0C00C0
100620
200110
600110
40F908
4F0108
802104
841104
823164
822184
822704
81F904
4F0108
400108
600118
200110
100120
0C00C0
070380
00FC00
ENDCHAR
STARTCHAR 327B
ENCODING 10316
SWIDTH 2400 0
DWIDTH 24 0
BBX 22 22 1 -4
BITMAP
00FC00
070380
0C00C0
100620
200110
63C110
400108
401908
9FF904
818104
87C174
8C3184
8C1104
8C1104
4C3108
47E108
600118
200110
100120
0C00C0
070380
00FC00
ENDCHAR
STARTCHAR 24D0
ENCODING 10317
SWIDTH 2400 0
DWIDTH 24 0
BBX 22 22 1 -4
BITMAP
00FC00
070380
0C00C0
100020
200010
600010
40F808
418408
818404
800404
801C04
80E404
818404
810404
410C08
41F708
600018
200010
100020
0C00C0
070380
00FC00
ENDCHAR
STARTCHAR 24D1
ENCODING 10318
SWIDTH 2400 0
DWIDTH 24 0
BBX 22 22 1 -4
BITMAP
00FC00
070380
0C00C0
108020
218010
608010
408008
408008
80BC04
80C604
808304
808104
808104
808104
408108
408108
608218
20EC10
101020
0C00C0
070380
00FC00
ENDCHAR
STARTCHAR 24D2
ENCODING 10319
SWIDTH 2400 0
DWIDTH 24 0
BBX 22 22 1 -4
BITMAP
00FC00
070380
0C00C0
100020
200010
600010
407C08
408608
810404
810004
810004
810004
810004
818004
40C208
407C08
600018
200010
100020
0C00C0
070380
00FC00
ENDCHAR
STARTCHAR 24D3
ENCODING 10320
SWIDTH 2400 0
DWIDTH 24 0
BBX 22 22 1 -4
BITMAP
00FC00
070380
0C00C0
100420
201C10
600410
400408
400408
806404
819C04
810404
820404
820404
820404
420408
420408
610418
20FE10
100020
0C00C0
070380
00FC00
ENDCHAR
STARTCHAR 24D4
ENCODING 10321
SWIDTH 2400 0
DWIDTH 24 0
BBX 22 22 1 -4
BITMAP
00FC00
070380
0C00C0
100020
200010
600010
407808
408408
810204
810204
81FE04
810004
810004
810004
418008
40C608
603818
200010
100020
0C00C0
070380
00FC00
ENDCHAR
STARTCHAR 24D5
ENCODING 10322
SWIDTH 2400 0
DWIDTH 24 0
BBX 22 22 1 -4
BITMAP
00FC00
070380
0C00C0
100020
201E10
602410
402008
402008
802004
80FC04
802004
802004
802004
802004
402008
402008
602018
202010
10F820
0C00C0
070380
00FC00
ENDCHAR
STARTCHAR 24D6
ENCODING 10323
SWIDTH 2400 0
DWIDTH 24 0
BBX 22 22 1 -4
BITMAP
00FC00
070380
0C00C0
100020
207990
60C690
418608
418208
818204
808604
804804
81B004
81E004
807C04
418308
420308
630318
21FC10
100020
0C00C0
070380
00FC00
ENDCHAR
STARTCHAR 24D7
ENCODING 10324
SWIDTH 2400 0
DWIDTH 24 0
BBX 22 22 1 -4
BITMAP
00FC00
070380
0C00C0
100020
218010
608010
408008
408008
808004
80BC04
80C204
808204
808204
808204
408208
408208
608218
208210
104020
0C00C0
070380
00FC00
ENDCHAR
STARTCHAR 24D8
ENCODING 10325
SWIDTH 2400 0
DWIDTH 24 0
BBX 22 22 1 -4
BITMAP
00FC00
070380
0C00C0
103020
203010
600010
400008
400008
803004
803004
801004
801004
801004
801004
401008
401008
601018
203810
100020
0C00C0
070380
00FC00
ENDCHAR
STARTCHAR 24D9
ENCODING 10326
SWIDTH 2400 0
DWIDTH 24 0
BBX 22 22 1 -4
BITMAP
00FC00
070380
0C30C0
103020
200010
600010
400008
403008
803004
801004
801004
801004
801004
801004
401008
401008
601018
201010
10D020
0CE0C0
070380
00FC00
ENDCHAR
STARTCHAR 24DA
ENCODING 10327
SWIDTH 2400 0
DWIDTH 24 0
BBX 22 22 1 -4
BITMAP
00FC00
070380
0C00C0
108020
218010
608010
408008
408008
808F84
808604
808804
809004
80B804
80C804
408C08
408608
608318
21E790
100020
0C00C0
070380
00FC00
ENDCHAR
STARTCHAR 24DB
ENCODING 10328
SWIDTH 2400 0
DWIDTH 24 0
BBX 22 22 1 -4
BITMAP
00FC00
070380
0C00C0
100020
207010
601010
401008
401008
801004
801004
801004
801004
801004
801004
401008
401008
601018
203810
100020
0C00C0
070380
00FC00
ENDCHAR
STARTCHAR 24DC
ENCODING 10329
SWIDTH 2400 0
DWIDTH 24 0
BBX 22 22 1 -4
BITMAP
00FC00
070380
0C00C0
100020
200010
600010
4DE788
4E18C8
841044
841044
841044
841044
841044
841044
441048
4E38E8
600018
200010
100020
0C00C0
070380
00FC00
ENDCHAR
STARTCHAR 24DD
ENCODING 10330
SWIDTH 2400 0
DWIDTH 24 0
BBX 22 22 1 -4
BITMAP
00FC00
070380
0C00C0
100020
200010
600010
433C08
41C608
810204
810204
810204
810204
810204
810204
410208
438708
600018
200010
100020
0C00C0
070380
00FC00
ENDCHAR
STARTCHAR 24DE
ENCODING 10331
SWIDTH 2400 0
DWIDTH 24 0
BBX 22 22 1 -4
BITMAP
00FC00
070380
0C00C0
100020
200010
600010
407808
418608
810204
820104
820104
820104
820104
810204
418608
407808
600018
200010
100020
0C00C0
070380
00FC00
ENDCHAR
STARTCHAR 24DF
ENCODING 10332
SWIDTH 2400 0
DWIDTH 24 0
BBX 22 22 1 -4
BITMAP
00FC00
070380
0C00C0
100020
200010
61BC10
40C208
408108
808104
808104
808104
808104
808204
80C604
40B808
408008
608018
21C010
100020
0C00C0
070380
00FC00
ENDCHAR
STARTCHAR 24E0
ENCODING 10333
SWIDTH 2400 0
DWIDTH 24 0
BBX 22 22 1 -4
BITMAP
00FC00
070380
0C00C0
100020
206010
619C10
410408
420408
820404
820404
820404
820404
810404
808C04
407408
400408
600418
200E10
100020
0C00C0
070380
00FC00
ENDCHAR
STARTCHAR 24E1
ENCODING 10334
SWIDTH 2400 0
DWIDTH 24 0
BBX 22 22 1 -4
BITMAP
00FC00
070380
0C00C0
100020
200010
600010
400208
40EF08
803004
802004
802004
802004
802004
802004
402008
407008
600018
200010
100020
0C00C0
070380
00FC00
ENDCHAR
STARTCHAR 24E2
ENCODING 10335
SWIDTH 2400 0
DWIDTH 24 0
BBX 22 22 1 -4
BITMAP
00FC00
070380
0C00C0
100020
200010
600010
407C08
408608
808204
80C004
807004
801C04
800604
810204
408608
40FC08
600018
200010
100020
0C00C0
070380
00FC00
ENDCHAR
STARTCHAR 24E3
ENCODING 10336
SWIDTH 2400 0
DWIDTH 24 0
BBX 22 22 1 -4
BITMAP
00FC00
070380
0C00C0
100020
202010
602010
402008
40FC08
802004
802004
802004
802004
802004
802004
402008
402208
601C18
200010
100020
0C00C0
070380
00FC00
ENDCHAR
STARTCHAR 24E4
ENCODING 10337
SWIDTH 2400 0
DWIDTH 24 0
BBX 22 22 1 -4
BITMAP
00FC00
070380
0C00C0
100020
200010
600010
400008
430E08
810204
810204
810204
810204
810204
810204
410608
40FB08
600018
200010
100020
0C00C0
070380
00FC00
ENDCHAR
STARTCHAR 24E5
ENCODING 10338
SWIDTH 2400 0
DWIDTH 24 0
BBX 22 22 1 -4
BITMAP
00FC00
070380
0C00C0
100020
200010
600010
43C008
418608
808404
808404
80C404
804804
806804
803004
403008
403008
600018
200010
100020
0C00C0
070380
00FC00
ENDCHAR
STARTCHAR 24E6
ENCODING 10339
SWIDTH 2400 0
DWIDTH 24 0
BBX 22 22 1 -4
BITMAP
00FC00
070380
0C00C0
100020
200010
600010
400008
4E38E8
841044
861884
822884
832904
814D04
814504
418608
408608
608018
200010
100020
0C00C0
070380
00FC00
ENDCHAR
STARTCHAR 24E7
ENCODING 10340
SWIDTH 2400 0
DWIDTH 24 0
BBX 22 22 1 -4
BITMAP
00FC00
070380
0C00C0
100020
200010
600010
43C708
408208
804404
806804
803004
803004
804804
808404
408608
43CF88
600018
200010
100020
0C00C0
070380
00FC00
ENDCHAR
STARTCHAR 24E8
ENCODING 10341
SWIDTH 2400 0
DWIDTH 24 0
BBX 22 22 1 -4
BITMAP
00FC00
070380
0C00C0
100020
200010
61C790
408208
40C208
804404
806404
802404
802804
803804
801004
401008
402008
61A018
21C010
100020
0C00C0
070380
00FC00
ENDCHAR
STARTCHAR 24E9
ENCODING 10342
SWIDTH 2400 0
DWIDTH 24 0
BBX 22 22 1 -4
BITMAP
00FC00
070380
0C00C0
100020
200010
600010
40FE08
408408
810804
801804
801004
802004
804004
80C204
418608
41FC08
600018
200010
100020
0C00C0
070380
00FC00
ENDCHAR
STARTCHAR 2460
ENCODING 10343
SWIDTH 2400 0
DWIDTH 24 0
BBX 22 21 1 -4
BITMAP
00FC00
070380
0C20C0
11E020
202010
402018
402008
802008
802004
802004
802004
802004
802004
80200C
402008
402018
21FC10
100020
0C00C0
070380
00FC00
ENDCHAR
STARTCHAR 2461
ENCODING 10344
SWIDTH 2400 0
DWIDTH 24 0
BBX 22 21 1 -4
BITMAP
00FC00
070380
0C38C0
10C420
218210
418218
418308
800208
800404
800804
801004
802004
804004
80810C
408208
410218
21FE10
100020
0C00C0
070380
00FC00
ENDCHAR
STARTCHAR 2462
ENCODING 10345
SWIDTH 2400 0
DWIDTH 24 0
BBX 22 22 1 -4
BITMAP
00FC00
070380
0C00C0
107820
20C410
608210
418208
400208
800404
800804
803004
800C04
800204
800204
410208
430208
610418
20D810
102020
0C00C0
070380
00FC00
ENDCHAR
STARTCHAR 2463
ENCODING 10346
SWIDTH 2400 0
DWIDTH 24 0
BBX 22 22 1 -4
BITMAP
00FC00
070380
0C00C0
101020
201010
603010
403008
405008
805004
809004
811004
811004
821004
821004
47FE08
401008
601018
203C10
100020
0C00C0
070380
00FC00
ENDCHAR
STARTCHAR 2464
ENCODING 10347
SWIDTH 2400 0
DWIDTH 24 0
BBX 22 22 1 -4
BITMAP
00FC00
030300
0C00C0
100020
21FC20
210010
410008
410008
810004
812004
81D804
810404
800604
800204
C0020C
410208
630618
210410
118820
0C70C0
070380
00FC00
ENDCHAR
STARTCHAR 2465
ENCODING 10348
SWIDTH 2400 0
DWIDTH 24 0
BBX 22 22 1 -4
BITMAP
00FC00
070380
0C00C0
100020
203C10
604610
408608
408008
810004
810004
81FC04
818404
810204
810204
410208
410208
608618
20C410
107820
0C00C0
070380
00FC00
ENDCHAR
STARTCHAR 2466
ENCODING 10349
SWIDTH 2400 0
DWIDTH 24 0
BBX 22 22 1 -4
BITMAP
00FC00
070380
0C00C0
100020
21FF10
610210
410408
420408
800804
800804
801004
801004
803004
802004
406008
406008
606018
206010
104020
0C00C0
070380
00FC00
ENDCHAR
STARTCHAR 2467
ENCODING 10350
SWIDTH 2400 0
DWIDTH 24 0
BBX 22 22 1 -4
BITMAP
00FC00
070380
0C00C0
107820
208610
610210
410208
410208
818404
80E804
807804
80DC04
810604
830304
430308
430308
630218
218610
10FC20
0C00C0
070380
00FC00
ENDCHAR
STARTCHAR 2468
ENCODING 10351
SWIDTH 2400 0
DWIDTH 24 0
BBX 22 22 1 -4
BITMAP
00FC00
070380
0C00C0
107820
208C10
608410
410408
410208
810204
810204
808604
804A04
803204
800204
400408
408408
618818
20F010
100020
0C00C0
070380
00FC00
ENDCHAR
STARTCHAR 2469
ENCODING 10352
SWIDTH 2400 0
DWIDTH 24 0
BBX 22 22 1 -4
BITMAP
00FC00
070380
0C00C0
100020
200010
670390
410448
410448
810824
810824
810824
810824
810824
810824
410448
410448
67C398
200010
100020
0C00C0
070380
00FC00
ENDCHAR
STARTCHAR 246A
ENCODING 10353
SWIDTH 2400 0
DWIDTH 24 0
BBX 22 22 1 -4
BITMAP
00FC00
070380
0C00C0
100020
200010
630710
450108
410108
810104
810104
810104
810104
810104
810104
410108
410108
67C7D8
200010
100020
0C00C0
070380
00FC00
ENDCHAR
STARTCHAR 246B
ENCODING 10354
SWIDTH 2400 0
DWIDTH 24 0
BBX 22 22 1 -4
BITMAP
00FC00
070380
0C00C0
100020
200010
660790
4A0848
420868
820864
820044
8200C4
820104
820204
820404
420408
420828
6F8FF8
200010
100020
0C00C0
070380
00FC00
ENDCHAR
STARTCHAR 246C
ENCODING 10355
SWIDTH 2400 0
DWIDTH 24 0
BBX 22 22 1 -4
BITMAP
00FC00
070380
0C00C0
100020
200010
6607D0
4A0C68
420468
820064
820044
820384
820044
820024
820024
420C28
420C68
6F8798
200010
100020
0C00C0
070380
00FC00
ENDCHAR
STARTCHAR 246D
ENCODING 10356
SWIDTH 2400 0
DWIDTH 24 0
BBX 22 22 1 -4
BITMAP
00FC00
070380
0C00C0
100020
200010
630090
450188
410188
810284
810284
810484
810884
810884
811FE4
410088
410088
67C1D8
200010
100020
0C00C0
070380
00FC00
ENDCHAR
STARTCHAR 246E
ENCODING 10357
SWIDTH 2400 0
DWIDTH 24 0
BBX 22 22 1 -4
BITMAP
00FC00
070380
0C00C0
100020
200010
630FD0
450808
410808
810804
810B04
810C84
810044
810044
810044
411848
410888
67C518
200210
100020
0C00C0
070380
00FC00
ENDCHAR
STARTCHAR 00BD
ENCODING 10358
SWIDTH 2400 0
DWIDTH 24 0
BBX 18 20 3 -3
BITMAP
600000
200080
200100
200200
200400
200800
201000
202000
204000
F84000
008F00
013080
0230C0
042080
080100
100600
200800
401040
402080
803F80
ENDCHAR
STARTCHAR 2153
ENCODING 10359
SWIDTH 2400 0
DWIDTH 24 0
BBX 18 21 3 -4
BITMAP
600000
200080
200100
200200
200400
200800
201000
202000
204000
F84000
008F00
011080
023080
040080
080100
100380
2000C0
4030C0
802080
801180
000E00
ENDCHAR
STARTCHAR 2154
ENCODING 10360
SWIDTH 2400 0
DWIDTH 24 0
BBX 18 21 3 -4
BITMAP
7C0040
820080
C20100
820200
0C0200
100400
200800
401000
822000
FE4000
008780
0118C0
021840
020040
040080
0801C0
100040
201040
401040
0018C0
000700
ENDCHAR
STARTCHAR 00BC
ENCODING 10361
SWIDTH 2400 0
DWIDTH 24 0
BBX 18 20 3 -3
BITMAP
700040
100080
100100
100200
100400
100800
101000
101000
102000
284000
008200
010600
020A00
041200
082200
104200
108200
20FF00
400200
800600
ENDCHAR
STARTCHAR 00BE
ENCODING 10362
SWIDTH 2400 0
DWIDTH 24 0
BBX 18 20 3 -3
BITMAP
7E0040
420040
C20080
020100
1C0200
020400
030800
C31000
C22000
662000
184200
008E00
011200
021200
042200
084200
088200
10FF80
200200
400600
ENDCHAR
STARTCHAR 215B
ENCODING 10363
SWIDTH 2400 0
DWIDTH 24 0
BBX 19 21 3 -4
BITMAP
300000
100080
100100
100200
100400
100800
101000
101000
102000
7C4000
008F00
011040
023040
043040
081C80
100B80
1030C0
202060
402040
8010C0
000F00
ENDCHAR
STARTCHAR 215C
ENCODING 10364
SWIDTH 2400 0
DWIDTH 24 0
BBX 19 21 3 -4
BITMAP
7C0040
C20080
C20080
060100
180200
060400
020800
C31000
822000
444000
388F00
0090C0
012040
023040
041C80
080F80
1030C0
202060
402040
0010C0
000F00
ENDCHAR
STARTCHAR 215D
ENCODING 10365
SWIDTH 2400 0
DWIDTH 24 0
BBX 20 21 2 -4
BITMAP
7F0020
400040
400080
400100
7E0200
010200
010400
C10800
411000
662000
1847C0
009860
011020
021820
040C40
040BC0
081020
101030
201020
000860
000780
ENDCHAR
STARTCHAR 215E
ENCODING 10366
SWIDTH 2400 0
DWIDTH 24 0
BBX 18 21 3 -4
BITMAP
7F0000
410080
820100
040200
040400
0C0800
081000
082000
184000
184000
008F80
011040
022040
041040
081F80
101B80
202040
402040
402040
801080
000F00
ENDCHAR
STARTCHAR 00E6
ENCODING 10529
SWIDTH 2400 0
DWIDTH 24 0
BBX 16 11 4 0
BITMAP
3E3C
6342
E182
4181
01FF
1F00
6100
C100
C181
C2C2
7C7C
ENDCHAR
STARTCHAR 0111
ENCODING 10530
SWIDTH 2400 0
DWIDTH 24 0
BBX 11 17 7 -1
BITMAP
0180
0180
0080
0FE0
0080
0080
3F80
4080
8080
8080
8080
8080
8080
C080
4180
77C0
1800
ENDCHAR
STARTCHAR 00F0
ENCODING 10531
SWIDTH 2400 0
DWIDTH 24 0
BBX 10 17 7 -1
BITMAP
2000
1880
0700
0E00
3300
0100
0180
3F80
40C0
8040
8040
8040
8040
8040
4080
6180
1E00
ENDCHAR
STARTCHAR 0127
ENCODING 10532
SWIDTH 2400 0
DWIDTH 24 0
BBX 11 16 6 0
BITMAP
6000
6000
2000
FE00
2000
2700
2980
3040
2040
2040
2040
2040
2040
2040
2040
70E0
ENDCHAR
STARTCHAR 0131
ENCODING 10533
SWIDTH 2400 0
DWIDTH 24 0
BBX 4 11 10 0
BITMAP
20
E0
20
20
20
20
20
20
20
20
70
ENDCHAR
STARTCHAR 0133
ENCODING 10534
SWIDTH 2400 0
DWIDTH 24 0
BBX 10 19 6 -3
BITMAP
1080
1080
0000
0000
0000
2040
E1C0
2040
2040
2040
2040
2040
2040
2040
2040
7040
0040
0380
0300
ENDCHAR
STARTCHAR 0138
ENCODING 10535
SWIDTH 2400 0
DWIDTH 24 0
BBX 10 10 7 0
BITMAP
E3C0
4100
4600
4800
5C00
6C00
4600
4300
4300
E3C0
ENDCHAR
STARTCHAR 0140
ENCODING 10536
SWIDTH 2400 0
DWIDTH 24 0
BBX 6 16 9 0
BITMAP
C0
C0
40
40
40
40
40
44
44
44
40
40
40
40
40
E0
ENDCHAR
STARTCHAR 0142
ENCODING 10537
SWIDTH 2400 0
DWIDTH 24 0
BBX 8 17 9 0
BITMAP
10
70
10
11
12
14
18
10
10
30
30
50
90
10
10
10
7C
ENDCHAR
STARTCHAR 00F8
ENCODING 10538
SWIDTH 2400 0
DWIDTH 24 0
BBX 12 12 6 0
BITMAP
0400
1B90
2060
40E0
C1B0
C230
C430
C830
D020
6060
70C0
8F80
ENDCHAR
STARTCHAR 0153
ENCODING 10539
SWIDTH 2400 0
DWIDTH 24 0
BBX 17 11 4 0
BITMAP
1E3E00
614100
818100
808080
80FF80
808000
808000
808000
80C000
416100
3E3E00
ENDCHAR
STARTCHAR 00DF
ENCODING 10540
SWIDTH 2400 0
DWIDTH 24 0
BBX 11 18 6 -1
BITMAP
0F00
1080
2040
2040
2040
2040
2040
2080
2180
20E0
2060
2060
2020
2020
2060
2640
F640
0180
ENDCHAR
STARTCHAR 00FE
ENCODING 10541
SWIDTH 2400 0
DWIDTH 24 0
BBX 12 19 6 -3
BITMAP
2000
E000
2000
2000
2000
2300
3CC0
2020
2010
2010
2010
2010
2010
2030
3020
3DC0
2300
2000
7000
ENDCHAR
STARTCHAR 0167
ENCODING 10542
SWIDTH 2400 0
DWIDTH 24 0
BBX 7 16 8 0
BITMAP
20
20
20
60
FE
20
F8
20
20
20
20
20
20
20
22
3C
ENDCHAR
STARTCHAR 014B
ENCODING 10543
SWIDTH 2400 0
DWIDTH 24 0
BBX 11 15 6 -4
BITMAP
2780
F8C0
2060
2020
2020
2020
2020
2020
2020
2020
7020
0220
0620
0220
03C0
ENDCHAR
STARTCHAR 0149
ENCODING 10544
SWIDTH 2400 0
DWIDTH 24 0
BBX 15 14 3 0
BITMAP
3000
3000
2000
4230
8ECC
8304
0204
0204
0204
0204
0204
0204
0204
070E
ENDCHAR
STARTCHAR 3200
ENCODING 10545
SWIDTH 2400 0
DWIDTH 24 0
BBX 22 18 1 -2
BITMAP
100020
200010
200010
400008
400008
8FFF84
860104
800104
800104
800104
800104
800104
800104
400108
400108
200110
200010
100020
ENDCHAR
STARTCHAR 3201
ENCODING 10546
SWIDTH 2400 0
DWIDTH 24 0
BBX 22 19 1 -3
BITMAP
080020
100010
200010
400008
400008
430004
810004
810004
810004
810004
810004
810004
8100E4
41FF08
400008
400010
200010
100020
080000
ENDCHAR
STARTCHAR 3202
ENCODING 10547
SWIDTH 2400 0
DWIDTH 24 0
BBX 22 18 1 -2
BITMAP
100020
200010
200010
400008
4C0308
87FF84
820004
820004
820004
820004
820004
820004
820304
43FF88
400008
200010
200010
100020
ENDCHAR
STARTCHAR 3203
ENCODING 10548
SWIDTH 2400 0
DWIDTH 24 0
BBX 22 18 1 -2
BITMAP
100020
200010
200010
400008
47FF08
820304
800204
800204
87FE04
820004
820004
820004
820184
43FF88
400008
200010
200010
100020
ENDCHAR
STARTCHAR 3204
ENCODING 10549
SWIDTH 2400 0
DWIDTH 24 0
BBX 22 18 1 -2
BITMAP
100020
200010
200010
400008
400008
83FFC4
810084
810084
810184
810104
810104
810104
81FF84
410008
400008
200010
200010
100020
ENDCHAR
STARTCHAR 3205
ENCODING 10550
SWIDTH 2400 0
DWIDTH 24 0
BBX 22 18 1 -2
BITMAP
100020
200010
200010
400708
430108
810104
810104
81FF04
810104
810104
810104
810104
810104
41FF08
410108
200010
200010
100020
ENDCHAR
STARTCHAR 3206
ENCODING 10551
SWIDTH 2400 0
DWIDTH 24 0
BBX 22 18 1 -2
BITMAP
100020
200010
200010
402008
401808
801804
801804
803004
806804
80C404
808304
810184
8600C4
480048
400008
200010
200010
100020
ENDCHAR
STARTCHAR 3207
ENCODING 10552
SWIDTH 2400 0
DWIDTH 24 0
BBX 22 19 1 -2
BITMAP
000040
100020
200010
200010
403008
40FC08
830304
860184
840084
840084
840084
840084
820104
830308
40FC08
400008
200010
200020
100000
ENDCHAR
STARTCHAR 3208
ENCODING 10553
SWIDTH 2400 0
DWIDTH 24 0
BBX 22 18 1 -2
BITMAP
100020
200010
200010
400388
47FF88
838304
800204
800604
800C04
801004
806C04
80C304
810184
4E00C8
400008
200010
200010
100020
ENDCHAR
STARTCHAR 3209
ENCODING 10554
SWIDTH 2400 0
DWIDTH 24 0
BBX 22 18 1 -2
BITMAP
100020
200010
208010
407C08
400008
800304
87FF04
800604
800C04
801804
806C04
80C304
830184
4C00C8
400008
200010
200010
100020
ENDCHAR
STARTCHAR 320A
ENCODING 10555
SWIDTH 2400 0
DWIDTH 24 0
BBX 22 18 1 -2
BITMAP
100020
200010
200010
4001C8
47FFC8
838084
800084
800184
800F84
87F104
800104
800104
800204
400208
400408
200810
200010
100020
ENDCHAR
STARTCHAR 320B
ENCODING 10556
SWIDTH 2400 0
DWIDTH 24 0
BBX 22 18 1 -2
BITMAP
100020
200010
200010
400708
47FF08
820004
820004
820004
820704
83FF04
820004
820004
820184
43FFC8
400008
200010
200010
100020
ENDCHAR
STARTCHAR 320C
ENCODING 10557
SWIDTH 2400 0
DWIDTH 24 0
BBX 22 19 1 -3
BITMAP
080020
100010
200010
400188
47FFC8
420004
800C04
810604
808604
808404
80C404
800804
800844
4FFFE8
400008
400010
200010
100020
080000
ENDCHAR
STARTCHAR 320D
ENCODING 10558
SWIDTH 2400 0
DWIDTH 24 0
BBX 22 18 1 -2
BITMAP
100020
200010
208010
407C08
400008
800084
801FE4
8FE004
801004
80F804
818604
810204
810204
410208
418408
207810
200010
100020
ENDCHAR
STARTCHAR 320E
ENCODING 10559
SWIDTH 2400 0
DWIDTH 24 0
BBX 22 18 1 -2
BITMAP
100620
200110
200110
400108
401108
8FF904
861104
803104
806104
8041F4
808104
810104
820104
4C0108
400108
200110
200110
100120
ENDCHAR
STARTCHAR 320F
ENCODING 10560
SWIDTH 2400 0
DWIDTH 24 0
BBX 22 18 1 -2
BITMAP
100620
200110
200110
400108
5C0108
840104
840104
840104
840164
8401E4
840504
847904
878104
400108
400108
200110
200110
100120
ENDCHAR
STARTCHAR 3210
ENCODING 10561
SWIDTH 2400 0
DWIDTH 24 0
BBX 22 18 1 -2
BITMAP
100020
200310
200110
400108
403108
8FF104
840104
840104
840124
8401F4
840104
841904
87E104
400108
400108
200110
200110
100020
ENDCHAR
STARTCHAR 3211
ENCODING 10562
SWIDTH 2400 0
DWIDTH 24 0
BBX 22 18 1 -2
BITMAP
100020
200310
200110
400108
400108
8FF104
843104
882104
8FF104
8401F4
840104
840504
847904
478108
400108
200110
200110
100120
ENDCHAR
STARTCHAR 3212
ENCODING 10563
SWIDTH 2400 0
DWIDTH 24 0
BBX 22 18 1 -2
BITMAP
100620
200110
200110
400108
400108
8FF904
841104
841104
841104
8411F4
842104
87F104
840104
400108
400108
200110
200110
100020
ENDCHAR
STARTCHAR 3213
ENCODING 10564
SWIDTH 2400 0
DWIDTH 24 0
BBX 22 18 1 -2
BITMAP
100620
200110
200110
400108
406108
8C2104
842104
842104
87E104
8421F4
842104
842104
87E104
442108
400108
200110
200110
100020
ENDCHAR
STARTCHAR 3214
ENCODING 10565
SWIDTH 2400 0
DWIDTH 24 0
BBX 22 18 1 -2
BITMAP
100620
200110
200110
418108
404108
80C104
808104
818104
818104
8261F4
843104
881904
900104
400108
400108
200110
200110
100020
ENDCHAR
STARTCHAR 3215
ENCODING 10566
SWIDTH 2400 0
DWIDTH 24 0
BBX 22 18 1 -2
BITMAP
100620
200110
200110
410108
47C108
882104
901104
901104
901164
901184
882104
87C104
800104
400108
400108
200110
200110
100020
ENDCHAR
STARTCHAR 3216
ENCODING 10567
SWIDTH 2400 0
DWIDTH 24 0
BBX 22 18 1 -2
BITMAP
100620
200110
200110
400108
407108
8FA104
806104
80C104
808124
8161F4
823104
841904
980104
400108
400108
200110
200110
100020
ENDCHAR
STARTCHAR 3217
ENCODING 10568
SWIDTH 2400 0
DWIDTH 24 0
BBX 22 18 1 -2
BITMAP
100620
200190
200110
43E108
400108
801104
8FF104
802104
804134
8081E4
816104
823104
841904
580108
400108
200110
200110
100020
ENDCHAR
STARTCHAR 3218
ENCODING 10569
SWIDTH 2400 0
DWIDTH 24 0
BBX 22 18 1 -2
BITMAP
100020
200310
200110
400108
403108
8FF104
803104
802104
9FC104
8CC1F4
808104
810104
820104
440108
580108
200110
200110
100120
ENDCHAR
STARTCHAR 3219
ENCODING 10570
SWIDTH 2400 0
DWIDTH 24 0
BBX 22 18 1 -2
BITMAP
100020
200310
200110
400108
402108
8FE104
840104
842104
87E104
8401F4
840104
840D04
87F104
470108
400108
200110
200110
100020
ENDCHAR
STARTCHAR 321A
ENCODING 10571
SWIDTH 2400 0
DWIDTH 24 0
BBX 22 18 1 -2
BITMAP
100420
200310
200110
400108
48F908
870104
803104
803104
822104
8321F4
822104
807904
8F8104
400108
400108
200110
200110
100120
ENDCHAR
STARTCHAR 321B
ENCODING 10572
SWIDTH 2400 0
DWIDTH 24 0
BBX 22 19 1 -3
BITMAP
100600
200120
200110
41E108
400108
800908
9FFD04
848104
83E104
8631F4
861104
861104
863104
43E108
400108
200110
200110
100020
000040
ENDCHAR
STARTCHAR 249C
ENCODING 10573
SWIDTH 2400 0
DWIDTH 24 0
BBX 22 18 1 -2
BITMAP
100020
200010
200010
400008
407808
818404
818404
800404
801C04
80E404
818404
818404
818C04
41F708
400008
200010
200010
100020
ENDCHAR
STARTCHAR 249D
ENCODING 10574
SWIDTH 2400 0
DWIDTH 24 0
BBX 22 18 1 -2
BITMAP
100020
208010
238010
408008
408008
808004
809804
80E604
808304
808104
808104
808104
808104
408108
408208
20C410
203810
100020
ENDCHAR
STARTCHAR 249E
ENCODING 10575
SWIDTH 2400 0
DWIDTH 24 0
BBX 22 18 1 -2
BITMAP
100020
200010
200010
400008
407C08
808604
818204
810004
810004
810004
810004
818004
80C204
407C08
400008
200010
200010
100020
ENDCHAR
STARTCHAR 249F
ENCODING 10576
SWIDTH 2400 0
DWIDTH 24 0
BBX 22 18 1 -2
BITMAP
100020
200410
201C10
400408
400408
800404
807404
818C04
810404
820404
820404
820404
820404
420408
410C08
20F610
200010
100020
ENDCHAR
STARTCHAR 24A0
ENCODING 10577
SWIDTH 2400 0
DWIDTH 24 0
BBX 22 18 1 -2
BITMAP
100020
200010
200010
400008
407808
80C404
808204
818204
81FE04
810004
810004
810004
818004
40C408
407808
200010
200010
100020
ENDCHAR
STARTCHAR 24A1
ENCODING 10578
SWIDTH 2400 0
DWIDTH 24 0
BBX 22 18 1 -2
BITMAP
100020
200010
201E10
402008
402008
802004
802004
80FC04
802004
802004
802004
802004
802004
402008
402008
202010
20F810
100020
ENDCHAR
STARTCHAR 24A2
ENCODING 10579
SWIDTH 2400 0
DWIDTH 24 0
BBX 22 18 1 -2
BITMAP
100000
200020
207110
418F08
410408
810408
810404
810C04
80D804
812004
81C004
80FC04
830604
460208
420608
21F810
200010
100020
ENDCHAR
STARTCHAR 24A3
ENCODING 10580
SWIDTH 2400 0
DWIDTH 24 0
BBX 22 18 1 -2
BITMAP
100020
208010
238010
408008
408008
808004
809804
80E604
808204
808204
808204
808204
808204
408208
408208
21C710
200010
100020
ENDCHAR
STARTCHAR 24A4
ENCODING 10581
SWIDTH 2400 0
DWIDTH 24 0
BBX 22 18 1 -2
BITMAP
100020
203010
203010
400008
400008
800004
801004
807004
801004
801004
801004
801004
801004
401008
401008
203810
200010
100020
ENDCHAR
STARTCHAR 24A5
ENCODING 10582
SWIDTH 2400 0
DWIDTH 24 0
BBX 22 18 1 -2
BITMAP
003020
303010
200010
400008
400008
803004
803004
801004
801004
801004
801004
801004
801004
401008
401008
201010
20E010
10C020
ENDCHAR
STARTCHAR 24A6
ENCODING 10583
SWIDTH 2400 0
DWIDTH 24 0
BBX 22 18 1 -2
BITMAP
100020
208010
218010
408008
408008
808004
808F04
808604
808804
809004
80B004
80D804
808C04
408408
408608
21C790
200010
100020
ENDCHAR
STARTCHAR 24A7
ENCODING 10584
SWIDTH 2400 0
DWIDTH 24 0
BBX 22 18 1 -2
BITMAP
100020
201010
203010
401008
401008
801004
801004
801004
801004
801004
801004
801004
801004
401008
401008
203810
200010
100020
ENDCHAR
STARTCHAR 24A8
ENCODING 10585
SWIDTH 2400 0
DWIDTH 24 0
BBX 22 18 1 -2
BITMAP
100020
200010
200010
400008
5BE788
8C2844
881044
881044
881044
881044
881044
881044
881044
500808
400008
200010
200010
100020
ENDCHAR
STARTCHAR 24A9
ENCODING 10586
SWIDTH 2400 0
DWIDTH 24 0
BBX 22 18 1 -2
BITMAP
100020
200010
200010
400008
433C08
81C604
810204
810204
810204
810204
810204
810204
810204
400008
400008
200010
200010
100020
ENDCHAR
STARTCHAR 24AA
ENCODING 10587
SWIDTH 2400 0
DWIDTH 24 0
BBX 22 18 1 -2
BITMAP
100020
200010
200010
400008
407808
80CC04
808604
810204
810204
810204
810204
818404
808C04
407808
400008
200010
200010
100020
ENDCHAR
STARTCHAR 24AB
ENCODING 10588
SWIDTH 2400 0
DWIDTH 24 0
BBX 22 18 1 -2
BITMAP
100020
200010
200010
41BC08
40C208
808104
808104
808104
808104
808104
808204
80C204
80BC04
408008
408008
21C010
200010
100020
ENDCHAR
STARTCHAR 24AC
ENCODING 10589
SWIDTH 2400 0
DWIDTH 24 0
BBX 22 18 1 -2
BITMAP
100020
200010
200010
40F408
410C08
820404
820404
820404
820404
820404
810404
818C04
807404
400408
400408
200E10
200010
100020
ENDCHAR
STARTCHAR 24AD
ENCODING 10590
SWIDTH 2400 0
DWIDTH 24 0
BBX 22 18 1 -2
BITMAP
100020
200010
200010
400008
40CE08
807404
804004
804004
804004
804004
804004
804004
804004
40E008
400008
200010
200010
100020
ENDCHAR
STARTCHAR 24AE
ENCODING 10591
SWIDTH 2400 0
DWIDTH 24 0
BBX 22 18 1 -2
BITMAP
100020
200010
200010
400008
40FC08
808404
818204
80C004
807C04
800E04
800204
810204
808204
40FC08
400008
200010
200010
100020
ENDCHAR
STARTCHAR 24AF
ENCODING 10592
SWIDTH 2400 0
DWIDTH 24 0
BBX 22 18 1 -2
BITMAP
100020
200010
200010
404008
404008
804004
81F804
804004
804004
804004
804004
804004
804004
404008
404408
207810
200010
100020
ENDCHAR
STARTCHAR 24B0
ENCODING 10593
SWIDTH 2400 0
DWIDTH 24 0
BBX 22 18 1 -2
BITMAP
100020
200010
200010
400008
430608
810204
810204
810204
810204
810204
810204
810204
818E04
40F308
400008
200010
200010
100020
ENDCHAR
STARTCHAR 24B1
ENCODING 10594
SWIDTH 2400 0
DWIDTH 24 0
BBX 22 18 1 -2
BITMAP
100020
200010
200010
400008
400008
838704
818204
808404
80C404
80C804
804804
807004
803004
403008
400008
200010
200010
100020
ENDCHAR
STARTCHAR 24B2
ENCODING 10595
SWIDTH 2400 0
DWIDTH 24 0
BBX 22 18 1 -2
BITMAP
100020
200010
200010
400008
400008
8E30C4
843084
863084
823904
824904
834904
814E04
818604
418408
400008
200010
200010
100020
ENDCHAR
STARTCHAR 24B3
ENCODING 10596
SWIDTH 2400 0
DWIDTH 24 0
BBX 22 18 1 -2
BITMAP
100020
200010
200010
400008
43CF08
818404
80C804
807004
803004
803004
805804
808C04
810604
478F88
400008
200010
200010
100020
ENDCHAR
STARTCHAR 24B4
ENCODING 10597
SWIDTH 2400 0
DWIDTH 24 0
BBX 22 18 1 -2
BITMAP
100020
200010
200010
400008
41C308
808204
80C204
804404
806404
806804
802804
803004
801004
401008
402008
21E010
208010
100020
ENDCHAR
STARTCHAR 24B5
ENCODING 10598
SWIDTH 2400 0
DWIDTH 24 0
BBX 22 19 1 -2
BITMAP
000040
100020
200010
200010
400008
40FE08
80C404
800C04
801804
801004
802004
804004
80C204
808608
41FC08
400008
200010
200020
100000
ENDCHAR
STARTCHAR 2474
ENCODING 10599
SWIDTH 2400 0
DWIDTH 24 0
BBX 22 18 1 -2
BITMAP
100020
203010
21D010
401008
401008
801004
801004
801004
801004
801004
801004
801004
801004
401008
401008
201010
20FE10
100020
ENDCHAR
STARTCHAR 2475
ENCODING 10600
SWIDTH 2400 0
DWIDTH 24 0
BBX 22 18 1 -2
BITMAP
100020
207C10
208610
410308
410308
818304
800204
800604
800804
801004
802004
804004
808104
410108
420208
23FE10
200010
100020
ENDCHAR
STARTCHAR 2476
ENCODING 10601
SWIDTH 2400 0
DWIDTH 24 0
BBX 22 18 1 -2
BITMAP
100020
207C10
218610
418208
410208
800204
800404
800804
807004
800C04
800204
800104
800104
418108
410108
208210
207C10
100020
ENDCHAR
STARTCHAR 2477
ENCODING 10602
SWIDTH 2400 0
DWIDTH 24 0
BBX 22 18 1 -2
BITMAP
100020
200810
201810
401808
402808
804804
804804
808804
808804
810804
820804
820804
83FF04
400808
400808
200810
203E10
100020
ENDCHAR
STARTCHAR 2478
ENCODING 10603
SWIDTH 2400 0
DWIDTH 24 0
BBX 22 18 1 -2
BITMAP
100020
21FE10
210010
410008
410008
810004
811004
81EC04
810204
800304
800304
800304
810304
418308
410208
208410
207810
100020
ENDCHAR
STARTCHAR 2479
ENCODING 10604
SWIDTH 2400 0
DWIDTH 24 0
BBX 22 18 1 -2
BITMAP
100020
207C10
208610
410608
410008
820004
820004
827C04
838204
820304
820104
820104
820104
420108
410208
208610
207810
100020
ENDCHAR
STARTCHAR 247A
ENCODING 10605
SWIDTH 2400 0
DWIDTH 24 0
BBX 22 18 1 -2
BITMAP
100020
200010
21FF10
410208
410208
800404
800404
800804
800804
801004
801004
802004
802004
406008
406008
206010
204010
100020
ENDCHAR
STARTCHAR 247B
ENCODING 10606
SWIDTH 2400 0
DWIDTH 24 0
BBX 22 18 1 -2
BITMAP
100000
207C20
218610
410208
410208
810208
818404
805804
807C04
818E04
810304
830304
830104
430108
410208
208410
207810
100020
ENDCHAR
STARTCHAR 247C
ENCODING 10607
SWIDTH 2400 0
DWIDTH 24 0
BBX 22 18 1 -2
BITMAP
100020
200010
20F810
408408
410208
810204
810204
810204
810204
808E04
807204
800204
800204
400408
418408
218810
207010
100020
ENDCHAR
STARTCHAR 247D
ENCODING 10608
SWIDTH 2400 0
DWIDTH 24 0
BBX 22 18 1 -2
BITMAP
100020
210710
270990
410888
410888
811044
811044
811044
811044
811044
811044
811044
811044
411088
410888
210910
220610
100020
ENDCHAR
STARTCHAR 247E
ENCODING 10609
SWIDTH 2400 0
DWIDTH 24 0
BBX 22 18 1 -2
BITMAP
100020
200010
200010
430308
450508
810104
810104
810104
810104
810104
810104
810104
810104
410108
47C7C8
200010
200010
100020
ENDCHAR
STARTCHAR 247F
ENCODING 10610
SWIDTH 2400 0
DWIDTH 24 0
BBX 22 19 1 -3
BITMAP
080020
100010
200010
4E0788
420848
420864
820864
820044
8200C4
820104
820204
820404
820404
420828
4F8FE8
400010
200010
100020
080000
ENDCHAR
STARTCHAR 2480
ENCODING 10611
SWIDTH 2400 0
DWIDTH 24 0
BBX 22 18 1 -2
BITMAP
100020
200010
200010
4E07C8
420C68
820464
820064
820044
820384
820044
820024
820024
820C24
420C68
4F8788
200010
200010
100020
ENDCHAR
STARTCHAR 2481
ENCODING 10612
SWIDTH 2400 0
DWIDTH 24 0
BBX 22 18 1 -2
BITMAP
100020
200010
200010
460088
4A0188
820184
820284
820284
820484
820884
820884
821FE4
820084
420088
4F81C8
200010
200010
100020
ENDCHAR
STARTCHAR 2482
ENCODING 10613
SWIDTH 2400 0
DWIDTH 24 0
BBX 22 18 1 -2
BITMAP
100020
200010
200010
430FC8
450808
810804
810804
810B04
810C84
810044
810044
810044
811844
410888
47C508
200210
200010
100020
ENDCHAR
STARTCHAR 00B9
ENCODING 10614
SWIDTH 2400 0
DWIDTH 24 0
BBX 5 10 10 8
BITMAP
20
60
20
20
20
20
20
20
20
F8
ENDCHAR
STARTCHAR 00B2
ENCODING 10615
SWIDTH 2400 0
DWIDTH 24 0
BBX 6 9 9 8
BITMAP
7C
C4
C4
0C
18
30
40
84
FC
ENDCHAR
STARTCHAR 00B3
ENCODING 10616
SWIDTH 2400 0
DWIDTH 24 0
BBX 6 11 9 7
BITMAP
78
CC
CC
0C
18
38
04
84
84
D8
20
ENDCHAR
STARTCHAR 2074
ENCODING 10617
SWIDTH 2400 0
DWIDTH 24 0
BBX 6 9 9 8
BITMAP
08
18
28
28
48
88
FC
08
1C
ENDCHAR
STARTCHAR 207F
ENCODING 10618
SWIDTH 2400 0
DWIDTH 24 0
BBX 9 8 8 8
BITMAP
1E00
E100
4100
4100
4100
4100
4100
C380
ENDCHAR
STARTCHAR 2081
ENCODING 10619
SWIDTH 2400 0
DWIDTH 24 0
BBX 5 10 9 -4
BITMAP
20
60
20
20
20
20
20
20
20
F8
ENDCHAR
STARTCHAR 2082
ENCODING 10620
SWIDTH 2400 0
DWIDTH 24 0
BBX 6 9 9 -4
BITMAP
7C
C4
C4
0C
18
30
40
84
FC
ENDCHAR
STARTCHAR 2083
ENCODING 10621
SWIDTH 2400 0
DWIDTH 24 0
BBX 7 11 9 -5
BITMAP
38
4C
C4
04
08
38
04
C6
C4
68
10
ENDCHAR
STARTCHAR 2084
ENCODING 10622
SWIDTH 2400 0
DWIDTH 24 0
BBX 6 9 9 -4
BITMAP
08
18
28
28
48
88
FC
08
1C
ENDCHAR
STARTCHAR 3041
ENCODING 10785
SWIDTH 2400 0
DWIDTH 24 0
BBX 13 15 5 -3
BITMAP
0200
0600
04C0
3F00
0400
0480
07E0
0D10
3908
4A08
4C08
9C08
7410
4020
00C0
ENDCHAR
STARTCHAR 3042
ENCODING 10786
SWIDTH 2400 0
DWIDTH 24 0
BBX 16 19 4 -2
BITMAP
0300
0300
0300
0330
7FF0
1E00
0640
0620
04F0
075C
1CC3
3483
4501
C601
8603
9E03
F206
C00C
0030
ENDCHAR
STARTCHAR 3043
ENCODING 10787
SWIDTH 2400 0
DWIDTH 24 0
BBX 13 9 6 -2
BITMAP
8000
8000
8060
8030
8010
8018
5018
6000
2000
ENDCHAR
STARTCHAR 3044
ENCODING 10788
SWIDTH 2400 0
DWIDTH 24 0
BBX 16 12 4 1
BITMAP
8000
8000
8038
8004
8002
8003
8401
8803
5807
7001
7000
3000
ENDCHAR
STARTCHAR 3045
ENCODING 10789
SWIDTH 2400 0
DWIDTH 24 0
BBX 8 15 8 -2
BITMAP
08
06
02
00
00
1E
E1
01
01
03
02
02
04
04
08
ENDCHAR
STARTCHAR 3046
ENCODING 10790
SWIDTH 2400 0
DWIDTH 24 0
BBX 10 20 7 -3
BITMAP
0800
0700
0380
0080
0000
0000
0380
98C0
7040
0040
0040
0040
0040
00C0
0080
0080
0100
0300
0600
0800
ENDCHAR
STARTCHAR 3047
ENCODING 10791
SWIDTH 2400 0
DWIDTH 24 0
BBX 12 14 6 -2
BITMAP
0400
0300
0100
0000
0300
3F00
0200
0400
0800
1000
3800
4400
C600
83F0
ENDCHAR
STARTCHAR 3048
ENCODING 10792
SWIDTH 2400 0
DWIDTH 24 0
BBX 16 19 4 -2
BITMAP
0200
0380
00C0
0060
0000
0000
01E0
1F60
18C0
0180
0300
0600
0400
0800
1600
7100
E180
C0FF
003F
ENDCHAR
STARTCHAR 3049
ENCODING 10793
SWIDTH 2400 0
DWIDTH 24 0
BBX 14 13 5 -2
BITMAP
0C00
0C00
0838
4F0C
3814
0800
08E0
0F10
1808
3808
E818
59F0
1800
ENDCHAR
STARTCHAR 304A
ENCODING 10794
SWIDTH 2400 0
DWIDTH 24 0
BBX 18 17 3 -1
BITMAP
060000
060000
060000
040780
05C1C0
7F81C0
040000
040000
043C00
05C300
060080
0C0080
1C0080
F40180
E40300
1C1E00
0C0000
ENDCHAR
STARTCHAR 304B
ENCODING 10795
SWIDTH 2400 0
DWIDTH 24 0
BBX 18 17 3 -1
BITMAP
040000
030000
030000
030000
020600
07E300
BC3180
EC30C0
0830C0
0831C0
102040
302000
206000
604000
C4C000
C38000
830000
ENDCHAR
STARTCHAR 304C
ENCODING 10796
SWIDTH 2400 0
DWIDTH 24 0
BBX 20 17 3 -1
BITMAP
060000
030060
030130
0200C0
064440
0FE300
FC3180
4830C0
0830C0
1823C0
102040
306000
606000
60C000
C7C000
838000
010000
ENDCHAR
STARTCHAR 304D
ENCODING 10797
SWIDTH 2400 0
DWIDTH 24 0
BBX 12 19 6 -2
BITMAP
3000
1800
08C0
0F80
BC00
4600
0270
03C0
FF80
00C0
0060
0070
7FF0
8030
8000
8000
E000
7F80
0F80
ENDCHAR
STARTCHAR 304E
ENCODING 10798
SWIDTH 2400 0
DWIDTH 24 0
BBX 17 19 5 -2
BITMAP
180000
0C0300
046D80
07C600
5E0000
230000
017800
01E000
7FC000
006000
002000
003800
3FF800
401800
800000
400000
700000
3FC000
07C000
ENDCHAR
STARTCHAR 304F
ENCODING 10799
SWIDTH 2400 0
DWIDTH 24 0
BBX 8 19 8 -2
BITMAP
02
03
07
06
0C
10
20
40
80
80
C0
60
30
18
0C
06
06
03
03
ENDCHAR
STARTCHAR 3050
ENCODING 10800
SWIDTH 2400 0
DWIDTH 24 0
BBX 13 19 8 -2
BITMAP
0200
0300
0300
0600
0C20
1098
2068
4060
8000
8000
C000
6000
3000
1800
0C00
0600
0600
0300
0300
ENDCHAR
STARTCHAR 3051
ENCODING 10801
SWIDTH 2400 0
DWIDTH 24 0
BBX 18 18 3 -1
BITMAP
000800
600C00
600400
600400
400400
4007C0
C1FFC0
800400
800400
800400
800400
A00400
A00400
E00C00
C00800
400800
401000
001000
ENDCHAR
STARTCHAR 3052
ENCODING 10802
SWIDTH 2400 0
DWIDTH 24 0
BBX 20 18 3 -1
BITMAP
000060
600D30
200490
6004C0
600400
4007C0
41FFC0
400400
C00400
800400
900400
900400
E00400
E00C00
600800
600800
201000
001000
ENDCHAR
STARTCHAR 3053
ENCODING 10803
SWIDTH 2400 0
DWIDTH 24 0
BBX 15 15 4 0
BITMAP
1000
0FF0
00F8
0180
0000
0000
0000
0000
4000
8000
4000
4000
6006
1FFE
07FC
ENDCHAR
STARTCHAR 3054
ENCODING 10804
SWIDTH 2400 0
DWIDTH 24 0
BBX 18 16 4 0
BITMAP
000100
100180
0FF2C0
00FB00
018000
000000
000000
000000
000000
400000
800000
400000
400000
700600
1FFE00
07FC00
ENDCHAR
STARTCHAR 3055
ENCODING 10805
SWIDTH 2400 0
DWIDTH 24 0
BBX 14 18 5 -2
BITMAP
0E00
0DC0
0638
03F8
83E0
7C40
0020
0030
0018
0FFC
301C
4000
4000
4000
6000
3800
1FE0
03E0
ENDCHAR
STARTCHAR 3056
ENCODING 10806
SWIDTH 2400 0
DWIDTH 24 0
BBX 18 18 5 -2
BITMAP
0E0180
0DC6C0
063B00
03F900
83E000
7C4000
006000
003000
001800
0FFC00
301C00
400000
400000
400000
600000
380000
1FE000
03E000
ENDCHAR
STARTCHAR 3057
ENCODING 10807
SWIDTH 2400 0
DWIDTH 24 0
BBX 14 18 6 -2
BITMAP
C000
6000
6000
6000
4000
4000
4000
4000
4000
4000
4000
4000
4000
400C
4018
60E0
3FC0
0C00
ENDCHAR
STARTCHAR 3058
ENCODING 10808
SWIDTH 2400 0
DWIDTH 24 0
BBX 13 18 6 -2
BITMAP
C000
6000
6100
40C0
4360
4100
4100
4000
4000
4000
4000
C000
C000
C008
4010
60E0
3F80
0C00
ENDCHAR
STARTCHAR 3059
ENCODING 10809
SWIDTH 2400 0
DWIDTH 24 0
BBX 19 20 2 -2
BITMAP
004000
006000
003000
002000
002000
03FFE0
FE2000
202000
00E000
017000
023000
023000
023000
013000
00F000
003000
002000
006000
004000
008000
ENDCHAR
STARTCHAR 305A
ENCODING 10810
SWIDTH 2400 0
DWIDTH 24 0
BBX 19 20 3 -2
BITMAP
008000
00C180
0066C0
006200
004000
03FFE0
FC4000
604000
01C000
02E000
046000
046000
046000
026000
01E000
006000
004000
00C000
008000
010000
ENDCHAR
STARTCHAR 305B
ENCODING 10811
SWIDTH 2400 0
DWIDTH 24 0
BBX 21 16 2 0
BITMAP
000400
000200
040300
060200
020200
020200
027FF8
9F8400
F20400
020400
023C00
021C00
020800
010000
018000
00FF80
ENDCHAR
STARTCHAR 305C
ENCODING 10812
SWIDTH 2400 0
DWIDTH 24 0
BBX 21 16 2 0
BITMAP
000C10
000698
060668
060420
020400
020400
02FFF0
9F8400
FA0400
020400
023C00
021C00
020800
010000
018000
00FF80
ENDCHAR
STARTCHAR 305D
ENCODING 10813
SWIDTH 2400 0
DWIDTH 24 0
BBX 16 19 4 -2
BITMAP
0020
09F0
0F30
0060
0080
0100
0200
0C3F
13F0
3C80
F100
C200
0200
0200
0200
0300
01C0
00F0
0030
ENDCHAR
STARTCHAR 305E
ENCODING 10814
SWIDTH 2400 0
DWIDTH 24 0
BBX 19 19 4 -2
BITMAP
002000
09F000
0F30C0
006360
008100
010100
020000
0C3F00
13FC00
3C8000
F10000
C20000
020000
020000
020000
030000
01C000
00F000
003000
ENDCHAR
STARTCHAR 305F
ENCODING 10815
SWIDTH 2400 0
DWIDTH 24 0
BBX 18 17 3 -1
BITMAP
040000
070000
020000
06C000
078000
FC1E00
080380
080380
080680
100000
100000
300000
200000
610000
C08000
C0F000
003FC0
ENDCHAR
STARTCHAR 3060
ENCODING 10816
SWIDTH 2400 0
DWIDTH 24 0
BBX 20 17 3 -1
BITMAP
060000
030030
020190
06C0C0
078040
FE1E00
040380
0801C0
080280
100000
100000
300000
200000
608000
408000
C0E000
003FC0
ENDCHAR
STARTCHAR 3061
ENCODING 10817
SWIDTH 2400 0
DWIDTH 24 0
BBX 16 18 4 -2
BITMAP
0C00
0600
0400
04E0
8FC0
7800
0800
0800
0800
10FC
1302
1C03
3801
3003
0007
000E
001C
00F0
ENDCHAR
STARTCHAR 3062
ENCODING 10818
SWIDTH 2400 0
DWIDTH 24 0
BBX 19 19 4 -2
BITMAP
080000
060000
040000
0400C0
8FE260
FF0300
280100
080000
080000
180000
11FE00
160300
380100
300300
300300
000600
000E00
003800
01E000
ENDCHAR
STARTCHAR 3063
ENCODING 10819
SWIDTH 2400 0
DWIDTH 24 0
BBX 16 10 4 -2
BITMAP
0030
03CC
9C02
6002
0003
0002
0002
0004
0018
0060
ENDCHAR
STARTCHAR 3064
ENCODING 10820
SWIDTH 2400 0
DWIDTH 24 0
BBX 18 12 3 0
BITMAP
01FF00
070180
BC00C0
F00040
200040
000040
0000C0
0000C0
000180
000300
000E00
007000
ENDCHAR
STARTCHAR 3065
ENCODING 10821
SWIDTH 2400 0
DWIDTH 24 0
BBX 23 16 1 -1
BITMAP
00000C
000006
000032
007F18
0380C0
9E0060
780020
300020
000020
000060
000060
0000C0
000180
000700
001800
002000
ENDCHAR
STARTCHAR 3066
ENCODING 10822
SWIDTH 2400 0
DWIDTH 24 0
BBX 17 17 3 -1
BITMAP
000F80
00FF80
CF1800
782000
004000
008000
010000
010000
010000
020000
030000
010000
010000
018000
00F800
003E00
000400
ENDCHAR
STARTCHAR 3067
ENCODING 10823
SWIDTH 2400 0
DWIDTH 24 0
BBX 20 17 3 -1
BITMAP
000F80
00FF80
CF1800
782000
004060
0081B0
0100D0
010000
010000
020000
020000
010000
010000
018000
00F800
003E00
000400
ENDCHAR
STARTCHAR 3068
ENCODING 10824
SWIDTH 2400 0
DWIDTH 24 0
BBX 13 17 5 -1
BITMAP
3000
1800
0800
0800
0800
0830
08F0
0FC0
0E00
1800
3000
4000
4000
8000
4000
6000
1FF8
ENDCHAR
STARTCHAR 3069
ENCODING 10825
SWIDTH 2400 0
DWIDTH 24 0
BBX 15 18 6 -1
BITMAP
200C
1006
1030
1018
1008
1060
11E0
1780
1C00
3000
2000
4000
8000
8000
8000
4000
3FF0
0FE0
ENDCHAR
STARTCHAR 306A
ENCODING 10826
SWIDTH 2400 0
DWIDTH 24 0
BBX 18 19 3 -2
BITMAP
030000
018000
010000
034000
FFE000
7E0000
040180
0801C0
180EC0
101000
301000
601000
C01000
001000
00D000
073C00
041E00
043200
03E000
ENDCHAR
STARTCHAR 306B
ENCODING 10827
SWIDTH 2400 0
DWIDTH 24 0
BBX 17 17 4 -1
BITMAP
800000
600000
607E00
608700
401800
400000
C00000
800000
800000
900000
A00000
A20000
A30000
E1FF80
C07F80
400000
400000
ENDCHAR
STARTCHAR 306C
ENCODING 10828
SWIDTH 2400 0
DWIDTH 24 0
BBX 20 16 2 -1
BITMAP
004000
006000
004000
207C00
21C300
36C0C0
18C040
108060
398060
4D0060
4F0060
460060
8E0F40
5B31C0
7021E0
001E30
ENDCHAR
STARTCHAR 306D
ENCODING 10829
SWIDTH 2400 0
DWIDTH 24 0
BBX 19 18 3 -2
BITMAP
0C0000
040000
040000
040000
040000
0C1E00
FE6100
6D8080
0A0080
1C00C0
1800C0
2800C0
280080
483E80
684380
D847C0
883E60
080000
ENDCHAR
STARTCHAR 306E
ENCODING 10830
SWIDTH 2400 0
DWIDTH 24 0
BBX 18 14 3 0
BITMAP
03FC00
0C4300
184180
20C0C0
4080C0
4180C0
8300C0
8200C0
8600C0
8C00C0
480180
700300
200600
000800
ENDCHAR
STARTCHAR 306F
ENCODING 10831
SWIDTH 2400 0
DWIDTH 24 0
BBX 17 17 4 -1
BITMAP
601800
600C00
600800
600800
400B80
41FF00
C00800
800800
800800
800800
A00800
A00800
A07800
C39E00
C20B00
C20900
61F000
ENDCHAR
STARTCHAR 3070
ENCODING 10832
SWIDTH 2400 0
DWIDTH 24 0
BBX 20 18 4 -1
BITMAP
000040
601920
200CF0
600840
600800
4009C0
41FF80
400800
800800
800800
800400
A00400
A00400
A03C00
A1DF00
C20580
E10C80
60F800
ENDCHAR
STARTCHAR 3071
ENCODING 10833
SWIDTH 2400 0
DWIDTH 24 0
BBX 20 18 4 -1
BITMAP
0000E0
401910
600D10
6008E0
400800
400B80
C1FF00
800800
800800
800800
800800
A00800
A00800
C0F800
C31E00
C20B00
C21900
41F000
ENDCHAR
STARTCHAR 3072
ENCODING 10834
SWIDTH 2400 0
DWIDTH 24 0
BBX 18 16 3 0
BITMAP
040C00
1E0C00
FC0C00
480400
180A00
100A00
300B00
200980
6008C0
4008C0
401000
403000
402000
606000
31C000
1F8000
ENDCHAR
STARTCHAR 3073
ENCODING 10835
SWIDTH 2400 0
DWIDTH 24 0
BBX 20 17 3 -1
BITMAP
000040
0E0D30
BE0C90
6C0CC0
180600
100A00
300B00
200980
6009C0
4008C0
401840
401000
403000
406000
20C000
1F8000
0E0000
ENDCHAR
STARTCHAR 3074
ENCODING 10836
SWIDTH 2400 0
DWIDTH 24 0
BBX 21 17 3 -1
BITMAP
000070
0E0C88
BE0C88
EC0C70
180600
100A00
300B00
200980
6009C0
4008C0
401000
401000
403000
406000
20C000
1F8000
0E0000
ENDCHAR
STARTCHAR 3075
ENCODING 10837
SWIDTH 2400 0
DWIDTH 24 0
BBX 18 15 3 0
BITMAP
008000
00E000
007000
006000
008000
010000
010000
010000
008000
00FC00
016380
8660C0
9820C0
F463C0
63E000
ENDCHAR
STARTCHAR 3076
ENCODING 10838
SWIDTH 2400 0
DWIDTH 24 0
BBX 20 16 3 0
BITMAP
010000
008000
00E000
007000
006070
008190
0100C0
010000
010000
008000
00FC00
016380
0E60C0
B820C0
F463C0
63E000
ENDCHAR
STARTCHAR 3077
ENCODING 10839
SWIDTH 2400 0
DWIDTH 24 0
BBX 19 16 3 0
BITMAP
010000
008000
006000
0061C0
006220
008220
010220
0101C0
010000
008000
007E00
03E180
0C60C0
B020C0
E463C0
63E000
ENDCHAR
STARTCHAR 3078
ENCODING 10840
SWIDTH 2400 0
DWIDTH 24 0
BBX 20 10 2 2
BITMAP
038000
0C4000
182000
301000
E00C00
400600
000380
0001E0
000070
000030
ENDCHAR
STARTCHAR 3079
ENCODING 10841
SWIDTH 2400 0
DWIDTH 24 0
BBX 20 13 2 2
BITMAP
0000E0
000260
000180
038080
0C4000
182000
301000
E00800
400600
000380
0001C0
000070
000030
ENDCHAR
STARTCHAR 307A
ENCODING 10842
SWIDTH 2400 0
DWIDTH 24 0
BBX 20 13 2 2
BITMAP
000380
000240
000240
038380
044000
182000
301000
E00C00
200600
000380
0001E0
000070
000010
ENDCHAR
STARTCHAR 307B
ENCODING 10843
SWIDTH 2400 0
DWIDTH 24 0
BBX 18 17 4 -1
BITMAP
600300
61FF00
604400
600400
400580
400780
C0FC00
800400
800400
A00400
A00400
A00400
A01C00
A0EF80
C104C0
C08C00
607800
ENDCHAR
STARTCHAR 307C
ENCODING 10844
SWIDTH 2400 0
DWIDTH 24 0
BBX 21 17 3 -1
BITMAP
600300
20FF00
6004B0
600458
4005E0
400700
40FC00
800400
900400
A00400
A00400
A00400
A03C00
A0CF80
E084C0
608C00
607800
ENDCHAR
STARTCHAR 307D
ENCODING 10845
SWIDTH 2400 0
DWIDTH 24 0
BBX 22 17 2 -1
BITMAP
200338
20FF44
204444
600438
600480
400780
40FC00
400400
900400
900400
A00400
A00400
A01C00
E0FF80
E104C0
608C00
607800
ENDCHAR
STARTCHAR 307E
ENCODING 10846
SWIDTH 2400 0
DWIDTH 24 0
BBX 13 19 5 -2
BITMAP
0200
0180
0180
0180
0138
7FF0
0100
0100
0130
7FE0
0100
0100
0100
0100
7F80
81F0
8338
EF08
3E00
ENDCHAR
STARTCHAR 307F
ENCODING 10847
SWIDTH 2400 0
DWIDTH 24 0
BBX 18 15 3 0
BITMAP
01E000
0F7000
046000
00C000
008000
010200
030200
020200
1FFE00
240700
480780
900CC0
900800
E01800
C03000
ENDCHAR
STARTCHAR 3080
ENCODING 10848
SWIDTH 2400 0
DWIDTH 24 0
BBX 18 17 3 -1
BITMAP
180000
0C0000
0C0000
0FC000
FE0000
080780
0808C0
3808C0
4C05C0
4C0440
4C0400
680400
380600
100600
100600
180E00
0FFC00
ENDCHAR
STARTCHAR 3081
ENCODING 10849
SWIDTH 2400 0
DWIDTH 24 0
BBX 18 17 3 -1
BITMAP
004000
002000
202000
206000
207000
13FF00
1EC380
3880C0
7980C0
4900C0
8F0040
860040
8E00C0
9B0080
F00180
400600
001800
ENDCHAR
STARTCHAR 3082
ENCODING 10850
SWIDTH 2400 0
DWIDTH 24 0
BBX 12 19 6 -2
BITMAP
1800
0E00
0600
0400
8C00
6800
1800
3800
5000
9040
9040
7020
3E30
2030
2030
2030
1030
18E0
0FC0
ENDCHAR
STARTCHAR 3083
ENCODING 10851
SWIDTH 2400 0
DWIDTH 24 0
BBX 16 14 4 -2
BITMAP
0080
0040
1FC0
103C
09C3
0601
9E03
723E
0100
0080
0080
0040
0060
0060
ENDCHAR
STARTCHAR 3084
ENCODING 10852
SWIDTH 2400 0
DWIDTH 24 0
BBX 20 17 2 -1
BITMAP
003000
031800
0CF800
080780
0C3860
07C030
070030
9F0030
F98860
00C7C0
004000
006000
003000
003000
001800
001800
000C00
ENDCHAR
STARTCHAR 3085
ENCODING 10853
SWIDTH 2400 0
DWIDTH 24 0
BBX 13 13 5 -2
BITMAP
0600
8900
8BE0
9C90
9088
9088
B088
D088
C898
C530
43E0
0200
0400
ENDCHAR
STARTCHAR 3086
ENCODING 10854
SWIDTH 2400 0
DWIDTH 24 0
BBX 18 17 3 -1
BITMAP
01C000
826000
443C00
44D700
471180
461180
4C10C0
5410C0
5410C0
E410C0
E21180
631180
61A700
607C00
004000
00C000
010000
ENDCHAR
STARTCHAR 3087
ENCODING 10855
SWIDTH 2400 0
DWIDTH 24 0
BBX 11 14 7 -2
BITMAP
0C00
0400
0400
0440
07C0
0400
0400
0400
0400
0400
3E00
C7C0
84E0
7C00
ENDCHAR
STARTCHAR 3088
ENCODING 10856
SWIDTH 2400 0
DWIDTH 24 0
BBX 13 19 5 -2
BITMAP
0400
0600
0300
0200
0200
0278
03E0
0200
0200
0200
0200
0200
0200
0200
7FC0
C1F0
8138
E600
1C00
ENDCHAR
STARTCHAR 3089
ENCODING 10857
SWIDTH 2400 0
DWIDTH 24 0
BBX 13 18 5 -2
BITMAP
1800
0C00
0600
0E00
3000
4000
4000
4000
4000
41E0
4E18
D008
E008
C008
C018
0030
00E0
0300
ENDCHAR
STARTCHAR 308A
ENCODING 10858
SWIDTH 2400 0
DWIDTH 24 0
BBX 9 18 8 -2
BITMAP
8400
9A00
A300
A100
C180
C180
8180
8180
8180
8180
8180
8300
0300
0300
0600
0400
0800
1000
ENDCHAR
STARTCHAR 308B
ENCODING 10859
SWIDTH 2400 0
DWIDTH 24 0
BBX 14 17 5 -1
BITMAP
01C0
1FC0
18E0
0180
0100
0200
0400
0800
1FF0
1818
300C
E004
C004
0F0C
1188
10F0
0FE0
ENDCHAR
STARTCHAR 308C
ENCODING 10860
SWIDTH 2400 0
DWIDTH 24 0
BBX 20 18 3 -2
BITMAP
0C0000
040000
040000
041E00
0C6600
1C8600
6D0600
0A0400
1C0400
180C00
380C00
380C00
680800
480800
E80810
980EE0
080780
080000
ENDCHAR
STARTCHAR 308D
ENCODING 10861
SWIDTH 2400 0
DWIDTH 24 0
BBX 16 18 4 -1
BITMAP
0040
13E0
0E60
00C0
0080
0100
0200
0400
09FC
1E06
3803
6003
C003
0003
0006
000C
0038
03C0
ENDCHAR
STARTCHAR 308E
ENCODING 10862
SWIDTH 2400 0
DWIDTH 24 0
BBX 15 14 5 -2
BITMAP
0400
0400
0400
0400
0C00
3CF8
0B0C
0C04
1806
1804
280C
6818
D820
0840
ENDCHAR
STARTCHAR 308F
ENCODING 10863
SWIDTH 2400 0
DWIDTH 24 0
BBX 18 19 3 -2
BITMAP
040000
020000
030000
020000
020000
060000
0F0000
3E3F00
14C180
0500C0
0E00C0
1400C0
1C00C0
1400C0
240180
740300
CC0C00
043000
040000
ENDCHAR
STARTCHAR 3090
ENCODING 10864
SWIDTH 2400 0
DWIDTH 24 0
BBX 16 17 4 -1
BITMAP
01C0
0FC0
0CC0
0080
0180
0100
0378
0786
0E03
3401
6C01
8801
9831
90FF
A08E
E086
0078
ENDCHAR
STARTCHAR 3091
ENCODING 10865
SWIDTH 2400 0
DWIDTH 24 0
BBX 18 17 3 -1
BITMAP
08F000
072000
004000
008000
01F800
030C00
060400
0C0600
0BCC00
044C00
02F000
030000
040000
181E00
7C2180
E3C1C0
C182C0
ENDCHAR
STARTCHAR 3092
ENCODING 10866
SWIDTH 2400 0
DWIDTH 24 0
BBX 15 19 5 -2
BITMAP
0600
0300
0200
06E0
FF80
0800
1808
100C
3E1E
6370
C180
8300
0D00
1100
2100
2000
2000
1FF0
07F0
ENDCHAR
STARTCHAR 3093
ENCODING 10867
SWIDTH 2400 0
DWIDTH 24 0
BBX 18 17 3 -1
BITMAP
008000
00C000
00C000
008000
010000
010000
020000
040000
040000
0B0000
0CC000
184000
304040
204080
604100
C07E00
C03800
ENDCHAR
STARTCHAR 30A1
ENCODING 11041
SWIDTH 2400 0
DWIDTH 24 0
BBX 14 13 5 -2
BITMAP
83F8
FC1C
4238
03C0
0300
0300
0200
0200
0400
0400
0800
0800
1000
ENDCHAR
STARTCHAR 30A2
ENCODING 11042
SWIDTH 2400 0
DWIDTH 24 0
BBX 18 16 3 0
BITMAP
80FF80
7F81C0
7003C0
00CE00
00F000
00C000
00C000
00C000
00C000
018000
018000
010000
030000
020000
040000
040000
ENDCHAR
STARTCHAR 30A3
ENCODING 11043
SWIDTH 2400 0
DWIDTH 24 0
BBX 9 15 8 -2
BITMAP
0100
0100
0380
0200
0600
0C00
1C00
3400
4400
8400
0400
0400
0400
0400
0400
ENDCHAR
STARTCHAR 30A4
ENCODING 11044
SWIDTH 2400 0
DWIDTH 24 0
BBX 13 19 5 -2
BITMAP
0020
0030
0038
0060
00C0
0080
0180
0380
0680
0C80
1080
6080
8080
0080
0080
0080
0080
0080
0080
ENDCHAR
STARTCHAR 30A5
ENCODING 11045
SWIDTH 2400 0
DWIDTH 24 0
BBX 12 13 6 -2
BITMAP
0C00
0600
0400
FFF0
4030
4020
4060
C040
40C0
0080
0100
0200
0400
ENDCHAR
STARTCHAR 30A6
ENCODING 11046
SWIDTH 2400 0
DWIDTH 24 0
BBX 16 17 4 0
BITMAP
0200
0180
0180
0180
FFFF
6007
6006
6006
600C
600C
6018
0018
0030
0020
0040
0080
0100
ENDCHAR
STARTCHAR 30A7
ENCODING 11047
SWIDTH 2400 0
DWIDTH 24 0
BBX 14 9 5 -2
BITMAP
0020
3FF0
0300
0100
0100
0100
0200
FFFC
6000
ENDCHAR
STARTCHAR 30A8
ENCODING 11048
SWIDTH 2400 0
DWIDTH 24 0
BBX 18 11 3 2
BITMAP
000C00
1FFE00
0F8000
00C000
004000
004000
004000
004000
004000
DFFFC0
7800C0
ENDCHAR
STARTCHAR 30A9
ENCODING 11049
SWIDTH 2400 0
DWIDTH 24 0
BBX 13 14 6 -2
BITMAP
0200
0100
0100
0130
FFF8
4300
0700
0D00
1900
3100
4100
0100
0300
0100
ENDCHAR
STARTCHAR 30AA
ENCODING 11050
SWIDTH 2400 0
DWIDTH 24 0
BBX 17 18 3 -2
BITMAP
00C000
003000
002000
002000
803F80
FFFF80
306000
00E000
01A000
032000
062000
0C2000
182000
202000
402000
01E000
006000
002000
ENDCHAR
STARTCHAR 30AB
ENCODING 11051
SWIDTH 2400 0
DWIDTH 24 0
BBX 16 17 4 -1
BITMAP
00C0
0060
00C0
00C0
408E
3FFF
1903
0302
0206
0604
0C04
080C
1008
2008
4098
8070
0060
ENDCHAR
STARTCHAR 30AC
ENCODING 11052
SWIDTH 2400 0
DWIDTH 24 0
BBX 20 17 4 -1
BITMAP
00C000
00E060
00C130
00C0C0
419EC0
3FFB00
390200
030600
060400
040400
0C0C00
180C00
100800
201800
409000
807000
006000
ENDCHAR
STARTCHAR 30AD
ENCODING 11053
SWIDTH 2400 0
DWIDTH 24 0
BBX 16 18 4 -2
BITMAP
0600
0200
0208
0378
03E0
DF00
3100
0187
00BF
01E0
8FC0
7840
0040
0060
0060
0020
0030
0030
ENDCHAR
STARTCHAR 30AE
ENCODING 11054
SWIDTH 2400 0
DWIDTH 24 0
BBX 18 19 4 -2
BITMAP
080000
0600C0
020340
020B00
037900
03C000
FF0000
310000
018700
00BF00
01C000
9EC000
70C000
004000
006000
006000
002000
003000
003000
ENDCHAR
STARTCHAR 30AF
ENCODING 11055
SWIDTH 2400 0
DWIDTH 24 0
BBX 13 17 6 -1
BITMAP
0600
0700
07F8
0C18
1830
3030
6060
80C0
00C0
0180
0300
0600
0400
1800
3000
4000
8000
ENDCHAR
STARTCHAR 30B0
ENCODING 11056
SWIDTH 2400 0
DWIDTH 24 0
BBX 18 18 5 -1
BITMAP
000180
0302C0
038340
03FD00
060C00
0C1800
181800
303000
406000
006000
00C000
018000
030000
060000
0C0000
180000
200000
C00000
ENDCHAR
STARTCHAR 30B1
ENCODING 11057
SWIDTH 2400 0
DWIDTH 24 0
BBX 15 17 5 -1
BITMAP
1800
0C00
0C00
1800
303E
3FF8
4040
8040
00C0
00C0
0180
0100
0300
0600
0C00
1000
2000
ENDCHAR
STARTCHAR 30B2
ENCODING 11058
SWIDTH 2400 0
DWIDTH 24 0
BBX 21 17 3 0
BITMAP
000060
0601B0
0200D8
070040
060000
0C1F80
1FF800
301000
603000
803000
002000
006000
00C000
008000
010000
020000
040000
ENDCHAR
STARTCHAR 30B3
ENCODING 11059
SWIDTH 2400 0
DWIDTH 24 0
BBX 14 11 5 2
BITMAP
81F8
7F9C
2018
0018
0018
0010
0010
0010
0030
DFF0
7800
ENDCHAR
STARTCHAR 30B4
ENCODING 11060
SWIDTH 2400 0
DWIDTH 24 0
BBX 18 14 5 2
BITMAP
0000C0
000440
000300
80F900
7FCC00
301800
001800
001800
001000
001000
001000
003000
CFF000
7C0000
ENDCHAR
STARTCHAR 30B5
ENCODING 11061
SWIDTH 2400 0
DWIDTH 24 0
BBX 19 17 2 -1
BITMAP
001800
040C00
020C00
020400
020400
CFFFE0
7A0400
020400
020400
020400
020800
020800
000800
001800
001000
002000
004000
ENDCHAR
STARTCHAR 30B6
ENCODING 11062
SWIDTH 2400 0
DWIDTH 24 0
BBX 21 17 2 -1
BITMAP
001818
0C0C48
060C60
020420
020400
CFFFE0
7E0400
020400
020400
020400
020800
020800
000800
001800
001000
002000
004000
ENDCHAR
STARTCHAR 30B7
ENCODING 11063
SWIDTH 2400 0
DWIDTH 24 0
BBX 17 15 4 0
BITMAP
380000
1C0000
040000
000080
000100
C00200
780400
180C00
003800
006000
00C000
038000
4E0000
7C0000
380000
ENDCHAR
STARTCHAR 30B8
ENCODING 11064
SWIDTH 2400 0
DWIDTH 24 0
BBX 16 15 4 0
BITMAP
3806
1C03
0418
000C
0000
E001
7806
180C
0018
0030
00E0
0180
0700
7C00
3800
ENDCHAR
STARTCHAR 30B9
ENCODING 11065
SWIDTH 2400 0
DWIDTH 24 0
BBX 15 14 5 0
BITMAP
41F0
3F38
1070
0060
00C0
0180
0100
0300
06C0
0830
1018
600E
8006
0002
ENDCHAR
STARTCHAR 30BA
ENCODING 11066
SWIDTH 2400 0
DWIDTH 24 0
BBX 18 16 5 0
BITMAP
000180
0006C0
41F300
3E3800
106000
006000
00C000
018000
010000
030000
06C000
083000
301800
600E00
800600
000200
ENDCHAR
STARTCHAR 30BB
ENCODING 11067
SWIDTH 2400 0
DWIDTH 24 0
BBX 16 15 4 0
BITMAP
0600
0300
0200
0200
023E
03C7
0E0E
F208
4210
0200
0200
0200
0200
0187
00FF
ENDCHAR
STARTCHAR 30BC
ENCODING 11068
SWIDTH 2400 0
DWIDTH 24 0
BBX 20 15 4 0
BITMAP
060060
030030
0200D0
0200C0
021E00
03E700
0E0600
F20800
421000
020000
020000
020000
020000
010700
00FF00
ENDCHAR
STARTCHAR 30BD
ENCODING 11069
SWIDTH 2400 0
DWIDTH 24 0
BBX 14 15 5 0
BITMAP
0018
800C
400C
6018
3018
3030
0020
0060
00C0
0080
0100
0200
0400
0800
1000
ENDCHAR
STARTCHAR 30BE
ENCODING 11070
SWIDTH 2400 0
DWIDTH 24 0
BBX 19 17 5 0
BITMAP
000080
000260
001960
800D80
400C00
601800
301800
303000
002000
006000
00C000
018000
010000
020000
040000
080000
100000
ENDCHAR
STARTCHAR 30BF
ENCODING 11071
SWIDTH 2400 0
DWIDTH 24 0
BBX 14 17 5 -1
BITMAP
0300
0180
03FC
060C
0418
0818
1830
2660
C360
01C0
0180
0300
0600
0C00
1800
3000
4000
ENDCHAR
STARTCHAR 30C0
ENCODING 11072
SWIDTH 2400 0
DWIDTH 24 0
BBX 19 18 5 -1
BITMAP
000100
0304C0
018B60
03FD00
060C00
0C1800
181000
3C3000
626000
81C000
00C000
018000
030000
060000
0C0000
180000
200000
400000
ENDCHAR
STARTCHAR 30C1
ENCODING 11073
SWIDTH 2400 0
DWIDTH 24 0
BBX 18 18 3 -1
BITMAP
003000
003800
00F000
03C000
0EC000
106000
004000
03FFC0
FE4000
204000
00C000
00C000
008000
008000
018000
010000
020000
040000
ENDCHAR
STARTCHAR 30C2
ENCODING 11074
SWIDTH 2400 0
DWIDTH 24 0
BBX 20 18 3 -1
BITMAP
003000
003800
00F060
03C130
0EC080
106080
004000
03FFC0
FE4000
204000
00C000
00C000
008000
008000
010000
010000
020000
040000
ENDCHAR
STARTCHAR 30C3
ENCODING 11075
SWIDTH 2400 0
DWIDTH 24 0
BBX 12 11 6 -2
BITMAP
0820
8C30
C430
4460
4040
00C0
0180
0100
0200
0400
0800
ENDCHAR
STARTCHAR 30C4
ENCODING 11076
SWIDTH 2400 0
DWIDTH 24 0
BBX 16 14 4 0
BITMAP
0206
8307
4306
6104
600C
0008
0018
0030
0020
0040
00C0
0100
0200
0400
ENDCHAR
STARTCHAR 30C5
ENCODING 11077
SWIDTH 2400 0
DWIDTH 24 0
BBX 20 16 4 0
BITMAP
000060
0001B0
0206D0
830340
430700
610600
600C00
200C00
001800
001000
003000
006000
00C000
018000
030000
040000
ENDCHAR
STARTCHAR 30C6
ENCODING 11078
SWIDTH 2400 0
DWIDTH 24 0
BBX 16 17 4 -1
BITMAP
1FFC
0600
0000
0000
03FF
FF81
60C0
00C0
0080
0180
0180
0300
0200
0600
0400
0800
1000
ENDCHAR
STARTCHAR 30C7
ENCODING 11079
SWIDTH 2400 0
DWIDTH 24 0
BBX 20 18 4 -2
BITMAP
001060
1FFDB0
0600D0
000040
000000
03FF00
FF8100
60C000
00C000
008000
018000
018000
030000
020000
060000
040000
080000
100000
ENDCHAR
STARTCHAR 30C8
ENCODING 11080
SWIDTH 2400 0
DWIDTH 24 0
BBX 8 19 10 -2
BITMAP
80
60
60
40
40
40
40
40
7C
46
43
41
40
40
40
40
40
40
40
ENDCHAR
STARTCHAR 30C9
ENCODING 11081
SWIDTH 2400 0
DWIDTH 24 0
BBX 11 19 10 -2
BITMAP
8000
6000
6080
4060
4320
4180
4080
4000
7C00
4600
4300
4100
4000
4000
4000
4000
4000
4000
4000
ENDCHAR
STARTCHAR 30CA
ENCODING 11082
SWIDTH 2400 0
DWIDTH 24 0
BBX 18 19 3 -2
BITMAP
008000
004000
004000
004000
004000
004000
87FFC0
FC4000
004000
004000
004000
008000
008000
008000
018000
010000
020000
040000
080000
ENDCHAR
STARTCHAR 30CB
ENCODING 11083
SWIDTH 2400 0
DWIDTH 24 0
BBX 18 9 3 3
BITMAP
18FC00
0FFC00
000000
000000
000000
000000
000000
DFFFC0
7800C0
ENDCHAR
STARTCHAR 30CC
ENCODING 11084
SWIDTH 2400 0
DWIDTH 24 0
BBX 13 15 6 0
BITMAP
20F8
1F98
0830
0020
0060
18C0
06C0
0380
0380
06C0
0C60
1830
3020
6000
8000
ENDCHAR
STARTCHAR 30CD
ENCODING 11085
SWIDTH 2400 0
DWIDTH 24 0
BBX 15 19 5 -2
BITMAP
0400
0380
01C0
0000
0060
4FF0
70C0
0180
0300
0740
0D30
191C
610E
8106
0102
0100
0300
0300
0100
ENDCHAR
STARTCHAR 30CE
ENCODING 11086
SWIDTH 2400 0
DWIDTH 24 0
BBX 12 16 6 0
BITMAP
0040
0020
0030
0030
0060
0060
00C0
0180
0100
0300
0600
0C00
1800
3000
6000
8000
ENDCHAR
STARTCHAR 30CF
ENCODING 11087
SWIDTH 2400 0
DWIDTH 24 0
BBX 20 9 2 3
BITMAP
020000
030400
030300
060180
0C00C0
080060
100070
600030
800000
ENDCHAR
STARTCHAR 30D0
ENCODING 11088
SWIDTH 2400 0
DWIDTH 24 0
BBX 20 11 3 4
BITMAP
000040
000030
0000D0
080040
060800
060600
0C0300
180180
3000C0
6000E0
C00060
ENDCHAR
STARTCHAR 30D1
ENCODING 11089
SWIDTH 2400 0
DWIDTH 24 0
BBX 22 12 2 3
BITMAP
000038
000048
000044
020048
030438
038300
060180
0C00C0
080060
100070
600030
800000
ENDCHAR
STARTCHAR 30D2
ENCODING 11090
SWIDTH 2400 0
DWIDTH 24 0
BBX 14 16 5 0
BITMAP
C000
2000
2000
2000
2000
2070
37F0
2800
2000
2000
2000
2000
2000
2000
100C
0FFC
ENDCHAR
STARTCHAR 30D3
ENCODING 11091
SWIDTH 2400 0
DWIDTH 24 0
BBX 17 16 5 0
BITMAP
C00000
200300
200980
200600
200200
207000
37F000
280000
200000
200000
200000
200000
200000
200000
100C00
0FFC00
ENDCHAR
STARTCHAR 30D4
ENCODING 11092
SWIDTH 2400 0
DWIDTH 24 0
BBX 17 16 5 0
BITMAP
C00700
200880
200880
200700
200000
207000
37F000
2C0000
200000
200000
200000
200000
200000
200000
100C00
0FFC00
ENDCHAR
STARTCHAR 30D5
ENCODING 11093
SWIDTH 2400 0
DWIDTH 24 0
BBX 16 14 4 0
BITMAP
FFFE
7807
0006
0004
000C
0008
0018
0030
0020
0060
00C0
0180
0200
0400
ENDCHAR
STARTCHAR 30D6
ENCODING 11094
SWIDTH 2400 0
DWIDTH 24 0
BBX 20 17 4 0
BITMAP
000060
0001B0
0000C0
FFFE00
700700
000600
000C00
000C00
001800
001000
003000
006000
004000
008000
010000
020000
040000
ENDCHAR
STARTCHAR 30D7
ENCODING 11095
SWIDTH 2400 0
DWIDTH 24 0
BBX 21 18 3 -1
BITMAP
000070
000088
000088
FFFF70
780300
000600
000600
000C00
000800
001800
003000
002000
006000
00C000
018000
020000
040000
180000
ENDCHAR
STARTCHAR 30D8
ENCODING 11096
SWIDTH 2400 0
DWIDTH 24 0
BBX 20 9 2 3
BITMAP
038000
0C4000
183000
F01800
600C00
000700
0001C0
0000F0
000030
ENDCHAR
STARTCHAR 30D9
ENCODING 11097
SWIDTH 2400 0
DWIDTH 24 0
BBX 20 12 2 3
BITMAP
0000C0
000060
0001A0
038080
0C4000
183000
F01800
600C00
000700
0001C0
0000F0
000030
ENDCHAR
STARTCHAR 30DA
ENCODING 11098
SWIDTH 2400 0
DWIDTH 24 0
BBX 20 12 2 3
BITMAP
0001C0
000220
000220
038220
0C41C0
183000
F01800
600C00
000700
0001C0
0000F0
000030
ENDCHAR
STARTCHAR 30DB
ENCODING 11099
SWIDTH 2400 0
DWIDTH 24 0
BBX 16 17 4 -1
BITMAP
0180
00C0
0080
0080
0080
EFFF
3C80
0080
0090
2088
2084
4086
C083
C083
C381
0180
0080
ENDCHAR
STARTCHAR 30DC
ENCODING 11100
SWIDTH 2400 0
DWIDTH 24 0
BBX 20 17 3 -1
BITMAP
018000
00C060
008130
0080C0
008000
EFFF00
3C8000
008000
008800
008400
208200
208300
608180
608180
438080
018000
008000
ENDCHAR
STARTCHAR 30DD
ENCODING 11101
SWIDTH 2400 0
DWIDTH 24 0
BBX 18 19 4 -1
BITMAP
000380
000440
018440
00C440
008380
008000
008000
6FFF00
3C8000
008000
009000
208800
208400
408600
C08300
C08300
C38100
018000
008000
ENDCHAR
STARTCHAR 30DE
ENCODING 11102
SWIDTH 2400 0
DWIDTH 24 0
BBX 20 11 2 2
BITMAP
000FC0
C7F860
7E00F0
200180
000300
010400
00D800
006000
007000
003000
001000
ENDCHAR
STARTCHAR 30DF
ENCODING 11103
SWIDTH 2400 0
DWIDTH 24 0
BBX 10 17 7 -1
BITMAP
4000
3800
0F00
0100
0000
0000
4000
3C00
0F00
0100
0000
0000
8000
7800
0F00
03C0
00C0
ENDCHAR
STARTCHAR 30E0
ENCODING 11104
SWIDTH 2400 0
DWIDTH 24 0
BBX 17 14 4 1
BITMAP
018000
008000
00C000
018000
018000
030000
020000
061000
040800
0C0400
080600
101F00
FFE300
780180
ENDCHAR
STARTCHAR 30E1
ENCODING 11105
SWIDTH 2400 0
DWIDTH 24 0
BBX 14 15 5 0
BITMAP
0008
000C
001C
0018
0030
0620
01E0
00C0
01E0
0330
0630
0C00
1800
2000
C000
ENDCHAR
STARTCHAR 30E2
ENCODING 11106
SWIDTH 2400 0
DWIDTH 24 0
BBX 17 15 4 0
BITMAP
001800
3FFC00
080000
018000
018000
010300
81FF80
FF0000
210000
010000
010000
010000
018000
00FF00
007F00
ENDCHAR
STARTCHAR 30E3
ENCODING 11107
SWIDTH 2400 0
DWIDTH 24 0
BBX 15 13 5 -2
BITMAP
1800
0C00
0408
04FC
0F0E
F210
4200
0200
0300
0100
0100
0100
0180
ENDCHAR
STARTCHAR 30E4
ENCODING 11108
SWIDTH 2400 0
DWIDTH 24 0
BBX 20 17 2 -1
BITMAP
060000
038000
018000
0183E0
00BC60
03C0F0
FC8180
70C200
004000
004000
006000
006000
002000
003000
003000
003000
001000
ENDCHAR
STARTCHAR 30E5
ENCODING 11109
SWIDTH 2400 0
DWIDTH 24 0
BBX 15 8 4 -2
BITMAP
0FF0
0020
0060
0040
0040
0040
FFFE
6002
ENDCHAR
STARTCHAR 30E6
ENCODING 11110
SWIDTH 2400 0
DWIDTH 24 0
BBX 20 10 2 2
BITMAP
080C00
07FE00
000C00
000C00
000800
000800
001800
001000
FFFFE0
780070
ENDCHAR
STARTCHAR 30E7
ENCODING 11111
SWIDTH 2400 0
DWIDTH 24 0
BBX 10 11 7 -3
BITMAP
0080
FFC0
00C0
00C0
0080
7F80
0080
0180
0100
FF80
4000
ENDCHAR
STARTCHAR 30E8
ENCODING 11112
SWIDTH 2400 0
DWIDTH 24 0
BBX 13 13 6 1
BITMAP
FFF0
4038
0030
0030
0030
0030
FFE0
4020
0020
0020
0060
FFE0
4000
ENDCHAR
STARTCHAR 30E9
ENCODING 11113
SWIDTH 2400 0
DWIDTH 24 0
BBX 15 17 4 -1
BITMAP
2078
1FF8
0000
0000
000C
DFFE
780E
000C
0018
0018
0030
0060
00C0
0180
0300
0600
0800
ENDCHAR
STARTCHAR 30EA
ENCODING 11114
SWIDTH 2400 0
DWIDTH 24 0
BBX 9 17 7 -1
BITMAP
8180
4080
4080
4080
4080
4080
4080
4080
4080
4080
4080
0080
0100
0100
0200
0200
0400
ENDCHAR
STARTCHAR 30EB
ENCODING 11115
SWIDTH 2400 0
DWIDTH 24 0
BBX 19 13 2 1
BITMAP
002000
0C3000
0E2000
042000
0C2000
0C2000
082060
0820C0
182180
102600
203C00
403800
802000
ENDCHAR
STARTCHAR 30EC
ENCODING 11116
SWIDTH 2400 0
DWIDTH 24 0
BBX 12 13 6 1
BITMAP
C000
6000
4000
4000
4010
4020
4040
4080
4300
4E00
7C00
7000
6000
ENDCHAR
STARTCHAR 30ED
ENCODING 11117
SWIDTH 2400 0
DWIDTH 24 0
BBX 15 11 5 2
BITMAP
FFFC
780E
200E
200C
200C
200C
2018
2018
2018
3FF8
3000
ENDCHAR
STARTCHAR 30EE
ENCODING 11118
SWIDTH 2400 0
DWIDTH 24 0
BBX 12 11 6 -2
BITMAP
FFF0
C030
4020
4060
C040
40C0
0080
0100
0200
0400
0800
ENDCHAR
STARTCHAR 30EF
ENCODING 11119
SWIDTH 2400 0
DWIDTH 24 0
BBX 15 15 5 -1
BITMAP
FFFC
C00E
C00C
C008
C018
C010
C030
4020
0060
00C0
0080
0100
0200
0400
0800
ENDCHAR
STARTCHAR 30F0
ENCODING 11120
SWIDTH 2400 0
DWIDTH 24 0
BBX 17 20 3 -2
BITMAP
004000
002000
003000
002000
002400
1FFE00
0C2000
002000
082000
042000
042000
042100
87FF80
7C2000
002000
002000
002000
002000
002000
002000
ENDCHAR
STARTCHAR 30F1
ENCODING 11121
SWIDTH 2400 0
DWIDTH 24 0
BBX 20 12 2 3
BITMAP
000200
11FF00
0F0700
000C00
00D000
006000
006000
004000
004000
004000
C7FFE0
7C00F0
ENDCHAR
STARTCHAR 30F2
ENCODING 11122
SWIDTH 2400 0
DWIDTH 24 0
BBX 14 16 5 -1
BITMAP
80F8
7F8C
000C
0018
0018
DFF0
7C30
0020
0060
00C0
0180
0100
0600
0C00
1000
2000
ENDCHAR
STARTCHAR 30F3
ENCODING 11123
SWIDTH 2400 0
DWIDTH 24 0
BBX 15 13 5 1
BITMAP
6000
3800
1C00
0002
0004
0018
0030
0060
0180
0300
8E00
7800
3000
ENDCHAR
STARTCHAR 30F4
ENCODING 11124
SWIDTH 2400 0
DWIDTH 24 0
BBX 20 17 4 0
BITMAP
020000
018040
0181B0
0180D0
DFFF40
700700
600600
600600
600400
600C00
600800
001800
003000
002000
004000
008000
010000
ENDCHAR
STARTCHAR 30F5
ENCODING 11125
SWIDTH 2400 0
DWIDTH 24 0
BBX 12 13 6 -2
BITMAP
0200
0300
0200
03E0
7E30
0420
0C20
0860
1040
2040
40C0
8380
0100
ENDCHAR
STARTCHAR 30F6
ENCODING 11126
SWIDTH 2400 0
DWIDTH 24 0
BBX 12 12 6 -2
BITMAP
1800
1800
3030
3FF0
4100
8100
0100
0200
0600
0400
0800
1000
ENDCHAR
STARTCHAR 0410
ENCODING 11297
SWIDTH 2400 0
DWIDTH 24 0
BBX 19 17 2 0
BITMAP
004000
004000
00E000
00A000
013000
011000
021800
020800
020C00
040C00
040400
0FFE00
080200
100300
100100
200180
F807E0
ENDCHAR
STARTCHAR 0411
ENCODING 11298
SWIDTH 2400 0
DWIDTH 24 0
BBX 13 16 5 0
BITMAP
FFF8
1018
1008
1008
1000
1000
1000
1FC0
1030
1018
1008
1008
1008
1018
3030
FFE0
ENDCHAR
STARTCHAR 0412
ENCODING 11299
SWIDTH 2400 0
DWIDTH 24 0
BBX 13 16 5 0
BITMAP
FFC0
1060
1010
1010
1010
1010
1030
1FC0
1020
1010
1008
1008
1008
1018
1030
FFC0
ENDCHAR
STARTCHAR 0413
ENCODING 11300
SWIDTH 2400 0
DWIDTH 24 0
BBX 14 16 5 0
BITMAP
FFFC
300C
1004
1004
1000
1000
1000
1000
1000
1000
1000
1000
1000
1000
1000
FE00
ENDCHAR
STARTCHAR 0414
ENCODING 11301
SWIDTH 2400 0
DWIDTH 24 0
BBX 17 20 3 -4
BITMAP
1FFF80
020600
020400
020400
020400
020400
040400
040400
040400
040400
080400
080400
100400
100400
200400
7FFE00
E00380
C00080
800080
800080
ENDCHAR
STARTCHAR 0415
ENCODING 11302
SWIDTH 2400 0
DWIDTH 24 0
BBX 14 16 5 0
BITMAP
7FF8
1008
1008
1000
1000
1010
1010
1FF0
1010
1010
1000
1000
1000
1004
1004
FFF8
ENDCHAR
STARTCHAR 0401
ENCODING 11303
SWIDTH 2400 0
DWIDTH 24 0
BBX 14 18 5 0
BITMAP
1860
1870
0000
FFF8
1018
1008
1000
1000
1010
1010
1FF0
1010
1010
1000
1000
1004
100C
FFF8
ENDCHAR
STARTCHAR 0416
ENCODING 11304
SWIDTH 2400 0
DWIDTH 24 0
BBX 23 17 0 0
BITMAP
78003C
7CFE7C
041040
021080
021080
021080
021080
011100
00FE00
019300
031180
0711C0
0610C0
0C1060
0C1060
183830
F8FE3E
ENDCHAR
STARTCHAR 0417
ENCODING 11305
SWIDTH 2400 0
DWIDTH 24 0
BBX 10 17 7 0
BITMAP
1F00
6180
40C0
80C0
8040
00C0
0080
0100
1E00
0380
00C0
00C0
0040
0040
80C0
41C0
3F00
ENDCHAR
STARTCHAR 0418
ENCODING 11306
SWIDTH 2400 0
DWIDTH 24 0
BBX 18 16 3 0
BITMAP
FE1FC0
100200
100200
100E00
101200
102200
102200
104200
108200
110200
120200
140200
140200
180200
180200
FE1FC0
ENDCHAR
STARTCHAR 0419
ENCODING 11307
SWIDTH 2400 0
DWIDTH 24 0
BBX 18 18 3 0
BITMAP
071800
033800
00C000
FE1FC0
100200
100600
100E00
101A00
103200
106200
10C200
118200
130200
120200
140200
180200
100200
FE1FC0
ENDCHAR
STARTCHAR 041A
ENCODING 11308
SWIDTH 2400 0
DWIDTH 24 0
BBX 17 17 4 0
BITMAP
000F00
7E1F00
101300
102000
102000
104000
104000
108000
110000
1F8000
11C000
106000
107000
103800
101800
300C00
FE0780
ENDCHAR
STARTCHAR 041B
ENCODING 11309
SWIDTH 2400 0
DWIDTH 24 0
BBX 16 16 3 0
BITMAP
0FFF
0204
0204
0204
0204
0204
0204
0204
0204
0204
0204
0204
0404
4404
E804
F03F
ENDCHAR
STARTCHAR 041C
ENCODING 11310
SWIDTH 2400 0
DWIDTH 24 0
BBX 23 17 0 0
BITMAP
78003E
380030
1C0030
140050
160050
120090
130090
110110
108110
108210
104210
104610
102410
102C10
101810
101810
FC00FE
ENDCHAR
STARTCHAR 041D
ENCODING 11311
SWIDTH 2400 0
DWIDTH 24 0
BBX 18 16 3 0
BITMAP
FE1FC0
100200
100200
100200
100200
100200
100200
1FFE00
100200
100200
100200
100200
100200
100200
100200
FE1FC0
ENDCHAR
STARTCHAR 041E
ENCODING 11312
SWIDTH 2400 0
DWIDTH 24 0
BBX 16 17 4 0
BITMAP
07E0
1818
300C
6006
4002
8003
8001
8001
8001
8001
8001
C001
4002
6006
3004
1818
07E0
ENDCHAR
STARTCHAR 041F
ENCODING 11313
SWIDTH 2400 0
DWIDTH 24 0
BBX 18 16 3 0
BITMAP
FFFF80
100200
100200
100200
100200
100200
100200
100200
100200
100200
100200
100200
100200
100200
100200
FC0FC0
ENDCHAR
STARTCHAR 0420
ENCODING 11314
SWIDTH 2400 0
DWIDTH 24 0
BBX 14 16 5 0
BITMAP
7FE0
1018
100C
1004
1004
1004
100C
1018
1FE0
1000
1000
1000
1000
1000
1000
FC00
ENDCHAR
STARTCHAR 0421
ENCODING 11315
SWIDTH 2400 0
DWIDTH 24 0
BBX 14 17 5 0
BITMAP
0380
1C74
300C
6004
4004
C000
8000
8000
8000
8000
8000
8000
4000
4000
6004
3808
0FF0
ENDCHAR
STARTCHAR 0422
ENCODING 11316
SWIDTH 2400 0
DWIDTH 24 0
BBX 15 16 4 0
BITMAP
FFFE
C106
8102
0100
0100
0100
0100
0100
0100
0100
0100
0100
0100
0100
0100
0FC0
ENDCHAR
STARTCHAR 0423
ENCODING 11317
SWIDTH 2400 0
DWIDTH 24 0
BBX 17 16 4 0
BITMAP
F80780
300200
100400
100400
080800
0C0800
041000
061000
022000
032000
014000
01C000
008000
008000
390000
3E0000
ENDCHAR
STARTCHAR 0424
ENCODING 11318
SWIDTH 2400 0
DWIDTH 24 0
BBX 16 16 4 0
BITMAP
03F0
0080
0F80
38F0
608C
C082
8081
8081
8081
8081
4083
6082
388C
07F0
0080
07C0
ENDCHAR
STARTCHAR 0425
ENCODING 11319
SWIDTH 2400 0
DWIDTH 24 0
BBX 18 16 3 0
BITMAP
7E0FC0
080300
0C0400
040400
020800
011000
01A000
00C000
00C000
012000
021000
041800
080800
100400
200600
F81F80
ENDCHAR
STARTCHAR 0426
ENCODING 11320
SWIDTH 2400 0
DWIDTH 24 0
BBX 18 20 3 -4
BITMAP
FE0FC0
100300
100200
100200
100200
100200
100200
100200
100200
100200
100200
100200
100200
100200
100200
FFFF00
0000C0
000040
000040
000040
ENDCHAR
STARTCHAR 0427
ENCODING 11321
SWIDTH 2400 0
DWIDTH 24 0
BBX 16 16 4 0
BITMAP
FE7F
1008
1008
1008
1008
1008
1008
1008
1018
0828
07C8
0008
0008
0008
0008
007F
ENDCHAR
STARTCHAR 0428
ENCODING 11322
SWIDTH 2400 0
DWIDTH 24 0
BBX 22 16 1 0
BITMAP
78703C
202010
202010
202010
202010
202010
202010
202010
202010
202010
202010
202010
202010
202010
202010
FFFFFC
ENDCHAR
STARTCHAR 0429
ENCODING 11323
SWIDTH 2400 0
DWIDTH 24 0
BBX 21 20 2 -4
BITMAP
FDF3F8
204040
204040
204040
204040
204040
204040
204040
204040
204040
204040
204040
204040
204040
204040
FFFFE0
000038
000018
000008
000008
ENDCHAR
STARTCHAR 042A
ENCODING 11324
SWIDTH 2400 0
DWIDTH 24 0
BBX 16 16 4 0
BITMAP
FF80
C200
8200
0200
0200
0200
0200
03F8
0206
0203
0201
0201
0201
0203
020E
1FF8
ENDCHAR
STARTCHAR 042B
ENCODING 11325
SWIDTH 2400 0
DWIDTH 24 0
BBX 21 16 1 0
BITMAP
FC00F8
100020
100020
100020
100020
100020
100020
1FC020
103020
101820
100820
100820
100820
101820
103020
FFE1F8
ENDCHAR
STARTCHAR 042C
ENCODING 11326
SWIDTH 2400 0
DWIDTH 24 0
BBX 13 16 5 0
BITMAP
7C00
1000
1000
1000
1000
1000
1000
1F80
1070
1018
1008
1008
1008
1018
1030
FFE0
ENDCHAR
STARTCHAR 042D
ENCODING 11327
SWIDTH 2400 0
DWIDTH 24 0
BBX 15 17 4 0
BITMAP
47C0
7830
6008
4004
4006
0002
0002
0002
03FE
0002
0002
0002
0006
8004
400C
3018
0FE0
ENDCHAR
STARTCHAR 042E
ENCODING 11328
SWIDTH 2400 0
DWIDTH 24 0
BBX 21 18 2 -1
BITMAP
001F00
FC30C0
204020
20C010
208010
218008
210008
210008
3F0008
210008
210008
210008
210008
208010
20C010
204020
FC30C0
001F00
ENDCHAR
STARTCHAR 042F
ENCODING 11329
SWIDTH 2400 0
DWIDTH 24 0
BBX 16 16 4 0
BITMAP
03FF
0C08
1808
1008
1008
1808
0C08
07F8
0108
0308
0208
0408
0808
1008
3008
E03F
ENDCHAR
STARTCHAR 0430
ENCODING 11345
SWIDTH 2400 0
DWIDTH 24 0
BBX 10 11 7 0
BITMAP
3E00
4100
C100
4100
0700
1900
6100
C100
C100
C300
7DC0
ENDCHAR
STARTCHAR 0431
ENCODING 11346
SWIDTH 2400 0
DWIDTH 24 0
BBX 11 17 6 0
BITMAP
0020
0FC0
3F80
3000
4000
4000
BF00
C080
C040
8020
8020
8020
8020
8060
4040
20C0
1F00
ENDCHAR
STARTCHAR 0432
ENCODING 11347
SWIDTH 2400 0
DWIDTH 24 0
BBX 9 11 7 0
BITMAP
FE00
2180
2080
2080
2100
3F00
2180
2080
2080
2180
FF00
ENDCHAR
STARTCHAR 0433
ENCODING 11348
SWIDTH 2400 0
DWIDTH 24 0
BBX 9 11 7 0
BITMAP
FF80
2080
2080
2000
2000
2000
2000
2000
2000
2000
F800
ENDCHAR
STARTCHAR 0434
ENCODING 11349
SWIDTH 2400 0
DWIDTH 24 0
BBX 13 14 5 -3
BITMAP
3FF8
0820
0820
0820
0820
1020
1020
1020
2020
2020
7FF0
8018
8008
0008
ENDCHAR
STARTCHAR 0435
ENCODING 11350
SWIDTH 2400 0
DWIDTH 24 0
BBX 9 11 7 -1
BITMAP
3F00
4180
4080
FF80
8000
C000
C000
C000
6080
7100
1E00
ENDCHAR
STARTCHAR 0451
ENCODING 11351
SWIDTH 2400 0
DWIDTH 24 0
BBX 10 16 7 -1
BITMAP
4080
4080
0000
0000
0000
3F00
4080
4080
FFC0
C000
C000
C000
C040
6080
3100
1E00
ENDCHAR
STARTCHAR 0436
ENCODING 11352
SWIDTH 2400 0
DWIDTH 24 0
BBX 17 12 3 -1
BITMAP
700300
71C700
088800
089000
049000
07F000
0C9800
188800
108C00
308600
E3E300
000080
ENDCHAR
STARTCHAR 0437
ENCODING 11353
SWIDTH 2400 0
DWIDTH 24 0
BBX 9 12 7 -1
BITMAP
5E00
6100
4180
0100
0200
0E00
0180
0080
0080
8180
6700
1800
ENDCHAR
STARTCHAR 0438
ENCODING 11354
SWIDTH 2400 0
DWIDTH 24 0
BBX 12 11 6 0
BITMAP
F9F0
2040
2040
20C0
2140
2240
2440
3840
2040
2040
F9F0
ENDCHAR
STARTCHAR 0439
ENCODING 11355
SWIDTH 2400 0
DWIDTH 24 0
BBX 12 16 6 0
BITMAP
30C0
30C0
3980
0F00
0000
F9F0
2040
2040
20C0
2140
2240
2440
3840
2040
2040
F9F0
ENDCHAR
STARTCHAR 043A
ENCODING 11356
SWIDTH 2400 0
DWIDTH 24 0
BBX 9 11 8 0
BITMAP
0180
E380
4400
4800
5800
7800
4C00
4400
4200
4300
F180
ENDCHAR
STARTCHAR 043B
ENCODING 11357
SWIDTH 2400 0
DWIDTH 24 0
BBX 12 11 6 0
BITMAP
3FF0
0840
0840
0840
0840
0840
0840
0840
0840
D040
E1F0
ENDCHAR
STARTCHAR 043C
ENCODING 11358
SWIDTH 2400 0
DWIDTH 24 0
BBX 17 10 3 0
BITMAP
F00780
300A00
280A00
241200
241200
222200
232200
214200
20C200
F88F80
ENDCHAR
STARTCHAR 043D
ENCODING 11359
SWIDTH 2400 0
DWIDTH 24 0
BBX 12 11 6 0
BITMAP
F9F0
2040
2040
2040
2040
3FC0
2040
2040
2040
2040
F9F0
ENDCHAR
STARTCHAR 043E
ENCODING 11360
SWIDTH 2400 0
DWIDTH 24 0
BBX 10 11 7 0
BITMAP
1E00
6180
4080
8040
8040
8040
8040
8040
4080
6180
1E00
ENDCHAR
STARTCHAR 043F
ENCODING 11361
SWIDTH 2400 0
DWIDTH 24 0
BBX 12 11 6 0
BITMAP
FFF0
2040
2040
2040
2040
2040
2040
2040
2040
2040
F9F0
ENDCHAR
STARTCHAR 0440
ENCODING 11362
SWIDTH 2400 0
DWIDTH 24 0
BBX 12 16 6 -4
BITMAP
2300
EFC0
3860
2030
2010
2010
2010
2010
2010
2020
3040
2980
2600
2000
2000
F800
ENDCHAR
STARTCHAR 0441
ENCODING 11363
SWIDTH 2400 0
DWIDTH 24 0
BBX 10 12 7 -1
BITMAP
0F00
3180
4180
4080
8000
8000
8000
C000
C040
6080
3B00
1800
ENDCHAR
STARTCHAR 0442
ENCODING 11364
SWIDTH 2400 0
DWIDTH 24 0
BBX 11 11 6 0
BITMAP
7FE0
8420
8420
0400
0400
0400
0400
0400
0400
0400
1F00
ENDCHAR
STARTCHAR 0443
ENCODING 11365
SWIDTH 2400 0
DWIDTH 24 0
BBX 12 15 6 -4
BITMAP
F870
2020
3040
1040
1080
0880
0900
0D00
0600
0600
0200
0400
0400
6800
7000
ENDCHAR
STARTCHAR 0444
ENCODING 11366
SWIDTH 2400 0
DWIDTH 24 0
BBX 14 21 5 -4
BITMAP
0100
0700
0100
0100
0100
0100
3D70
6388
430C
C304
8304
8304
8304
C304
C304
4308
2590
1960
0100
0100
0FC0
ENDCHAR
STARTCHAR 0445
ENCODING 11367
SWIDTH 2400 0
DWIDTH 24 0
BBX 10 10 7 0
BITMAP
6180
3200
1400
0C00
0C00
1400
2200
2300
4100
E3C0
ENDCHAR
STARTCHAR 0446
ENCODING 11368
SWIDTH 2400 0
DWIDTH 24 0
BBX 13 13 6 -3
BITMAP
70E0
2040
2040
2040
2040
2040
2040
2040
2040
FFE0
0030
0010
0008
ENDCHAR
STARTCHAR 0447
ENCODING 11369
SWIDTH 2400 0
DWIDTH 24 0
BBX 10 10 7 0
BITMAP
E380
4100
4100
4100
4300
3D00
0100
0100
0100
07C0
ENDCHAR
STARTCHAR 0448
ENCODING 11370
SWIDTH 2400 0
DWIDTH 24 0
BBX 18 10 3 0
BITMAP
70E380
204100
204100
204100
204100
204100
204100
204100
204100
FFFFC0
ENDCHAR
STARTCHAR 0449
ENCODING 11371
SWIDTH 2400 0
DWIDTH 24 0
BBX 19 14 3 -3
BITMAP
FBE7C0
208100
208100
208100
208100
208100
208100
208100
208100
208100
FFFF80
000040
000040
000020
ENDCHAR
STARTCHAR 044A
ENCODING 11372
SWIDTH 2400 0
DWIDTH 24 0
BBX 12 11 6 0
BITMAP
FE00
8800
0800
0800
0800
0FC0
0820
0810
0810
0830
3FC0
ENDCHAR
STARTCHAR 044B
ENCODING 11373
SWIDTH 2400 0
DWIDTH 24 0
BBX 16 10 4 0
BITMAP
700E
2004
2004
2004
3F04
2084
2084
2084
2184
FF1F
ENDCHAR
STARTCHAR 044C
ENCODING 11374
SWIDTH 2400 0
DWIDTH 24 0
BBX 10 10 7 0
BITMAP
7000
2000
2000
2000
3F80
20C0
2040
2040
20C0
FF00
ENDCHAR
STARTCHAR 044D
ENCODING 11375
SWIDTH 2400 0
DWIDTH 24 0
BBX 9 12 8 0
BITMAP
0800
7700
C100
8080
0080
1F80
0080
0080
0080
8100
4300
3C00
ENDCHAR
STARTCHAR 044E
ENCODING 11376
SWIDTH 2400 0
DWIDTH 24 0
BBX 17 12 3 -1
BITMAP
003C00
704200
208100
210080
210080
3F0080
210080
210080
208100
208100
F86600
001800
ENDCHAR
STARTCHAR 044F
ENCODING 11377
SWIDTH 2400 0
DWIDTH 24 0
BBX 11 11 6 0
BITMAP
0FE0
3080
3080
3080
3080
0F80
0C80
0880
1080
3080
E3E0
ENDCHAR
STARTCHAR AC00
ENCODING 12321
SWIDTH 2400 0
DWIDTH 24 0
BBX 20 21 3 -3
BITMAP
000800
000700
000300
000300
FFC300
20C300
008200
010200
030200
020230
0603F0
0C0300
080300
100300
200200
400200
800200
000200
000200
000200
000200
ENDCHAR
STARTCHAR AC01
ENCODING 12322
SWIDTH 2400 0
DWIDTH 24 0
BBX 20 21 3 -3
BITMAP
000C00
000600
000200
FFC200
018200
018200
030200
060200
0403F0
080200
100200
600200
800200
1FFE00
040200
000200
000200
000200
000200
000200
000200
ENDCHAR
STARTCHAR AC04
ENCODING 12323
SWIDTH 2400 0
DWIDTH 24 0
BBX 20 21 2 -3
BITMAP
000600
000380
000180
006180
3FE180
00C180
008180
018180
030180
0201F0
040100
080100
100100
600100
800100
070000
010000
010000
010000
0101C0
00FFC0
ENDCHAR
STARTCHAR AC07
ENCODING 12324
SWIDTH 2400 0
DWIDTH 24 0
BBX 20 21 2 -3
BITMAP
000600
000380
000180
FFC180
00C180
018180
010180
0201B0
060140
0C0100
100100
200100
C00100
000700
0FFF00
020000
020000
020000
020000
020180
03FF80
ENDCHAR
STARTCHAR AC08
ENCODING 12325
SWIDTH 2400 0
DWIDTH 24 0
BBX 19 21 3 -3
BITMAP
001C00
000700
000300
FFC300
008300
018300
030300
020360
040280
080200
100200
600200
800000
0FFE00
000600
000400
0FFE00
040000
040000
040300
07FF00
ENDCHAR
STARTCHAR AC09
ENCODING 12326
SWIDTH 2400 0
DWIDTH 24 0
BBX 20 20 2 -2
BITMAP
000E00
000300
000100
7FE100
00C100
00C100
018110
0101F0
020100
040100
080100
100000
7F9F80
808080
008080
1FC080
080080
080080
09C080
0E0080
ENDCHAR
STARTCHAR AC0A
ENCODING 12327
SWIDTH 2400 0
DWIDTH 24 0
BBX 19 21 3 -3
BITMAP
000800
000600
000200
7FC200
008200
018200
030200
020260
0403C0
080200
100200
200200
FF8000
013F80
011180
011180
1E1180
101100
101100
1F9F80
181000
ENDCHAR
STARTCHAR AC10
ENCODING 12328
SWIDTH 2400 0
DWIDTH 24 0
BBX 20 21 3 -3
BITMAP
001800
000E00
000700
FFC300
008300
018300
030300
020300
0403F0
080200
100200
600200
800200
000000
0FFE00
020200
020400
020400
020400
03FE00
020000
ENDCHAR
STARTCHAR AC11
ENCODING 12329
SWIDTH 2400 0
DWIDTH 24 0
BBX 20 21 3 -3
BITMAP
000800
000600
000200
FFC200
008200
018200
030200
020200
0403F0
080200
100200
600200
800600
060200
020200
03FE00
020200
020200
020200
03FE00
020200
ENDCHAR
STARTCHAR AC12
ENCODING 12330
SWIDTH 2400 0
DWIDTH 24 0
BBX 20 21 3 -3
BITMAP
000800
000600
000200
FFC200
008200
018200
030200
060200
0403F0
080200
100200
600200
818C00
18C600
088600
0F8400
088E00
088900
089080
0FB0C0
08C040
ENDCHAR
STARTCHAR AC13
ENCODING 12331
SWIDTH 2400 0
DWIDTH 24 0
BBX 20 21 3 -3
BITMAP
000C00
000700
000300
FFC200
008200
018200
030200
020270
040380
080200
100200
600200
80C200
003200
003000
007000
00C800
018600
030300
040180
180080
ENDCHAR
STARTCHAR AC14
ENCODING 12332
SWIDTH 2400 0
DWIDTH 24 0
BBX 19 21 3 -3
BITMAP
000C00
000600
000200
FFC200
008200
018200
030200
060200
040260
080380
100200
600200
800A00
060600
030600
060400
050E00
089B00
10D180
202080
404000
ENDCHAR
STARTCHAR AC15
ENCODING 12333
SWIDTH 2400 0
DWIDTH 24 0
BBX 20 21 3 -3
BITMAP
000C00
000600
000200
FFC200
008200
018200
030200
020270
040380
080200
100200
600200
803200
001000
00EC00
018200
010200
010200
010200
008400
007800
ENDCHAR
STARTCHAR AC16
ENCODING 12334
SWIDTH 2400 0
DWIDTH 24 0
BBX 19 21 3 -3
BITMAP
000800
000600
000200
FFC200
008200
018200
030200
060200
0402E0
080300
100200
600200
800200
000700
1FF800
006000
00E000
019800
030600
040300
180180
ENDCHAR
STARTCHAR AC17
ENCODING 12335
SWIDTH 2400 0
DWIDTH 24 0
BBX 21 21 2 -3
BITMAP
000600
000300
000100
7FE100
006100
00C100
018100
010138
0201C0
040100
180100
207C00
C00000
0000C0
0FFFC0
001000
003800
006600
00C180
0300C0
0C0060
ENDCHAR
STARTCHAR AC19
ENCODING 12336
SWIDTH 2400 0
DWIDTH 24 0
BBX 19 21 3 -3
BITMAP
000C00
000600
000200
FFC200
008200
018200
030200
060200
0402E0
080300
100200
600200
800200
000600
07FE00
020000
020600
03FE00
020000
020300
03FF80
ENDCHAR
STARTCHAR AC1A
ENCODING 12337
SWIDTH 2400 0
DWIDTH 24 0
BBX 19 22 3 -4
BITMAP
000C00
000600
000200
FFC200
008200
018200
030200
060200
040260
080380
100200
600200
800200
000600
1FFF00
001000
020C00
030C00
010800
011100
1FFF80
0C0000
ENDCHAR
STARTCHAR AC1B
ENCODING 12338
SWIDTH 2400 0
DWIDTH 24 0
BBX 19 21 3 -3
BITMAP
001800
000700
000300
7FE300
00C300
00C300
018300
030300
0603E0
0C0200
100200
200200
C0FA00
000180
1FFF80
042000
00FC00
018400
010400
018C00
007800
ENDCHAR
STARTCHAR AC1C
ENCODING 12339
SWIDTH 2400 0
DWIDTH 24 0
BBX 17 21 2 -3
BITMAP
000380
003080
000C80
000880
000880
7F8880
018880
010880
030880
020880
060F80
040880
0C0880
180880
300880
200880
C00880
000880
000880
000880
000080
ENDCHAR
STARTCHAR AC1D
ENCODING 12340
SWIDTH 2400 0
DWIDTH 24 0
BBX 18 22 2 -4
BITMAP
000300
0030C0
0018C0
000880
7FC880
018880
010880
030880
020F80
060880
0C0880
180880
100880
600000
8FFF80
020080
000080
000080
000080
000080
000080
000080
ENDCHAR
STARTCHAR AC20
ENCODING 12341
SWIDTH 2400 0
DWIDTH 24 0
BBX 19 21 2 -3
BITMAP
000300
0001C0
0038C0
000880
7F8880
018880
010880
030880
020880
060880
0C0F80
180880
200880
400880
800880
0F0880
010080
010000
010000
0100E0
00FFE0
ENDCHAR
STARTCHAR AC24
ENCODING 12342
SWIDTH 2400 0
DWIDTH 24 0
BBX 18 21 2 -3
BITMAP
000300
0039C0
0008C0
000880
7FC880
018880
010880
030880
020F80
060880
0C0880
180880
100800
63FF80
800180
000100
000100
03FF80
010000
0100C0
01FFC0
ENDCHAR
STARTCHAR AC2C
ENCODING 12343
SWIDTH 2400 0
DWIDTH 24 0
BBX 18 21 2 -3
BITMAP
000300
0039C0
0008C0
000880
7FC880
018880
010880
030880
020F80
060880
0C0880
180880
100800
600000
83FF80
008180
008180
008100
008100
00FF80
008000
ENDCHAR
STARTCHAR AC2D
ENCODING 12344
SWIDTH 2400 0
DWIDTH 24 0
BBX 18 21 2 -3
BITMAP
000300
0038C0
0008C0
000880
7FC880
018880
010880
030880
020F80
060880
0C0880
180880
100B80
638080
808080
00FF80
008080
008080
008080
00FF80
008080
ENDCHAR
STARTCHAR AC2F
ENCODING 12345
SWIDTH 2400 0
DWIDTH 24 0
BBX 18 21 3 -3
BITMAP
000600
000180
003180
001100
FF9100
011100
031100
061100
041100
0C1F00
181100
301100
405100
803100
003100
003000
006800
00C600
010300
060180
0800C0
ENDCHAR
STARTCHAR AC30
ENCODING 12346
SWIDTH 2400 0
DWIDTH 24 0
BBX 18 21 3 -3
BITMAP
000400
006300
003100
001100
FF9100
011100
031100
061100
041F00
0C1100
181100
301100
421F00
818600
010600
030400
06CE00
045980
0810C0
102040
604000
ENDCHAR
STARTCHAR AC31
ENCODING 12347
SWIDTH 2400 0
DWIDTH 24 0
BBX 17 21 2 -3
BITMAP
000300
000180
003880
000880
7FC880
018880
010880
030880
020880
060F80
0C0880
080880
100880
200480
C01E00
002100
004080
004080
004080
002100
001E00
ENDCHAR
STARTCHAR AC38
ENCODING 12348
SWIDTH 2400 0
DWIDTH 24 0
BBX 20 21 3 -3
BITMAP
001C00
000700
000300
000300
FFC300
20C300
008300
0103E0
030200
020200
060200
0C0200
080200
1003F0
200300
400300
800200
000200
000200
000200
000200
ENDCHAR
STARTCHAR AC39
ENCODING 12349
SWIDTH 2400 0
DWIDTH 24 0
BBX 21 21 2 -3
BITMAP
000600
000300
000100
7FE100
004100
00C1F8
018100
010100
030100
060100
0801F8
100100
600100
9FFF00
060100
000100
000100
000100
000100
000100
000100
ENDCHAR
STARTCHAR AC3C
ENCODING 12350
SWIDTH 2400 0
DWIDTH 24 0
BBX 18 20 4 -2
BITMAP
001800
000C00
000400
000400
FFC400
4184C0
0107C0
030400
020400
040400
080400
1005C0
200600
400400
BC0400
040400
040000
040000
040700
03FF00
ENDCHAR
STARTCHAR AC40
ENCODING 12351
SWIDTH 2400 0
DWIDTH 24 0
BBX 19 21 3 -3
BITMAP
001800
000E00
000700
FFC300
008300
018300
0303E0
020200
060200
0C0200
100260
200380
C00200
07FF00
000200
000200
000200
07FE00
020000
020180
03FF80
ENDCHAR
STARTCHAR AC4B
ENCODING 12352
SWIDTH 2400 0
DWIDTH 24 0
BBX 20 21 2 -3
BITMAP
000600
000300
000100
3FE100
00C110
0081F0
018100
030100
020100
040170
080180
104100
603900
801900
003000
002C00
004600
008380
0100C0
060040
080000
ENDCHAR
STARTCHAR AC4D
ENCODING 12353
SWIDTH 2400 0
DWIDTH 24 0
BBX 20 21 2 -3
BITMAP
000E00
000300
000100
7FE100
00C100
00C110
0181F0
010100
020100
040100
080130
1001C0
201100
C01900
00EE00
018300
010100
010100
010100
00C200
007C00
ENDCHAR
STARTCHAR AC54
ENCODING 12354
SWIDTH 2400 0
DWIDTH 24 0
BBX 17 21 2 -3
BITMAP
000180
003880
000880
000880
000880
7F8880
018880
010F80
030880
020880
060880
040880
080880
180F80
100880
200880
C00880
000880
000880
000880
000080
ENDCHAR
STARTCHAR AC58
ENCODING 12355
SWIDTH 2400 0
DWIDTH 24 0
BBX 18 20 2 -2
BITMAP
000380
003880
000880
000880
818880
7F8880
010F80
030880
060880
040880
0C0F80
180880
300880
400880
8E0880
020080
020000
020000
0201C0
01FFC0
ENDCHAR
STARTCHAR AC5C
ENCODING 12356
SWIDTH 2400 0
DWIDTH 24 0
BBX 18 19 3 -2
BITMAP
004700
003100
001100
FF9100
031100
021F00
061300
041300
081F00
101300
201100
47FF00
800300
000200
07FF00
020000
020000
020080
03FFC0
ENDCHAR
STARTCHAR AC70
ENCODING 12357
SWIDTH 2400 0
DWIDTH 24 0
BBX 17 20 3 -2
BITMAP
000600
000380
000100
000100
FFE100
00C100
008100
018100
010100
037F00
060100
040100
080100
100100
200100
400100
800100
000100
000100
000100
ENDCHAR
STARTCHAR AC71
ENCODING 12358
SWIDTH 2400 0
DWIDTH 24 0
BBX 17 21 3 -3
BITMAP
000600
000380
000180
FFC100
00C100
008100
010100
033F00
060100
040100
080100
100100
600000
9FFF00
060100
000100
000100
000100
000100
000100
000100
ENDCHAR
STARTCHAR AC74
ENCODING 12359
SWIDTH 2400 0
DWIDTH 24 0
BBX 17 21 3 -3
BITMAP
000600
000300
000100
000100
7FC100
00C100
008100
010100
037F00
060100
040100
080100
100100
600100
800100
1E0100
020000
020000
020000
020180
03FF80
ENDCHAR
STARTCHAR AC77
ENCODING 12360
SWIDTH 2400 0
DWIDTH 24 0
BBX 17 21 3 -3
BITMAP
000600
000380
000180
7FE100
00C100
008100
018100
037F00
060100
040100
080100
100100
600100
800000
000700
07FF00
020000
020000
020000
020380
03FF80
ENDCHAR
STARTCHAR AC78
ENCODING 12361
SWIDTH 2400 0
DWIDTH 24 0
BBX 18 21 3 -3
BITMAP
000E00
000300
000100
FFC100
20C100
008100
01FF00
030100
060100
040100
080100
100100
600000
87FF00
020100
000100
000100
0FFF00
020000
020180
03FFC0
ENDCHAR
STARTCHAR AC7A
ENCODING 12362
SWIDTH 2400 0
DWIDTH 24 0
BBX 18 21 2 -3
BITMAP
000700
0001C0
0000C0
3FF080
006080
004080
00C180
019E80
030080
020080
0C0080
180080
200080
DFC000
009FC0
0088C0
0FC880
040880
042880
07CFC0
000800
ENDCHAR
STARTCHAR AC80
ENCODING 12363
SWIDTH 2400 0
DWIDTH 24 0
BBX 17 21 3 -3
BITMAP
000E00
000380
000180
FFC100
20C100
008100
018100
037F00
060100
040100
080100
100100
600000
800000
0FFF00
020300
020300
020200
020200
03FF00
020000
ENDCHAR
STARTCHAR AC81
ENCODING 12364
SWIDTH 2400 0
DWIDTH 24 0
BBX 16 21 3 -3
BITMAP
0006
0003
0001
FFC1
20C1
0081
0181
033F
0601
0401
0801
1001
6000
8003
0601
0201
03FF
0201
0201
03FF
0201
ENDCHAR
STARTCHAR AC83
ENCODING 12365
SWIDTH 2400 0
DWIDTH 24 0
BBX 18 21 3 -3
BITMAP
000600
000300
000100
FFC100
20C100
008100
018100
037F00
060100
040100
080100
100100
60C100
803100
003000
007000
00C800
018600
030300
060180
1800C0
ENDCHAR
STARTCHAR AC84
ENCODING 12366
SWIDTH 2400 0
DWIDTH 24 0
BBX 18 20 3 -2
BITMAP
000600
000180
FFC180
208100
018100
030100
027F00
060100
0C0100
180100
300100
400000
830600
010200
030600
030600
06CD00
0C5980
1010C0
202040
ENDCHAR
STARTCHAR AC85
ENCODING 12367
SWIDTH 2400 0
DWIDTH 24 0
BBX 16 21 3 -3
BITMAP
0006
0003
0001
FFC1
20C1
0081
0181
037F
0601
0401
0801
1001
6011
8019
00EE
0183
0101
0101
0101
00C2
007C
ENDCHAR
STARTCHAR AC86
ENCODING 12368
SWIDTH 2400 0
DWIDTH 24 0
BBX 18 21 3 -3
BITMAP
000600
000300
000100
FFC100
00C100
008100
010100
033F00
060100
040100
080100
100100
600380
8FFF80
043000
003000
006800
00C600
010380
0600C0
080040
ENDCHAR
STARTCHAR AC89
ENCODING 12369
SWIDTH 2400 0
DWIDTH 24 0
BBX 17 21 3 -3
BITMAP
000600
000300
000100
FFC100
20C100
008100
010100
037F00
060100
040100
080100
100100
600100
800300
07FF00
020000
020600
03FE00
020000
020100
01FF80
ENDCHAR
STARTCHAR AC8A
ENCODING 12370
SWIDTH 2400 0
DWIDTH 24 0
BBX 19 21 3 -3
BITMAP
000600
000380
000180
FFC100
20C100
008100
018100
037F00
060100
040100
080100
100100
600380
8FFF80
040C00
020600
010400
018400
0188C0
1FFFE0
0C0000
ENDCHAR
STARTCHAR AC8B
ENCODING 12371
SWIDTH 2400 0
DWIDTH 24 0
BBX 19 21 2 -3
BITMAP
000300
000180
000080
3FE080
006080
00C080
008080
019F80
030080
060080
0C0080
100080
203E80
C000E0
07FF00
000800
003E00
004300
004300
006200
003C00
ENDCHAR
STARTCHAR AC8C
ENCODING 12372
SWIDTH 2400 0
DWIDTH 24 0
BBX 18 21 2 -3
BITMAP
000300
000180
0018C0
000880
000880
7F8880
018880
010880
030880
03F880
060880
040880
080880
100880
200880
400880
800880
000880
000880
000880
000080
ENDCHAR
STARTCHAR AC90
ENCODING 12373
SWIDTH 2400 0
DWIDTH 24 0
BBX 19 21 2 -3
BITMAP
000300
0001C0
0018C0
000880
7F8880
018880
010880
030880
03F880
060880
0C0880
080880
100880
200880
C00880
0F0080
010000
010000
010000
0100E0
00FFE0
ENDCHAR
STARTCHAR AC94
ENCODING 12374
SWIDTH 2400 0
DWIDTH 24 0
BBX 18 21 2 -3
BITMAP
000300
0000C0
001880
000880
7F8880
018880
010880
030880
02F880
060880
0C0880
180880
100800
67FF80
810180
000100
000100
07FF80
010000
010040
01FFC0
ENDCHAR
STARTCHAR AC9C
ENCODING 12375
SWIDTH 2400 0
DWIDTH 24 0
BBX 17 21 3 -3
BITMAP
000600
000180
007100
001100
831100
7F1100
031100
061100
07F100
0C1100
081100
101100
201000
400000
87FF80
010100
010300
010300
010300
01FF00
010000
ENDCHAR
STARTCHAR AC9D
ENCODING 12376
SWIDTH 2400 0
DWIDTH 24 0
BBX 18 21 2 -3
BITMAP
000300
0020C0
0018C0
000880
7FC880
008880
018880
010880
03F880
060880
040880
080880
100B80
218080
C08080
00FF80
008080
008080
008080
00FF80
008080
ENDCHAR
STARTCHAR AC9F
ENCODING 12377
SWIDTH 2400 0
DWIDTH 24 0
BBX 19 21 2 -3
BITMAP
000300
000080
001880
000880
7F8880
018880
010880
030880
02F880
060880
0C0880
180880
100880
601880
800800
001800
003400
006300
00C0C0
030060
040020
ENDCHAR
STARTCHAR ACA0
ENCODING 12378
SWIDTH 2400 0
DWIDTH 24 0
BBX 20 21 2 -3
BITMAP
000300
000080
001880
000880
7FC880
018880
010880
030880
03F880
060880
0C0880
080880
100880
210300
C0C180
00C180
018300
036680
022460
0C0830
103010
ENDCHAR
STARTCHAR ACA1
ENCODING 12379
SWIDTH 2400 0
DWIDTH 24 0
BBX 17 20 3 -2
BITMAP
000600
003180
001180
FF9100
031100
031100
061100
07F100
0C1100
181100
301100
401100
801100
007C00
008200
010100
010100
010100
008200
007C00
ENDCHAR
STARTCHAR ACA8
ENCODING 12380
SWIDTH 2400 0
DWIDTH 24 0
BBX 16 21 3 -3
BITMAP
000E
0003
0001
0001
7FC1
00C1
00BF
0181
0101
0301
0601
0C7F
0801
1001
2001
C001
0001
0001
0001
0001
0001
ENDCHAR
STARTCHAR ACA9
ENCODING 12381
SWIDTH 2400 0
DWIDTH 24 0
BBX 17 21 2 -3
BITMAP
000600
000180
000080
7FE080
106080
005F80
008080
018080
010080
022380
041C80
080080
100080
67FF80
838080
000080
000080
000080
000080
000080
000080
ENDCHAR
STARTCHAR ACAA
ENCODING 12382
SWIDTH 2400 0
DWIDTH 24 0
BBX 16 21 3 -3
BITMAP
000C
0003
0001
FFC1
00C1
00BF
0101
0301
0601
0447
0839
1001
6001
81FF
1EC1
00C1
0081
0081
0081
0081
0081
ENDCHAR
STARTCHAR ACAC
ENCODING 12383
SWIDTH 2400 0
DWIDTH 24 0
BBX 18 21 2 -3
BITMAP
000700
000180
000080
000080
3FF080
006080
004F80
00C080
018080
010080
020080
043F80
080080
100080
600080
8F0080
010000
010000
010000
0100C0
01FFC0
ENDCHAR
STARTCHAR ACAF
ENCODING 12384
SWIDTH 2400 0
DWIDTH 24 0
BBX 18 20 2 -2
BITMAP
000300
0001C0
0000C0
3FE080
006080
007F80
00D080
018080
030080
060080
0C1F80
100080
200080
C00180
07FF80
010000
010000
010000
0101C0
01FFC0
ENDCHAR
STARTCHAR ACB0
ENCODING 12385
SWIDTH 2400 0
DWIDTH 24 0
BBX 18 21 3 -3
BITMAP
000E00
000700
000100
FFC100
20C100
01BF00
010100
030100
060100
0CFF00
180100
300100
400000
87FF00
020200
000200
000200
0FFF00
020000
020180
03FFC0
ENDCHAR
STARTCHAR ACB8
ENCODING 12386
SWIDTH 2400 0
DWIDTH 24 0
BBX 15 21 4 -3
BITMAP
001C
000E
0006
FFC2
2082
01FE
0102
0202
0602
0C02
19FE
3002
4002
87FE
0206
0206
0206
0204
0204
03FE
0200
ENDCHAR
STARTCHAR ACB9
ENCODING 12387
SWIDTH 2400 0
DWIDTH 24 0
BBX 16 21 3 -3
BITMAP
000C
0003
0001
FFC1
20C1
00BF
0181
0301
0601
0401
087F
1001
6003
8301
0101
01FF
0101
0101
0101
01FF
0101
ENDCHAR
STARTCHAR ACBB
ENCODING 12388
SWIDTH 2400 0
DWIDTH 24 0
BBX 18 21 3 -3
BITMAP
000600
000100
000100
FFC100
00C100
00FF00
018100
030100
060100
040100
087F00
300100
404100
803100
003100
003000
006800
00C600
018300
020180
0C00C0
ENDCHAR
STARTCHAR ACBC
ENCODING 12389
SWIDTH 2400 0
DWIDTH 24 0
BBX 18 21 3 -3
BITMAP
000C00
000300
000100
FFC100
00C100
01BF00
018100
030100
060100
040100
087F00
100100
600100
860700
030300
030200
070600
0D8D00
08C8C0
301040
406040
ENDCHAR
STARTCHAR ACBD
ENCODING 12390
SWIDTH 2400 0
DWIDTH 24 0
BBX 16 21 3 -3
BITMAP
000C
0003
0001
FFC1
20C1
00BF
0181
0301
0601
0401
087F
1001
6001
8011
00FE
0182
0101
0101
0101
00C2
007C
ENDCHAR
STARTCHAR ACC1
ENCODING 12391
SWIDTH 2400 0
DWIDTH 24 0
BBX 18 21 3 -3
BITMAP
000C00
000300
000100
FFC100
20C100
00BF00
018100
030100
060100
040100
087F00
100100
600100
800300
03FF00
010000
010300
01FF00
010000
010080
01FFC0
ENDCHAR
STARTCHAR ACC4
ENCODING 12392
SWIDTH 2400 0
DWIDTH 24 0
BBX 15 21 4 -3
BITMAP
000C
0006
00E2
0032
0022
FE22
0622
07E2
0422
0C22
1822
13E2
3022
2022
4022
8022
0022
0022
0022
0002
0002
ENDCHAR
STARTCHAR ACC8
ENCODING 12393
SWIDTH 2400 0
DWIDTH 24 0
BBX 19 20 2 -2
BITMAP
000300
003180
001C80
000880
3F8880
018880
01F880
030880
020880
060880
0CF880
180880
100880
200880
C70880
010880
010000
010000
0100C0
00FFE0
ENDCHAR
STARTCHAR ACCC
ENCODING 12394
SWIDTH 2400 0
DWIDTH 24 0
BBX 19 20 2 -2
BITMAP
000300
0000C0
001880
000880
3FC880
018880
01F880
030880
020880
07F880
0C0880
180000
33FF80
410180
800100
07FF80
010000
010000
0100C0
01FFE0
ENDCHAR
STARTCHAR ACD5
ENCODING 12395
SWIDTH 2400 0
DWIDTH 24 0
BBX 18 21 2 -3
BITMAP
000300
0000C0
0018C0
000C80
7FCC80
008880
01F880
010880
030880
060880
04F880
080880
100980
618080
808080
00FF80
008080
008080
008080
00FF80
008080
ENDCHAR
STARTCHAR ACD7
ENCODING 12396
SWIDTH 2400 0
DWIDTH 24 0
BBX 18 21 3 -3
BITMAP
000600
000300
003980
001900
FF9100
031100
03F100
061100
041100
0BF100
101100
201100
405100
803100
003100
003000
006800
00C600
018380
020180
0C0040
ENDCHAR
STARTCHAR ACE0
ENCODING 12397
SWIDTH 2400 0
DWIDTH 24 0
BBX 20 16 2 -1
BITMAP
3FFFC0
080080
000180
000180
000180
000100
018100
00C300
004200
004200
004000
004000
004060
007FF0
FFC000
300000
ENDCHAR
STARTCHAR ACE1
ENCODING 12398
SWIDTH 2400 0
DWIDTH 24 0
BBX 21 19 2 -3
BITMAP
1FFFC0
000180
000180
000100
00E100
006100
006200
006070
FFFFF8
300000
000000
0FFF80
000100
000100
000100
000100
000100
000100
000100
ENDCHAR
STARTCHAR ACE4
ENCODING 12399
SWIDTH 2400 0
DWIDTH 24 0
BBX 21 18 2 -3
BITMAP
1FFFC0
0000C0
000080
000180
00E180
006100
006100
006060
007FF8
FFE000
200000
000000
0E0000
020000
020000
020000
020180
01FFC0
ENDCHAR
STARTCHAR ACE7
ENCODING 12400
SWIDTH 2400 0
DWIDTH 24 0
BBX 21 19 2 -3
BITMAP
1FFFC0
000180
000180
000100
00E100
006100
006200
006070
FFFFF8
300000
000000
000000
0FFF80
020000
020000
020000
020000
020180
03FFC0
ENDCHAR
STARTCHAR ACE8
ENCODING 12401
SWIDTH 2400 0
DWIDTH 24 0
BBX 21 19 2 -3
BITMAP
1FFF80
000180
000180
01C100
006100
006000
006020
007FF8
FFE000
300000
000000
000000
0FFF00
000300
000200
0FFF00
020000
020180
03FFC0
ENDCHAR
STARTCHAR ACEA
ENCODING 12402
SWIDTH 2400 0
DWIDTH 24 0
BBX 21 19 2 -3
BITMAP
1FFFC0
040180
000180
000100
01E100
006100
006200
006070
FFFFF8
300000
000000
1FDFC0
008840
008840
3FC840
080880
080880
0B8FC0
0C0800
ENDCHAR
STARTCHAR ACEC
ENCODING 12403
SWIDTH 2400 0
DWIDTH 24 0
BBX 21 18 2 -2
BITMAP
1FFF80
000180
000180
00C100
006100
006000
006070
FFFFF8
300000
000000
1FC300
008300
008300
1F8300
080480
0848C0
0F9060
0C2020
ENDCHAR
STARTCHAR ACEF
ENCODING 12404
SWIDTH 2400 0
DWIDTH 24 0
BBX 21 19 2 -3
BITMAP
1FFF80
040180
000100
00E100
006100
006070
FFFFF8
300000
000000
001F00
1F8000
0080C0
00BF00
1F9B00
082080
082080
09B180
0E1F80
000E00
ENDCHAR
STARTCHAR ACF0
ENCODING 12405
SWIDTH 2400 0
DWIDTH 24 0
BBX 21 19 2 -3
BITMAP
1FFF80
000180
000180
000100
00E100
006000
006000
006070
FFFFF8
300000
000000
000000
0FFF00
020300
020200
020200
020200
03FF00
020000
ENDCHAR
STARTCHAR ACF1
ENCODING 12406
SWIDTH 2400 0
DWIDTH 24 0
BBX 21 19 2 -3
BITMAP
1FFF80
000180
000180
000100
00E100
006200
006000
006020
FFFFF8
300000
000C00
0E0600
020200
03FE00
020200
020200
020200
03FE00
020200
ENDCHAR
STARTCHAR ACF3
ENCODING 12407
SWIDTH 2400 0
DWIDTH 24 0
BBX 21 20 2 -4
BITMAP
1FFF80
000180
000180
000100
01E100
006200
006000
006020
FFFFF8
300000
000000
00C000
006000
00E000
00D000
018C00
060700
0C0380
100080
200000
ENDCHAR
ENDFONT
